<svg xmlns="http://www.w3.org/2000/svg" width="100" height="100" viewBox="0 0 26.458318 26.458333"><path d="M13.23.302C6.07.302.264 6.107.264 13.267a12.965 12.965 0 0 0 .847 4.595c.19-.497.408-.982.682-1.438.14-.232.294-.457.396-.707.103-.25.15-.533.072-.792a1.362 1.362 0 0 0-.22-.404c-.092-.123-.192-.24-.275-.37a1.662 1.662 0 0 1-.255-1.12 1.5 1.5 0 0 1 .58-.987c.28-.208.635-.3.985-.288a1.757 1.757 0 0 1 .346.048c.452.11.852.393 1.148.75.368.447.584 1.01.637 1.586a3.574 3.574 0 0 1-.275 1.693c-.4.955-1.15 1.725-1.565 2.673-.338.775-.435 1.638-.39 2.483.007.077.018.155.025.234a12.965 12.965 0 0 0 3.62 3.18 17.63 17.63 0 0 1-.13-2.11c.002-.56.03-1.12.085-1.675-.34-.236-.65-.51-.87-.86-.392-.62-.466-1.408-.305-2.124.16-.717.54-1.37.997-1.945a7.833 7.833 0 0 1 2.835-2.223 10.305 10.305 0 0 1-.09-.126 4.854 4.854 0 0 1-.702-2.176c-.06-.777.064-1.554.115-2.33.037-.543.04-1.085.07-1.627.038-.627.114-1.255.29-1.858a2.36 2.36 0 0 1 .266-.63 1.4 1.4 0 0 1 .594-.514c.274-.108.51-.132.776-.087.22.046.425.156.604.294.18.138.335.304.48.477a7.298 7.298 0 0 1 1.04 1.617 3.57 3.57 0 0 1 1.09 0 7.287 7.287 0 0 1 1.04-1.616 3.21 3.21 0 0 1 .48-.476c.18-.14.383-.248.604-.295a1.268 1.268 0 0 1 .78.086 1.402 1.402 0 0 1 .595.517c.124.19.202.408.266.626.175.602.252 1.23.29 1.856.03.543.033 1.087.07 1.628.05.777.175 1.554.116 2.33a4.855 4.855 0 0 1-.705 2.178c-.03.05-.07.096-.103.145.247.278.598.513.898.614a1.956 1.956 0 0 0 1.05.044 1.65 1.65 0 0 0 .533-.226 1.253 1.253 0 0 0 .397-.418c.118-.21.166-.45.192-.687.067-.61 0-1.224-.05-1.835-.034-.396-.062-.8.027-1.187.06-.26.177-.518.373-.7a1.106 1.106 0 0 1 .465-.255 1.312 1.312 0 0 1 .53-.03c.38.057.736.274.948.594.12.18.194.39.238.604.044.213.06.43.072.648.04.76.04 1.522.018 2.284-.018.665-.055 1.348-.32 1.957-.343.782-1.032 1.366-1.775 1.786a7.052 7.052 0 0 1-1.588.647c.482 1.54.733 3.24.733 4.968a17.6 17.6 0 0 1-.135 2.125 12.964 12.964 0 0 0 6.384-11.152c0-7.16-5.806-12.965-12.965-12.965zM9.602 16.284v1.483a1.88 1.88 0 0 1 1.083.362 1.738 1.738 0 0 1 .556.68c.122.27.166.576.116.868a1.493 1.493 0 0 1-.332.708 1.647 1.647 0 0 1-.635.458 1.738 1.738 0 0 1-.787.122v3.73l7.762-4.208-7.762-4.204z" fill="#fff"/></svg>