<svg xmlns="http://www.w3.org/2000/svg" width="264.489" height="45.658" viewBox="0 0 69.979393 12.080406"><path d="M6.387.53A5.858 5.858 0 0 0 .53 6.386 5.858 5.858 0 0 0 .91 8.463c.086-.224.184-.444.308-.65.064-.105.133-.206.18-.32a.54.54 0 0 0 .032-.357.617.617 0 0 0-.1-.182c-.04-.056-.087-.11-.124-.168a.75.75 0 0 1-.115-.506.678.678 0 0 1 .262-.446.706.706 0 0 1 .445-.13.794.794 0 0 1 .156.02.99.99 0 0 1 .52.34c.165.202.262.457.286.717.024.26-.024.525-.124.766-.18.432-.52.78-.707 1.208-.152.35-.196.74-.175 1.122.003.035.008.07.01.106a5.858 5.858 0 0 0 1.636 1.437 7.965 7.965 0 0 1-.057-.954c0-.254.014-.507.038-.757a1.365 1.365 0 0 1-.392-.39c-.177-.28-.21-.635-.138-.96.073-.323.245-.618.45-.878a3.54 3.54 0 0 1 1.282-1.005c-.014-.02-.03-.04-.04-.056a2.193 2.193 0 0 1-.318-.983c-.026-.35.03-.703.052-1.053.017-.245.018-.49.032-.735.017-.285.05-.568.13-.84.03-.1.065-.198.12-.284a.633.633 0 0 1 .27-.233.62.62 0 0 1 .35-.04c.1.022.192.072.273.134.082.062.152.138.218.215a3.297 3.297 0 0 1 .47.73 1.614 1.614 0 0 1 .493 0 3.292 3.292 0 0 1 .47-.73c.066-.078.136-.153.217-.215a.688.688 0 0 1 .273-.133.573.573 0 0 1 .353.04.634.634 0 0 1 .268.233c.057.086.092.184.12.283.08.272.115.556.132.84.014.244.015.49.032.734.023.35.08.702.052 1.053a2.194 2.194 0 0 1-.318.984c-.014.023-.03.044-.046.066.11.126.27.232.406.278a.884.884 0 0 0 .473.02.746.746 0 0 0 .243-.103.566.566 0 0 0 .18-.188.798.798 0 0 0 .086-.31c.03-.275 0-.553-.024-.83-.015-.178-.028-.36.012-.535a.618.618 0 0 1 .17-.318.5.5 0 0 1 .21-.115.593.593 0 0 1 .24-.013.627.627 0 0 1 .427.267.773.773 0 0 1 .108.272c.02.097.027.195.032.294.02.343.018.687.008 1.03-.008.302-.025.61-.145.886-.154.353-.466.617-.8.806a3.186 3.186 0 0 1-.718.294 7.57 7.57 0 0 1 .33 2.244 7.952 7.952 0 0 1-.06.96 5.858 5.858 0 0 0 2.884-5.04A5.858 5.858 0 0 0 6.386.53zm-1.64 7.22v.67a.85.85 0 0 1 .49.164.785.785 0 0 1 .252.307c.054.123.074.26.05.393a.675.675 0 0 1-.148.32.744.744 0 0 1-.288.207.785.785 0 0 1-.356.055v1.686l3.507-1.9-3.507-1.9z" fill="#fff"/><path d="M34 3.863v1.17h1.462v-1.17zm-2.872.084V5.37h-1.715c-.418 0-.747.12-.987.358-.234.235-.35.56-.35.98V8.63c0 .38.113.683.342.912.228.23.533.343.912.343h.376c.19 0 .42-.04.694-.117.28-.084.55-.212.81-.385l.085.418h1.296V3.948zm31.688 0V5.37H61.1c-.417 0-.746.12-.986.358-.234.235-.352.56-.352.98V8.63c0 .38.115.683.344.912.228.23.532.343.91.343h.377c.19 0 .422-.04.695-.117.28-.084.55-.212.81-.385l.084.418h1.297V3.948zM18.06 5.285c-.188 0-.422.042-.7.126a2.91 2.91 0 0 0-.804.377l-.084-.418h-1.296V9.8h1.464V6.666c.39-.11.71-.167.96-.167h.043a.283.283 0 0 1 .292.292v3.012H19.4V6.666c.39-.11.71-.167.96-.167h.043a.283.283 0 0 1 .292.292v3.012h1.464V6.54c0-.38-.115-.683-.343-.912-.23-.23-.533-.343-.912-.343h-.084c-.233 0-.5.042-.802.125a2.71 2.71 0 0 0-.828.377c-.245-.335-.593-.502-1.045-.502zm6.3 0c-.418 0-.747.12-.987.36-.234.234-.35.56-.35.978V8.63c0 .38.114.683.342.912.23.23.533.343.912.343.875 0 1.85-.056 2.927-.167V8.672c-1.065.084-1.873.125-2.425.125a.284.284 0 0 1-.292-.292V8.17h2.884V6.624c0-.418-.12-.744-.36-.978-.234-.24-.56-.36-.98-.36zm15.035 0c-.82 0-1.74.056-2.76.167v1.046c.268-.017.62-.042 1.054-.076.44-.033.84-.05 1.203-.05a.284.284 0 0 1 .293.293V7h-1.714c-.38 0-.684.114-.912.342-.23.23-.343.533-.343.912v.376c0 .38.114.683.343.912.228.23.533.343.912.343h.292c.19 0 .42-.04.694-.117.28-.084.55-.212.812-.385l.083.418h1.297V6.54c0-.38-.115-.683-.343-.912-.23-.23-.533-.343-.912-.343zm27.045 0c-.42 0-.748.12-.987.36-.235.234-.352.56-.352.978V8.63c0 .38.116.683.344.912.23.23.533.343.912.343.875 0 1.85-.056 2.927-.167V8.672c-1.065.084-1.873.125-2.425.125a.284.284 0 0 1-.293-.292V8.17h2.885V6.624c0-.418-.12-.744-.36-.978-.234-.24-.56-.36-.978-.36zm-21.643.084c-.418 0-.747.12-.987.358-.234.234-.35.56-.35.98V8.63c0 .38.113.683.342.912.228.23.532.343.91.343.8 0 1.72-.056 2.76-.167V8.63c-1.002.084-1.755.126-2.257.126a.284.284 0 0 1-.292-.293v-1.63c0-.224.11-.335.334-.335h2.216v-1.13zm4.657 0c-.42 0-.748.12-.987.358-.235.234-.35.56-.35.98V8.63c0 .38.113.683.34.912.23.23.534.343.913.343.797 0 1.717-.056 2.76-.167V8.63c-1.004.084-1.757.126-2.258.126a.284.284 0 0 1-.293-.293v-1.63c0-.224.11-.335.333-.335h2.217v-1.13zm4.73 0c-.417 0-.746.12-.986.358-.234.234-.35.56-.35.98V8.63c0 .38.113.683.342.912.228.23.532.343.91.343.8 0 1.72-.056 2.76-.167V8.63c-1.002.084-1.755.126-2.257.126a.284.284 0 0 1-.292-.293v-1.63c0-.224.112-.335.335-.335h2.216v-1.13zm-20.813.166v1.13H34V9.8h1.462V5.537zm-8.55.794h.753c.223 0 .335.112.335.335v.46h-1.422v-.46c0-.223.11-.335.334-.335zm42.08 0h.752c.223 0 .335.112.335.335v.46h-1.422v-.46c0-.223.11-.335.334-.335zm-37.027.168h1.255v2.007a3.553 3.553 0 0 1-1.004.167h-.293a.284.284 0 0 1-.292-.293V6.83c0-.223.112-.334.335-.334zm31.688 0h1.256v2.007a3.552 3.552 0 0 1-1.004.167h-.293a.284.284 0 0 1-.294-.293V6.83c0-.223.112-.334.335-.334zM37.975 8.045h1.212v.502a3.552 3.552 0 0 1-1.004.167h-.208a.284.284 0 0 1-.293-.292v-.084c0-.084.03-.153.084-.21a.284.284 0 0 1 .21-.082zm3.392.502V9.8h1.506V8.548zm16.316 0V9.8h1.506V8.548z" style="line-height:1000%;-inkscape-font-specification:'Russo One';font-variant-ligatures:discretionary-ligatures historical-ligatures;font-variant-caps:normal;font-variant-numeric:lining-nums tabular-nums slashed-zero;font-feature-settings:normal;text-align:start" font-weight="400" font-family="Russo One" fill="#fff"/></svg>
