<?xml version="1.0" standalone="no"?>
<!DOCTYPE svg PUBLIC "-//W3C//DTD SVG 1.1//EN" "http://www.w3.org/Graphics/SVG/1.1/DTD/svg11.dtd" >
<svg>
<metadata>
Created by FontForge 20090914 at Tue Jan 28 18:50:43 2014
 By www-data
&#194;&#169; 2006 Microsoft Corporation, portions &#194;&#169; 2000 Syriac Computing Institute. All Rights Reserved.
</metadata>
<defs>
<font id="EstrangeloEdessa" horiz-adv-x="0" >
  <font-face 
    font-family="Estrangelo Edessa"
    font-weight="400"
    font-stretch="normal"
    units-per-em="2048"
    panose-1="3 8 6 0 0 0 0 0 0 0"
    ascent="1434"
    descent="-614"
    x-height="821"
    cap-height="1294"
    bbox="-322 -643 2474 1647"
    underline-thickness="10"
    underline-position="-68"
    unicode-range="U+0020-U+2671"
  />
<missing-glyph horiz-adv-x="1024" 
d="M129 1389h770v-1389h-770v1389zM770 129v1131h-512v-1131h512z" />
    <glyph glyph-name="uni072A0308.isol" unicode="&#x72a;&#x308;" horiz-adv-x="686" 
d="M592 -70c-58 0 -96.333 30.999 -115 92.999c-3.33301 11.333 -7.33301 33.666 -12 66.999s-10 77.666 -16 132.999c-5.33301 46 -12.166 85.5 -20.499 118.5s-18.833 59.167 -31.5 78.5c-16 26 -65.667 49 -149 69c-68.667 19.333 -103 53 -103 101c0 30 16 54.667 48 74
c27.333 14.667 58 22 92 22c44.667 0 136.667 -2 276 -6c8.66699 -19.333 16.5 -40.666 23.5 -63.999l21.5 -75c-2 -4 -10 -15 -24 -33c-4.66699 -5.33301 -8 -11.333 -10 -18s-3 -13.667 -3 -21c0 -35.333 19.333 -101 58 -197
c19.333 -47.333 33.666 -87.666 42.999 -120.999s14 -59.666 14 -78.999c0 -94.667 -30.667 -142 -92 -142zM572 849.999c-15.333 -15.333 -33.6699 -23 -55.0029 -23s-39.666 7.66699 -54.999 23s-23 33.666 -23 54.999c0 10 2 19.667 6 29s9.5 17.5 16.5 24.5
s15.333 12.5 25 16.5s19.834 6 30.501 6s20.834 -2 30.501 -6s18 -9.5 25 -16.5s12.5 -15.167 16.5 -24.5s6 -19 6 -29c0 -21.333 -7.66699 -39.666 -23 -54.999zM287.996 874.499c-4 -9.66699 -9.50195 -17.998 -16.502 -24.998s-15.167 -12.5 -24.5 -16.5s-19 -6 -29 -6
c-21.333 0 -39.666 7.66699 -54.999 23s-23 33.666 -23 54.999c0 10 2 19.667 6 29s9.5 17.5 16.5 24.5s15.333 12.5 25 16.5s19.834 6 30.501 6c20.667 0 38.5 -7.5 53.5 -22.5s22.5 -32.833 22.5 -53.5c0 -10.667 -2 -20.834 -6 -30.501z" />
    <glyph glyph-name=".notdef" horiz-adv-x="1024" 
d="M129 1389h770v-1389h-770v1389zM770 129v1131h-512v-1131h512z" />
    <glyph glyph-name="space" unicode=" " horiz-adv-x="424" 
 />
    <glyph glyph-name="space" unicode="&#xa0;" horiz-adv-x="424" 
 />
    <glyph glyph-name="exclam" unicode="!" horiz-adv-x="565" 
d="M389 1294l-41 -940h-137l-39 940h217zM156 100c0 16.667 3.16699 32.334 9.5 47.001s15.333 27.5 27 38.5s25.167 19.667 40.5 26s32 9.5 50 9.5c17.333 0 33.666 -3.16699 48.999 -9.5s28.833 -15 40.5 -26s20.834 -23.833 27.501 -38.5s10 -30.334 10 -47.001
c0 -16 -3.33301 -31 -10 -45s-15.834 -26.5 -27.501 -37.5s-25.167 -19.667 -40.5 -26s-31.666 -9.5 -48.999 -9.5c-18 0 -34.667 3.16699 -50 9.5s-28.833 15 -40.5 26s-20.667 23.5 -27 37.5s-9.5 29 -9.5 45z" />
    <glyph glyph-name="quotedbl" unicode="&#x22;" horiz-adv-x="750" 
d="M297 1294l-37 -497h-145l-39 497h221zM674 1294l-39 -497h-146l-38 497h223z" />
    <glyph glyph-name="numbersign" unicode="#" horiz-adv-x="1171" 
d="M526 891h211l78 403h146l-78 -403h227v-141h-254l-41 -209h238v-142h-265l-75 -399h-150l78 399h-207l-76 -399h-147l74 399h-224v142h250l41 209h-231v141h258l76 403h149zM461 541h207l41 209h-209z" />
    <glyph glyph-name="dollar" unicode="$" horiz-adv-x="1034" 
d="M727 383c0 22 -2.83203 41.335 -8.49902 58.002s-13.834 31.667 -24.501 45s-24 25.166 -40 35.499s-34.667 20.166 -56 29.499v-328c42 11.333 74 31 96 59s33 61.667 33 101zM313.001 934.002c0 -42 13.5 -75.667 40.5 -101s62.167 -45.666 105.5 -60.999v305
c-44 -9.33301 -79.333 -27.333 -106 -54s-40 -56.334 -40 -89.001zM918.001 391.002c0 -42 -6.83496 -81.3379 -20.502 -118.005s-34 -69.334 -61 -98.001s-60.5 -53 -100.5 -73s-86 -34.333 -138 -43v-243h-139v237c-31.333 1.33301 -62 4.5 -92 9.5s-58.667 11.5 -86 19.5
s-52.666 17.333 -75.999 28s-44 22.334 -62 35.001v191c19.333 -14 41.833 -28.167 67.5 -42.5s52.667 -27.166 81 -38.499s57 -21 86 -29s56.167 -13 81.5 -15v389c-51.333 18 -97.5 37 -138.5 57s-76 42.667 -105 68s-51.333 54.5 -67 87.5s-23.5 71.5 -23.5 115.5
c0 43.333 8.5 82.333 25.5 117s40.333 64.834 70 90.501s64.834 46.834 105.501 63.501s85 28 133 34v221h139v-215c43.333 -3.33301 85.833 -10.166 127.5 -20.499s83.167 -23.166 124.5 -38.499v-176c-16.667 7.33301 -35 15 -55 23s-41 15.333 -63 22
s-44.333 12.667 -67 18s-45 9.33301 -67 12v-354c45.333 -18 87.333 -37.5 126 -58.5s72.5 -44.833 101.5 -71.5s51.667 -56.667 68 -90s24.5 -71.333 24.5 -114z" />
    <glyph glyph-name="percent" unicode="%" horiz-adv-x="1552" 
d="M537 973c0 66 -12.667 117.334 -38 154.001s-60 55 -104 55c-45.333 0 -80.833 -19 -106.5 -57s-38.5 -92 -38.5 -162c0 -64.667 12.5 -115.334 37.5 -152.001s59.5 -55 103.5 -55c45.333 0 81 19.167 107 57.5s39 91.5 39 159.5zM1305 330.001
c0 66 -12.334 117.333 -37.001 154s-59 55 -103 55c-45.333 0 -81.166 -19 -107.499 -57s-39.5 -92.333 -39.5 -163c0 -64.667 12.833 -115.167 38.5 -151.5s61.167 -54.5 106.5 -54.5c44 0 78.667 19.167 104 57.5s38 91.5 38 159.5zM1290 1294l-856 -1294h-186l858 1294
h184zM1468 332.001c0 -52 -7.5 -99.333 -22.5 -142s-36.167 -79.5 -63.5 -110.5s-60.5 -55 -99.5 -72s-82.167 -25.5 -129.5 -25.5c-44.667 0 -85.5 8 -122.5 24s-68.833 38.5 -95.5 67.5s-47.167 63.833 -61.5 104.5s-21.5 85.667 -21.5 135c0 54 7.5 103 22.5 147
s36.333 81.5 64 112.5s61.167 55 100.5 72s83.333 25.5 132 25.5c48 0 90.5 -7.83301 127.5 -23.5s68 -38 93 -67s44 -64.5 57 -106.5s19.5 -89 19.5 -141zM699.999 977.001c0 -52.667 -7.66699 -100.67 -23 -144.003s-36.833 -80.333 -64.5 -111s-61 -54.5 -100 -71.5
s-82.167 -25.5 -129.5 -25.5c-44.667 0 -85.5 8 -122.5 24s-68.5 38.5 -94.5 67.5s-46.167 63.833 -60.5 104.5s-21.5 85.667 -21.5 135c0 54.667 7.5 103.834 22.5 147.501s36.167 80.834 63.5 111.501s60.5 54.334 99.5 71.001s82.833 25 131.5 25
s91.667 -7.66699 129 -23s68.5 -37.333 93.5 -66s44 -63.667 57 -105s19.5 -88 19.5 -140z" />
    <glyph glyph-name="ampersand" unicode="&#x26;" horiz-adv-x="1411" 
d="M1155 598c-8 -28.667 -17.667 -58.001 -29 -88.001s-23.833 -59.667 -37.5 -89s-28.667 -57.833 -45 -85.5s-33.833 -53.5 -52.5 -77.5c34 -41.333 66.167 -72.166 96.5 -92.499s63.166 -30.5 98.499 -30.5c17.333 0 35.833 1.33301 55.5 4s44.167 8.33398 73.5 17.001
v-142c-23.333 -11.333 -48.166 -19.5 -74.499 -24.5s-53.5 -7.5 -81.5 -7.5c-34 0 -64.667 3.5 -92 10.5s-52.666 17 -75.999 30s-45 28.5 -65 46.5s-39.333 38 -58 60c-24.667 -22 -50.667 -42 -78 -60s-56.666 -33.5 -87.999 -46.5s-65.333 -23 -102 -30
s-77 -10.5 -121 -10.5c-61.333 0 -115.833 9 -163.5 27s-87.667 43 -120 75s-57 69.833 -74 113.5s-25.5 91.167 -25.5 142.5c0 52 7.66699 98.833 23 140.5s37 79 65 112s61.833 62.5 101.5 88.5s83.834 49.667 132.501 71c-22.667 36.667 -41.334 75 -56.001 115
s-22 84 -22 132c0 47.333 8.5 90.166 25.5 128.499s40.333 71.166 70 98.499s64.834 48.333 105.501 63s85 22 133 22c53.333 0 102 -6.16699 146 -18.5s82 -28.833 114 -49.5v-166c-16.667 11.333 -35.5 22 -56.5 32s-42.333 18.833 -64 26.5s-43 13.834 -64 18.501
s-40.167 7 -57.5 7c-34 0 -61.333 -5.83301 -82 -17.5s-36.5 -26 -47.5 -43s-18.333 -34.833 -22 -53.5s-5.5 -34.667 -5.5 -48c0 -34.667 6.66699 -70.667 20 -108s36.666 -81 69.999 -131l53.5 -79.5l65.5 -93.5l73 -100.5l76 -99.5c19.333 31.333 36.666 64 51.999 98
s28.666 71.667 39.999 113h-131v147h440v-147h-139zM494 136.999c51.333 0 101.001 10.166 149.001 30.499s91.667 48.5 131 84.5l-144 190.5l-138 194.5c-38.667 -20 -70.667 -41.167 -96 -63.5s-45.5 -45.666 -60.5 -69.999s-25.5 -49.5 -31.5 -75.5s-9 -52.667 -9 -80
c0 -32.667 4.66699 -62 14 -88s22.666 -48.167 39.999 -66.5s38.333 -32.333 63 -42s52 -14.5 82 -14.5z" />
    <glyph glyph-name="quotesingle" unicode="'" horiz-adv-x="365" 
d="M293 1294l-37 -497h-145l-39 497h221z" />
    <glyph glyph-name="parenleft" unicode="(" horiz-adv-x="598" 
d="M313 498c0 -144.667 21.667 -282.168 65 -412.501s108.333 -254.5 195 -372.5h-172c-189.333 216 -284 477 -284 783c0 308 94.667 574 284 798h174c-88.667 -119.333 -154.5 -244.666 -197.5 -375.999s-64.5 -271.333 -64.5 -420z" />
    <glyph glyph-name="parenright" unicode=")" horiz-adv-x="598" 
d="M481 496c0 -306 -94.667 -566.999 -284 -782.999h-172c86.667 118 151.667 242.167 195 372.5s65 267.833 65 412.5c0 148.667 -21.5 288.667 -64.5 420s-108.833 256.666 -197.5 375.999h174c189.333 -224 284 -490 284 -798z" />
    <glyph glyph-name="asterisk" unicode="*" horiz-adv-x="823" 
d="M240 561l-146 115l182 188l-223 47l43 168l238 -78l-15 293h185l-15 -293l238 78l43 -168l-227 -47l182 -188l-143 -115l-170 225z" />
    <glyph glyph-name="plus" unicode="+" horiz-adv-x="1034" 
d="M954 475h-356v-350h-160v350h-358v160h358v348h160v-348h356v-160z" />
    <glyph glyph-name="comma" unicode="," horiz-adv-x="469" 
d="M369 197c-9.33301 -34 -21.667 -70.999 -37 -110.999s-31.833 -80.5 -49.5 -121.5l-54.5 -121.5l-52 -111h-147c12 36 23.5 74.167 34.5 114.5s21.167 80.833 30.5 121.5s18 80.667 26 120s14.333 75.666 19 108.999h230z" />
    <glyph glyph-name="hyphen" unicode="-" horiz-adv-x="735" 
d="M604 352h-473v170h473v-170z" />
    <glyph glyph-name="hyphen" unicode="&#x2010;" horiz-adv-x="735" 
d="M604 352h-473v170h473v-170z" />
    <glyph glyph-name="period" unicode="." horiz-adv-x="451" 
d="M90 117c0 18 3.5 34.5 10.5 49.5s16.667 28.167 29 39.5s26.666 20.166 42.999 26.499s33.833 9.5 52.5 9.5c19.333 0 37.166 -3.16699 53.499 -9.5s30.5 -15.166 42.5 -26.499s21.5 -24.5 28.5 -39.5s10.5 -31.5 10.5 -49.5c0 -17.333 -3.5 -33.666 -10.5 -48.999
s-16.5 -28.833 -28.5 -40.5s-26.167 -20.834 -42.5 -27.501s-34.166 -10 -53.499 -10c-18.667 0 -36.167 3.33301 -52.5 10s-30.666 15.834 -42.999 27.501s-22 25.167 -29 40.5s-10.5 31.666 -10.5 48.999z" />
    <glyph glyph-name="slash" unicode="/" horiz-adv-x="799" 
d="M803 1294l-602 -1294h-205l602 1294h205z" />
    <glyph glyph-name="zero" unicode="0" horiz-adv-x="1034" 
d="M760 637c0 174 -20 304.167 -60 390.5s-98.667 129.5 -176 129.5c-82.667 0 -145 -43.833 -187 -131.5s-63 -220.5 -63 -398.5c0 -164 20.667 -286.667 62 -368s102 -122 182 -122c79.333 0 139.5 41.333 180.5 124s61.5 208 61.5 376zM956 651
c0 -104.667 -10.166 -198.501 -30.499 -281.501s-49.833 -153.167 -88.5 -210.5s-85.834 -101.166 -141.501 -131.499s-118.834 -45.5 -189.501 -45.5c-70 0 -131.667 14.167 -185 42.5s-98 69.666 -134 123.999s-63.167 121.166 -81.5 200.499s-27.5 170 -27.5 272
c0 110.667 9.16699 208.834 27.5 294.501s46.333 157.834 84 216.501s84.834 103.167 141.501 133.5s123 45.5 199 45.5c284 0 426 -220 426 -660z" />
    <glyph glyph-name="one" unicode="1" horiz-adv-x="1034" 
d="M698 0h-192v1051l-34.5 -29.5l-35.5 -28.5l-252 -180v191l391 294h123v-1298z" />
    <glyph glyph-name="two" unicode="2" horiz-adv-x="1034" 
d="M655 938c0 66 -16.166 117.333 -48.499 154s-79.5 55 -141.5 55c-27.333 0 -56.333 -4.16699 -87 -12.5s-60.834 -19.5 -90.501 -33.5s-58 -30 -85 -48s-50.167 -36.667 -69.5 -56v181c19.333 18 42 35 68 51s54.167 30 84.5 42s62.5 21.667 96.5 29s69 11 105 11
c58 0 110.333 -8.16699 157 -24.5s86.167 -39.833 118.5 -70.5s57.333 -67.5 75 -110.5s26.5 -91.167 26.5 -144.5c0 -55.333 -6.83301 -105.5 -20.5 -150.5s-32.667 -88 -57 -129s-53 -81.667 -86 -122l-108.5 -131.5l-219 -266h534v-162h-770v141l305 377l87.5 110
c26.333 33.333 48.833 66 67.5 98s33 65 43 99s15 71.667 15 113z" />
    <glyph glyph-name="three" unicode="3" horiz-adv-x="1034" 
d="M895 369c0 -58.667 -10.8369 -111.83 -32.5039 -159.497s-52.334 -88.334 -92.001 -122.001s-87 -59.667 -142 -78s-115.833 -27.5 -182.5 -27.5c-59.333 0 -115.5 6.16699 -168.5 18.5s-100.5 31.166 -142.5 56.499v183c23.333 -16 48.333 -30.5 75 -43.5
s53.334 -24 80.001 -33s52.834 -16 78.501 -21s49.5 -7.5 71.5 -7.5c86 0 149.167 20.167 189.5 60.5s60.5 95.166 60.5 164.499c0 34.667 -7.5 65.334 -22.5 92.001s-36.333 49.167 -64 67.5s-60.5 32.166 -98.5 41.499s-80 14 -126 14h-96v164h61
c51.333 0 96 5.83301 134 17.5s69.5 27.5 94.5 47.5s43.667 43.667 56 71s18.5 56.666 18.5 87.999c0 34 -5.16699 63 -15.5 87s-24.5 43.667 -42.5 59s-39.333 26.5 -64 33.5s-51.667 10.5 -81 10.5c-19.333 0 -41.166 -2.33301 -65.499 -7s-49.833 -11.5 -76.5 -20.5
s-53.5 -19.667 -80.5 -32s-52.5 -26.5 -76.5 -42.5v174c48 30 98.5 51.833 151.5 65.5s108.5 20.5 166.5 20.5c60.667 0 114.667 -7.66699 162 -23s87.333 -37.5 120 -66.5s57.667 -64 75 -105s26 -87.5 26 -139.5c0 -37.333 -6.16699 -72.166 -18.5 -104.499
s-29.166 -61.666 -50.499 -87.999s-46.833 -49.5 -76.5 -69.5s-61.834 -36.333 -96.501 -49c44 -8 83.833 -21 119.5 -39s66.334 -40 92.001 -66s45.334 -55.333 59.001 -88s20.5 -67.334 20.5 -104.001z" />
    <glyph glyph-name="four" unicode="4" horiz-adv-x="1034" 
d="M608 485l-0.00195312 499.999v31.5c0 11.667 0.666992 23.834 2 36.501c-3.33301 -3.33301 -5.66602 -6.83301 -6.99902 -10.5s-3.66602 -7.16699 -6.99902 -10.5c-10 -10 -23.667 -25.333 -41 -46s-36.5 -45 -57.5 -73l-67 -93c-23.667 -34 -46.667 -69.667 -69 -107
s-43.5 -75.333 -63.5 -114s-37.333 -76.667 -52 -114h362zM984.998 333.999h-186.001v-334h-191v334h-547l-12 59c7.33301 42 23.166 90.333 47.499 145s53.833 111.667 88.5 171s72.834 119 114.501 179s83.334 116.5 125.001 169.5s81.667 100.5 120 142.5
s71.833 74.667 100.5 98h154v-813h186v-151z" />
    <glyph glyph-name="five" unicode="5" horiz-adv-x="1034" 
d="M909 418c0 -68 -12.334 -128.999 -37.001 -182.999s-58.334 -99.833 -101.001 -137.5s-92 -66.334 -148 -86.001s-115.667 -29.5 -179 -29.5c-57.333 0 -111.166 6 -161.499 18s-93.833 28.333 -130.5 49v180c18 -12 38.833 -23.5 62.5 -34.5s48.334 -20.667 74.001 -29
s51.334 -15.166 77.001 -20.499s49.834 -8 72.501 -8c41.333 0 78.833 6.66699 112.5 20s62.5 32 86.5 56s42.667 52.667 56 86s20 69.666 20 108.999c0 42.667 -7.66699 79.834 -23 111.501s-35.833 58 -61.5 79s-55.334 36.5 -89.001 46.5s-68.834 14.667 -105.501 14
c-45.333 0 -89 -5.66699 -131 -17s-79.667 -25.333 -113 -42l-40 53v641h700v-164h-524v-333c10 1.33301 21 2.66602 33 3.99902s24.5 2.5 37.5 3.5s25.833 1.66699 38.5 2s24 0.5 34 0.5c63.333 0 122 -8.66699 176 -26s100.5 -42.5 139.5 -75.5s69.5 -73.667 91.5 -122
s33 -103.5 33 -165.5z" />
    <glyph glyph-name="six" unicode="6" horiz-adv-x="1034" 
d="M739 389c0 41.333 -6.16699 76.668 -18.5 106.001s-29.333 53.5 -51 72.5s-47 33 -76 42s-60.167 13.5 -93.5 13.5c-32 0 -63 -3.83301 -93 -11.5s-55.667 -16.167 -77 -25.5c-10.667 -22.667 -18.5 -49.5 -23.5 -80.5s-7.5 -61.5 -7.5 -91.5
c0 -46 5.5 -86.167 16.5 -120.5s26.333 -63 46 -86s43 -40.167 70 -51.5s56.5 -17 88.5 -17c32.667 0 62.5 5.66699 89.5 17s50 27.666 69 48.999s33.833 47.5 44.5 78.5s16 66.167 16 105.5zM938 401.002c0 -60 -9.99414 -115.668 -29.9941 -167.001
s-48.333 -95.666 -85 -132.999s-80.667 -66.5 -132 -87.5s-108.333 -31.5 -171 -31.5c-66.667 0 -125.834 10.333 -177.501 31s-95 50 -130 88s-61.5 84 -79.5 138s-27 114.333 -27 181c0 65.333 10.667 135.333 32 210s51.333 150.167 90 226.5s85.167 151.833 139.5 226.5
s114.166 145 179.499 211h213l-115 -138.5c-37.333 -47 -72.333 -93.667 -105 -140s-62 -91.5 -88 -135.5s-47.667 -86 -65 -126c19.333 4 41.666 7.66699 66.999 11s53.666 5 84.999 5c53.333 0 104.166 -8 152.499 -24s90.666 -39.5 126.999 -70.5s65.333 -69.5 87 -115.5
s32.5 -99 32.5 -159z" />
    <glyph glyph-name="seven" unicode="7" horiz-adv-x="1034" 
d="M958 1241l-162 -300.001c-52.667 -100.667 -103 -202.5 -151 -305.5s-92.833 -207.333 -134.5 -313s-79.5 -213.167 -113.5 -322.5h-196v45c19.333 56 41.666 115.833 66.999 179.5s52.833 128.834 82.5 195.501l92.5 200l95.5 193c31.667 62 62.834 120 93.501 174
s59 101.667 85 143h-592v164h795z" />
    <glyph glyph-name="eight" unicode="8" horiz-adv-x="1034" 
d="M692 979c0 26 -4.16406 49.8311 -12.4971 71.498s-20.333 40.167 -36 55.5s-34.834 27.333 -57.501 36s-48 13 -76 13c-56 0 -100.667 -15.5 -134 -46.5s-50 -75.5 -50 -133.5c0 -26 5.16699 -50.667 15.5 -74s24.166 -44.333 41.499 -63s37.666 -34.5 60.999 -47.5
s48 -22.5 74 -28.5c31.333 8.66699 58 20.167 80 34.5s40 30.833 54 49.5s24.167 39.334 30.5 62.001s9.5 46.334 9.5 71.001zM735.003 353.998c0 24.667 -3.66699 49.3291 -11 73.9961s-19.833 47.834 -37.5 69.501s-41.167 41.334 -70.5 59.001s-66 31.5 -110 41.5
c-32 -8 -61 -19.667 -87 -35s-48.333 -33.666 -67 -54.999s-33.167 -45.166 -43.5 -71.499s-15.5 -54.5 -15.5 -84.5c0 -33.333 5.33301 -63.333 16 -90s25.5 -49.167 44.5 -67.5s41.833 -32.5 68.5 -42.5s56 -15 88 -15c36 0 68 5.83301 96 17.5s51.5 27.5 70.5 47.5
s33.5 43.167 43.5 69.5s15 53.833 15 82.5zM930.003 355.993c0 -56 -10.6699 -106.835 -32.0029 -152.502s-50.833 -85 -88.5 -118s-82.167 -58.5 -133.5 -76.5s-106.666 -27 -165.999 -27c-55.333 0 -108 7.5 -158 22.5s-94 37.5 -132 67.5s-68.167 67.667 -90.5 113
s-33.5 98.333 -33.5 159c0 79.333 21.167 146 63.5 200s101.166 98.667 176.499 134c-30 13.333 -57.667 30.333 -83 51s-47.166 44.167 -65.499 70.5s-32.666 55.166 -42.999 86.499s-15.5 64.333 -15.5 99c0 48 9.33301 92 28 132s44.834 74.333 78.501 103s74 51 121 67
s98.833 24 155.5 24c54 0 104 -7.33301 150 -22s85.833 -36 119.5 -64s60 -62 79 -102s28.5 -85.333 28.5 -136c0 -34 -4.83301 -65.667 -14.5 -95s-23 -56.666 -40 -81.999s-37.5 -48.666 -61.5 -69.999s-50.333 -40.666 -79 -57.999c82 -34 141.833 -77.333 179.5 -130
s56.5 -118 56.5 -196z" />
    <glyph glyph-name="nine" unicode="9" horiz-adv-x="1034" 
d="M297 907c0 -41.333 6.16797 -76.834 18.501 -106.501s29.166 -54 50.499 -73s46.5 -33 75.5 -42s60.167 -13.5 93.5 -13.5c32 0 63 3.5 93 10.5s56.333 15.167 79 24.5c9.33301 23.333 16.333 49.333 21 78s7 60.667 7 96c0 45.333 -5.5 84.833 -16.5 118.5
s-26.167 62 -45.5 85s-42.333 40.167 -69 51.5s-56 17 -88 17c-32.667 0 -62.5 -5.5 -89.5 -16.5s-50 -27 -69 -48s-33.833 -46.667 -44.5 -77s-16 -65.166 -16 -104.499zM96.001 892.999c0 60 9.99902 115.499 29.999 166.499s48.5 95.167 85.5 132.5s81.333 66.5 133 87.5
s108.834 31.5 171.501 31.5c66.667 0 125.667 -10.167 177 -30.5s94.5 -49.5 129.5 -87.5s61.667 -84 80 -138s27.5 -114.333 27.5 -181c0 -61.333 -11 -128.5 -33 -201.5s-52.5 -148 -91.5 -225s-85.167 -153.833 -138.5 -230.5s-111.666 -149 -174.999 -217h-226l119 140
c38 46.667 73.5 92.834 106.5 138.501s62.667 90.667 89 135s47.833 86.833 64.5 127.5c-19.333 -5.33301 -41.333 -9.83301 -66 -13.5s-52.334 -5.5 -83.001 -5.5c-56 0 -108.333 8 -157 24s-91 39.833 -127 71.5s-64.333 70.5 -85 116.5s-31 99 -31 159z" />
    <glyph glyph-name="colon" unicode=":" horiz-adv-x="451" 
d="M90 705c0 16.667 3.5 32.667 10.5 48s16.667 28.666 29 39.999s26.666 20.5 42.999 27.5s33.833 10.5 52.5 10.5c19.333 0 37.166 -3.5 53.499 -10.5s30.5 -16.167 42.5 -27.5s21.5 -24.666 28.5 -39.999s10.5 -31.333 10.5 -48c0 -18 -3.5 -34.667 -10.5 -50
s-16.5 -28.5 -28.5 -39.5s-26.167 -19.667 -42.5 -26s-34.166 -9.5 -53.499 -9.5c-18.667 0 -36.167 3.16699 -52.5 9.5s-30.666 15 -42.999 26s-22 24.167 -29 39.5s-10.5 32 -10.5 50zM90 117c0 18 3.5 34.5 10.5 49.5s16.667 28.167 29 39.5s26.666 20.166 42.999 26.499
s33.833 9.5 52.5 9.5c19.333 0 37.166 -3.16699 53.499 -9.5s30.5 -15.166 42.5 -26.499s21.5 -24.5 28.5 -39.5s10.5 -31.5 10.5 -49.5c0 -17.333 -3.5 -33.666 -10.5 -48.999s-16.5 -28.833 -28.5 -40.5s-26.167 -20.834 -42.5 -27.501s-34.166 -10 -53.499 -10
c-18.667 0 -36.167 3.33301 -52.5 10s-30.666 15.834 -42.999 27.501s-22 25.167 -29 40.5s-10.5 31.666 -10.5 48.999z" />
    <glyph glyph-name="semicolon" unicode=";" horiz-adv-x="469" 
d="M109 705c0 16.667 3.5 32.667 10.5 48s16.5 28.666 28.5 39.999s26.333 20.5 43 27.5s34.334 10.5 53.001 10.5s36.167 -3.5 52.5 -10.5s30.5 -16.167 42.5 -27.5s21.333 -24.666 28 -39.999s10 -31.333 10 -48c0 -18 -3.33301 -34.667 -10 -50s-16 -28.5 -28 -39.5
s-26.167 -19.667 -42.5 -26s-33.833 -9.5 -52.5 -9.5s-36.334 3.16699 -53.001 9.5s-31 15 -43 26s-21.5 24.167 -28.5 39.5s-10.5 32 -10.5 50zM369 197c-9.33301 -34 -21.667 -70.999 -37 -110.999s-31.833 -80.5 -49.5 -121.5l-54.5 -121.5l-52 -111h-147
c12 36 23.5 74.167 34.5 114.5s21.167 80.833 30.5 121.5s18 80.667 26 120s14.333 75.666 19 108.999h230z" />
    <glyph glyph-name="less" unicode="&#x3c;" horiz-adv-x="1034" 
d="M922 111l-811 393v96l811 444v-184l-555 -303l555 -264v-182z" />
    <glyph glyph-name="equal" unicode="=" horiz-adv-x="1034" 
d="M90 467h858v-160h-858v160zM90 803h858v-160h-858v160z" />
    <glyph glyph-name="greater" unicode="&#x3e;" horiz-adv-x="1034" 
d="M111 293l555 268l-555 299v184l811 -444v-96l-811 -393v182z" />
    <glyph glyph-name="question" unicode="?" horiz-adv-x="825" 
d="M754 987c0 -32.667 -4.33594 -64 -13.0029 -94s-22 -59.667 -40 -89s-40.667 -58.833 -68 -88.5s-60 -60.5 -98 -92.5c-25.333 -22.667 -45.666 -43.5 -60.999 -62.5s-27.5 -37.5 -36.5 -55.5s-15.667 -35.833 -20 -53.5s-8.16602 -36.5 -11.499 -56.5l-9 -59h-127
l-12 55c-2 9.33301 -3.5 21 -4.5 35s-1.5 25.667 -1.5 35c0 46 12 88.667 36 128s59.667 78 107 116c30 25.333 55.667 49 77 71s38.833 43.667 52.5 65s23.5 43.666 29.5 66.999s9 49 9 77c0 54.667 -16.667 96.667 -50 126s-79.333 44 -138 44
c-44 0 -92.667 -7.5 -146 -22.5s-105.666 -37.5 -156.999 -67.5v174c50 24.667 100.833 42.834 152.5 54.501s104.5 17.5 158.5 17.5c56 0 106.833 -7.5 152.5 -22.5s84.667 -36.5 117 -64.5s57.333 -62 75 -102s26.5 -85 26.5 -135zM208.997 117c0 18 3.5 34.5 10.5 49.5
s16.5 28.167 28.5 39.5s26.333 20.166 43 26.499s34.334 9.5 53.001 9.5s36 -3.16699 52 -9.5s30 -15.166 42 -26.499s21.5 -24.5 28.5 -39.5s10.5 -31.5 10.5 -49.5c0 -17.333 -3.5 -33.666 -10.5 -48.999s-16.5 -28.833 -28.5 -40.5s-26 -20.834 -42 -27.501
s-33.333 -10 -52 -10s-36.334 3.33301 -53.001 10s-31 15.834 -43 27.501s-21.5 25.167 -28.5 40.5s-10.5 31.666 -10.5 48.999z" />
    <glyph glyph-name="at" unicode="@" horiz-adv-x="1595" 
d="M965 340c-18 -19.333 -37.3359 -37.5059 -58.0029 -54.5059s-42.5 -31.667 -65.5 -44s-47.167 -22.166 -72.5 -29.499s-51.666 -11 -78.999 -11c-46.667 0 -87.834 8.33301 -123.501 25s-65.834 40.167 -90.501 70.5s-43.167 66.666 -55.5 108.999
s-18.166 89.5 -17.499 141.5c1.33301 60 11.333 115.333 30 166s45.334 94.334 80.001 131.001s77 65.334 127 86.001s107 31 171 31c29.333 0 58.166 -1.33301 86.499 -4s55 -6 80 -10s48 -8.33301 69 -13s38.833 -9.33398 53.5 -14.001v-494c0 -14 2.33301 -27.333 7 -40
s11 -23.5 19 -32.5s17.5 -16.167 28.5 -21.5s22.833 -8 35.5 -8c25.333 0 48.166 8.83301 68.499 26.5s37.5 41.834 51.5 72.501s24.833 66.834 32.5 108.501s11.5 86.5 11.5 134.5c0 83.333 -12.167 157.333 -36.5 222s-58.166 119 -101.499 163s-95 77.5 -155 100.5
s-125.667 34.5 -197 34.5c-98 0 -185.167 -16.667 -261.5 -50s-140.666 -79.5 -192.999 -138.5s-92.333 -128.833 -120 -209.5s-41.5 -168 -41.5 -262c0 -87.333 11.5 -165.833 34.5 -235.5s57.5 -128.667 103.5 -177s103.333 -85.5 172 -111.5s148.334 -39 239.001 -39
c66.667 0 132.5 7 197.5 21s123.167 31.667 174.5 53v-111c-52 -26.667 -110.5 -48 -175.5 -64s-136.167 -24 -213.5 -24c-107.333 0 -203 15.333 -287 46s-155 75.167 -213 133.5s-102.167 129.833 -132.5 214.5s-45.5 180.667 -45.5 288
c0 112.667 17.5 217.334 52.5 314.001s85.167 180.334 150.5 251.001s144.5 126 237.5 166s197.5 60 313.5 60c93.333 0 179 -14.833 257 -44.5s145.167 -72.5 201.5 -128.5s100.166 -124.333 131.499 -205s47 -172 47 -274c0 -56 -6.5 -111.5 -19.5 -166.5
s-32.333 -104 -58 -147s-57.667 -77.833 -96 -104.5s-82.833 -40 -133.5 -40c-30 0 -56.833 4 -80.5 12s-44.667 18.667 -63 32s-33.666 28.333 -45.999 45s-22.166 33.334 -29.499 50.001h-2zM947.997 826.994c-16.667 4.66699 -35.332 8.66699 -55.999 12
s-44.334 5 -71.001 5c-48 0 -88.5 -9 -121.5 -27s-59.833 -41.333 -80.5 -70s-35.5 -60.667 -44.5 -96s-13.5 -70 -13.5 -104c0 -75.333 15.5 -131 46.5 -167s71.5 -54 121.5 -54c41.333 0 80.5 10.833 117.5 32.5s70.833 49.5 101.5 83.5v385z" />
    <glyph glyph-name="A" unicode="A" horiz-adv-x="1212" 
d="M1206 0h-211l-145 371h-498l-135 -371h-211l502 1294h190zM627 983c-3.33301 9.33301 -7.5 22.834 -12.5 40.501s-9.16699 36.167 -12.5 55.5h-4c-3.33301 -20.667 -7.5 -39.834 -12.5 -57.501s-9.83301 -32.5 -14.5 -44.5l-157 -434h377z" />
    <glyph glyph-name="B" unicode="B" horiz-adv-x="1067" 
d="M723 961c0 24 -4 46.8311 -12 68.498s-21.167 40.834 -39.5 57.501s-42 29.834 -71 39.501s-64.5 14.5 -106.5 14.5c-26 0 -48.5 -0.333008 -67.5 -1s-36.167 -1.66699 -51.5 -3v-394h82c86.667 0 152.667 18.667 198 56s68 91.333 68 162zM793 380.998
c0 70 -23.667 121.667 -71 155s-117.333 50 -210 50h-137v-428c21.333 -2 44.5 -3.5 69.5 -4.5s52.833 -1.5 83.5 -1.5c83.333 0 148.333 20.167 195 60.5s70 96.5 70 168.5zM993 386.998c0 -58 -9.50293 -111.002 -28.5029 -159.002s-48.667 -89.333 -89 -124
s-91.666 -61.667 -153.999 -81s-136.833 -29 -223.5 -29c-22 0 -47.5 0.5 -76.5 1.5s-58.333 2.33301 -88 4s-58.167 3.83398 -85.5 6.50098s-50.666 5.33398 -69.999 8.00098v1274c39.333 3.33301 86.833 5.83301 142.5 7.5s112.834 2.5 171.501 2.5
c68 0 128.833 -7.16699 182.5 -21.5s99 -35.166 136 -62.499s65.167 -61 84.5 -101s29 -86 29 -138c0 -34 -4.66699 -65.833 -14 -95.5s-22.166 -56.834 -38.499 -81.501s-35.833 -46.667 -58.5 -66s-47.334 -35.333 -74.001 -48c35.333 -8.66699 68.5 -21.5 99.5 -38.5
s58 -38 81 -63s41 -53.833 54 -86.5s19.5 -69 19.5 -109z" />
    <glyph glyph-name="C" unicode="C" horiz-adv-x="1214" 
d="M317 633c0 -72.667 10.4961 -138.833 31.4961 -198.5s50.667 -110.834 89 -153.501s84.333 -75.667 138 -99s113.167 -35 178.5 -35c60.667 0 120.834 8 180.501 24s116.834 39 171.501 69v-177c-50 -26.667 -106 -46.834 -168 -60.501s-129.667 -20.5 -203 -20.5
c-91.333 0 -175.166 16 -251.499 48s-142 76.667 -197 134s-97.667 125.833 -128 205.5s-45.5 167.5 -45.5 263.5c0 98.667 16.333 189.5 49 272.5s77.834 154.5 135.501 214.5s126 106.833 205 140.5s164.833 50.5 257.5 50.5c31.333 0 63 -1.83301 95 -5.5
s63.333 -8.66699 94 -15s59.834 -13.666 87.501 -21.999s52.834 -17.5 75.501 -27.5v-176c-23.333 10 -49.333 20 -78 30s-58.334 18.833 -89.001 26.5s-62 13.834 -94 18.501s-63 7 -93 7c-62.667 0 -120.834 -12.167 -174.501 -36.5s-100.167 -58.833 -139.5 -103.5
s-70.333 -98.667 -93 -162s-34 -134 -34 -212z" />
    <glyph glyph-name="D" unicode="D" horiz-adv-x="1384" 
d="M1069 670c0 79.333 -12.5 147.667 -37.5 205s-60.667 104.666 -107 141.999s-103 64.833 -170 82.5s-142.5 26.5 -226.5 26.5h-153v-960h135c85.333 0 162.5 11.833 231.5 35.5s127.833 57.334 176.5 101.001s86 96.667 112 159s39 131.833 39 208.5zM1272 672.001
c0 -100.667 -18.499 -192.334 -55.499 -275.001s-88.833 -153.5 -155.5 -212.5s-146.334 -104.5 -239.001 -136.5s-194.667 -48 -306 -48h-338v1294h354c117.333 0 221.833 -13.167 313.5 -39.5s169.167 -65.666 232.5 -117.999s111.5 -117.333 144.5 -195
s49.5 -167.5 49.5 -269.5z" />
    <glyph glyph-name="E" unicode="E" horiz-adv-x="954" 
d="M825 0h-647v1294h645v-168h-450v-393h452v-166h-452v-401h452v-166z" />
    <glyph glyph-name="F" unicode="F" horiz-adv-x="920" 
d="M819 1126h-450v-389h452v-166h-452v-571h-195v1294h645v-168z" />
    <glyph glyph-name="G" unicode="G" horiz-adv-x="1386" 
d="M317 641c0 -72 9.6709 -138.168 29.0039 -198.501s48.5 -112.333 87.5 -156s87.5 -77.834 145.5 -102.501s125.667 -37 203 -37c43.333 0 87.666 4.83301 132.999 14.5s85 22.834 119 39.501v282h-289v166h486v-551c-68.667 -39.333 -142.834 -68.5 -222.501 -87.5
s-163.167 -28.5 -250.5 -28.5c-101.333 0 -192 16.333 -272 49s-147.667 77.834 -203 135.501s-97.5 126.167 -126.5 205.5s-43.5 165.666 -43.5 258.999c0 106.667 17.667 202 53 286s83.666 155.167 144.999 213.5s133.833 103 217.5 134s173.834 46.5 270.501 46.5
c80 0 157.167 -10 231.5 -30s141.833 -49 202.5 -87l-2 -199c-30.667 22.667 -63.667 43.167 -99 61.5s-71.833 34 -109.5 47s-75.334 23.167 -113.001 30.5s-74.5 11 -110.5 11c-74 0 -140.833 -12.167 -200.5 -36.5s-110.334 -58.666 -152.001 -102.999
s-73.667 -97.5 -96 -159.5s-33.5 -130.333 -33.5 -205z" />
    <glyph glyph-name="H" unicode="H" horiz-adv-x="1454" 
d="M1276 0h-197v575h-704v-575h-197v1294h197v-553h704v553h197v-1294z" />
    <glyph glyph-name="I" unicode="I" horiz-adv-x="553" 
d="M375 0h-197v1294h197v-1294z" />
    <glyph glyph-name="J" unicode="J" horiz-adv-x="684" 
d="M518 1294l0.000976562 -964.001c0 -52.667 -5.83301 -100.5 -17.5 -143.5s-29.834 -79.667 -54.501 -110s-55.667 -53.666 -93 -69.999s-82 -24.5 -134 -24.5c-32.667 0 -62.834 2.66699 -90.501 8s-52.834 12.666 -75.501 21.999v166
c22.667 -9.33301 47.334 -16.833 74.001 -22.5s49.334 -8.5 68.001 -8.5c24.667 0 45.167 4.33301 61.5 13s29.5 21.334 39.5 38.001s17.167 37.167 21.5 61.5s6.5 52.5 6.5 84.5v950h194z" />
    <glyph glyph-name="K" unicode="K" horiz-adv-x="1149" 
d="M1149 0h-254l-461 498l-31 32.5c-11.333 12.333 -22 24.5 -32 36.5v-567h-197v1294h197l2 -569l44 52.5c15.333 17.667 27.333 32.167 36 43.5l411 473h238l-565 -637z" />
    <glyph glyph-name="L" unicode="L" horiz-adv-x="868" 
d="M799 0h-621v1294h197v-1128h424v-166z" />
    <glyph glyph-name="M" unicode="M" horiz-adv-x="1698" 
d="M1540 0l-182 -0.00292969l-41 846c-0.666992 8 -1.16699 19 -1.5 33s-0.666016 28.833 -0.999023 44.5l-1 46.5c-0.333008 15.333 -0.5 28 -0.5 38c-4 -15.333 -8.5 -31.5 -13.5 -48.5l-14.5 -48l-12.5 -40c-3.66699 -11.667 -6.5 -20.167 -8.5 -25.5l-326 -846h-176
l-332 846l-10.5 27.5c-4.33301 11.667 -8.83301 25 -13.5 40l-14.5 47c-5 16.333 -9.16699 32.166 -12.5 47.499c0 -11.333 -0.166992 -24.5 -0.5 -39.5s-0.833008 -30.5 -1.5 -46.5l-2 -46.5c-0.666992 -15 -1.33398 -28.167 -2.00098 -39.5l-54 -836h-182l90 1294h211
l373 -954c3.33301 -9.33301 7 -20.166 11 -32.499s7.66699 -25.166 11 -38.499s6.5 -26.666 9.5 -39.999s5.5 -25.333 7.5 -36c2 10.667 4.66699 23 8 37l10.5 42c3.66699 14 7.5 27.333 11.5 40s7.66699 23.334 11 32.001l371 950h219z" />
    <glyph glyph-name="N" unicode="N" horiz-adv-x="1483" 
d="M1305 0h-193.001l-633 840c-4.66699 5.33301 -12.5 16.166 -23.5 32.499l-35 53.5l-35.5 57c-11.333 18.667 -19.666 33 -24.999 43v-1026h-182v1294h207l604 -811l35 -50.5l39 -60l35.5 -58c11 -18.333 19.5 -33.166 25.5 -44.499v1024h181v-1294z" />
    <glyph glyph-name="O" unicode="O" horiz-adv-x="1448" 
d="M1133 643c0 78.667 -8.66504 149.169 -25.998 211.502s-43 115.166 -77 158.499s-76 76.5 -126 99.5s-107.667 34.5 -173 34.5c-62.667 0 -119.5 -12.167 -170.5 -36.5s-94.5 -58.5 -130.5 -102.5s-63.833 -96.833 -83.5 -158.5s-29.5 -129.834 -29.5 -204.501
s9.33301 -142.667 28 -204s45.5 -113.666 80.5 -156.999s77.333 -77 127 -101s105.167 -36 166.5 -36c65.333 0 123.666 11.167 174.999 33.5s94.666 54.666 129.999 96.999s62.333 94.333 81 156s28 131.5 28 209.5zM1335 664.002
c0 -104.667 -14.166 -199.168 -42.499 -283.501s-69 -156 -122 -215s-117.5 -104.333 -193.5 -136s-162 -47.5 -258 -47.5c-92 0 -175.333 15.5 -250 46.5s-138.334 75 -191.001 132s-93.334 125.5 -122.001 205.5s-43 169 -43 267c0 102.667 14.167 195.834 42.5 279.501
s69.5 155 123.5 214s119.833 104.5 197.5 136.5s165.834 48 264.501 48c90 0 171.667 -15.667 245 -47s135.833 -75.5 187.5 -132.5s91.5 -125.167 119.5 -204.5s42 -167 42 -263z" />
    <glyph glyph-name="P" unicode="P" horiz-adv-x="1049" 
d="M758 930c0 34 -5.83301 63.333 -17.5 88s-30.167 45 -55.5 61s-57.833 27.833 -97.5 35.5s-87.5 11.5 -143.5 11.5h-69v-434h63c100.667 0 179.167 20.167 235.5 60.5s84.5 99.5 84.5 177.5zM961 940c0 -61.333 -12.167 -117.499 -36.5 -168.499s-60.833 -95 -109.5 -132
s-109.667 -65.667 -183 -86s-159 -30.833 -257 -31.5v-522h-197v1294h264c76 0 145.667 -5.83301 209 -17.5s118 -31.334 164 -59.001s81.833 -64 107.5 -109s38.5 -101.167 38.5 -168.5z" />
    <glyph glyph-name="Q" unicode="Q" horiz-adv-x="1448" 
d="M1133 643c0 78.667 -8.66504 149.169 -25.998 211.502s-43 115.166 -77 158.499s-76 76.5 -126 99.5s-107.667 34.5 -173 34.5c-62.667 0 -119.5 -12.167 -170.5 -36.5s-94.5 -58.5 -130.5 -102.5s-63.833 -96.833 -83.5 -158.5s-29.5 -129.834 -29.5 -204.501
s9.33301 -142.667 28 -204s45.5 -113.666 80.5 -156.999s77.333 -77 127 -101s105.167 -36 166.5 -36c65.333 0 123.666 11.167 174.999 33.5s94.666 54.666 129.999 96.999s62.333 94.333 81 156s28 131.5 28 209.5zM1335 664.002
c0 -138.667 -23.167 -256.833 -69.5 -354.5s-113.166 -174.834 -200.499 -231.501l254 -225l-117 -125l-344 268c-21.333 -4 -43.5 -7.33301 -66.5 -10s-47.167 -4 -72.5 -4c-92 0 -175.333 15.5 -250 46.5s-138.334 75 -191.001 132s-93.334 125.5 -122.001 205.5
s-43 169 -43 267c0 102.667 14.167 195.834 42.5 279.501s69.5 155 123.5 214s119.833 104.5 197.5 136.5s165.834 48 264.501 48c90 0 171.667 -15.667 245 -47s135.833 -75.5 187.5 -132.5s91.5 -125.167 119.5 -204.5s42 -167 42 -263z" />
    <glyph glyph-name="R" unicode="R" horiz-adv-x="1087" 
d="M752 948c0 62 -22.167 107.167 -66.5 135.5s-112.5 42.5 -204.5 42.5h-106v-395h96c90.667 0 160.167 19.167 208.5 57.5s72.5 91.5 72.5 159.5zM1057 0l-232 -0.00195312l-360 571h-90v-571h-197v1294h293c68.667 0 132.667 -5.5 192 -16.5s110.833 -29.667 154.5 -56
s78 -61.166 103 -104.499s37.5 -97.666 37.5 -162.999c0 -48 -8.5 -91.667 -25.5 -131s-39.333 -73.666 -67 -102.999s-59.5 -53.833 -95.5 -73.5s-73 -33.834 -111 -42.501z" />
    <glyph glyph-name="S" unicode="S" horiz-adv-x="987" 
d="M895 362c0 -52.667 -9.16895 -102.168 -27.502 -148.501s-45.333 -86.666 -81 -120.999s-80 -61.333 -133 -81s-114.5 -29.5 -184.5 -29.5c-34 0 -67.833 2.16699 -101.5 6.5s-65.667 10.666 -96 18.999s-58.5 18 -84.5 29s-48.667 22.833 -68 35.5v200
c21.333 -15.333 46.5 -30.5 75.5 -45.5s59.5 -28.333 91.5 -40s63.833 -21.167 95.5 -28.5s60.167 -11 85.5 -11c38.667 0 72.5 4.83301 101.5 14.5s53.333 23.5 73 41.5s34.334 39.5 44.001 64.5s14.5 52.5 14.5 82.5c0 34 -6.16699 62.667 -18.5 86
s-29.833 43.666 -52.5 60.999s-50 33 -82 47s-67.667 28.667 -107 44c-54 21.333 -102 42.833 -144 64.5s-77.333 46.334 -106 74.001s-50.5 59.667 -65.5 96s-22.5 79.5 -22.5 129.5c0 54.667 11 104.167 33 148.5s52 82 90 113s82.5 55 133.5 72s105.5 25.5 163.5 25.5
c62 0 118 -5.66699 168 -17s95.667 -25.666 137 -42.999v-180c-19.333 9.33301 -41.666 18.333 -66.999 27s-52 16.5 -80 23.5s-56 12.667 -84 17s-54.667 6.5 -80 6.5c-35.333 0 -66.666 -4.5 -93.999 -13.5s-50.5 -21.5 -69.5 -37.5s-33.333 -35.167 -43 -57.5
s-14.5 -46.833 -14.5 -73.5c0 -30 6.33301 -55.833 19 -77.5s30.667 -41 54 -58s51.5 -32.667 84.5 -47s69.833 -29.5 110.5 -45.5c52 -20.667 98.5 -42.167 139.5 -64.5s75.667 -48 104 -77s50.166 -62.333 65.499 -100s23 -81.5 23 -131.5z" />
    <glyph glyph-name="T" unicode="T" horiz-adv-x="1006" 
d="M928 1126h-326v-1126h-196v1126h-328v168h850v-168z" />
    <glyph glyph-name="U" unicode="U" horiz-adv-x="1393" 
d="M705 143c48.667 0 93.001 7.50098 133.001 22.501s74.167 37.333 102.5 67s50.333 67 66 112s23.5 97.5 23.5 157.5v792h195v-768c0 -91.333 -12.333 -171.333 -37 -240s-60.334 -125.834 -107.001 -171.501s-103.334 -80 -170.001 -103s-141.667 -34.5 -225 -34.5
c-79.333 0 -150.833 11.167 -214.5 33.5s-118 55.666 -163 99.999s-79.667 99.5 -104 165.5s-36.5 142.667 -36.5 230v788h197v-780c0 -61.333 8 -115.166 24 -161.499s38.833 -85 68.5 -116s65.334 -54.333 107.001 -70s88.5 -23.5 140.5 -23.5z" />
    <glyph glyph-name="V" unicode="V" horiz-adv-x="1198" 
d="M1198 1294l-504 -1294h-198l-496 1294h211l321 -876l17.5 -49l22.5 -67.5c7.33301 -23 13.666 -43.833 18.999 -62.5s8.33301 -30.667 9 -36c0.666992 3.33301 2.33398 10.166 5.00098 20.499s6 22.5 10 36.5l13.5 45l14.5 46l12.5 40c3.66699 12 6.5 21 8.5 27l329 876
h205z" />
    <glyph glyph-name="W" unicode="W" horiz-adv-x="1946" 
d="M1915 1294l-410 -1294h-192l-316 913c-7.33301 24 -13.5 46.167 -18.5 66.5s-8.16699 41.166 -9.5 62.499h-4c-6.66699 -42 -16.334 -84.333 -29.001 -127l-293 -915h-192l-422 1294h198l295 -925c6.66699 -20.667 12.334 -41.5 17.001 -62.5s8 -43.167 10 -66.5h4
c2 15.333 5.83301 33.666 11.5 54.999l19.5 74l297 925h178l317 -936l16 -55.5c5.33301 -19 9 -39.833 11 -62.5h2c2 15.333 5.83301 33.166 11.5 53.499l19.5 68.5l282 932h197z" />
    <glyph glyph-name="X" unicode="X" horiz-adv-x="1180" 
d="M1167 0l-231 -0.000976562l-277 422c-2 3.33301 -6.16699 9.83301 -12.5 19.5l-20.5 31l-21 32l-15 23.5h-2c-2 -4 -5.5 -9.83301 -10.5 -17.5l-16.5 -25.5c-6 -9.33301 -12.333 -18.666 -19 -27.999l-18 -25l-282 -432h-234l465 664l-440 630h235l213 -323
c6 -8.66699 13.833 -20.667 23.5 -36l30.5 -47.5l30.5 -48c9.66699 -15.667 17.167 -28.5 22.5 -38.5h4c4.66699 10 12 23.167 22 39.5l31.5 50.5l31.5 48.5l21 31.5l224 323h223l-438 -618z" />
    <glyph glyph-name="Y" unicode="Y" horiz-adv-x="1077" 
d="M1079 1294l-441.999 -749v-545h-197v539l-442 755h219l270 -483c4 -6.66699 8.33301 -14.667 13 -24l14.5 -29c5 -10 9.83301 -20.167 14.5 -30.5l12 -27.5l11 28l12.5 30c4.33301 10 8.66602 19.5 12.999 28.5s8.5 16.5 12.5 22.5l282 485h207z" />
    <glyph glyph-name="Z" unicode="Z" horiz-adv-x="1139" 
d="M1049 1260l-662 -1094h643v-166h-940v43l655 1083h-655v168h959v-34z" />
    <glyph glyph-name="bracketleft" unicode="[" horiz-adv-x="606" 
d="M559 -287h-405v1581h405v-129l-213 -8v-1307l213 -8v-129z" />
    <glyph glyph-name="backslash" unicode="\" horiz-adv-x="799" 
d="M201 1294l602 -1294h-205l-602 1294h205z" />
    <glyph glyph-name="bracketright" unicode="]" horiz-adv-x="606" 
d="M47 -158l213 8v1307l-213 8v129h406v-1581h-406v129z" />
    <glyph glyph-name="asciicircum" unicode="^" horiz-adv-x="1030" 
d="M55 504l383 790h111l428 -790h-178l-303 559l-265 -559h-176z" />
    <glyph glyph-name="underscore" unicode="_" horiz-adv-x="799" 
d="M799 -289h-799v137h799v-137z" />
    <glyph glyph-name="grave" unicode="`" horiz-adv-x="451" 
d="M414 918l-105.001 0.00195312c-14 11.333 -29.667 25.166 -47 41.499s-34.833 33.833 -52.5 52.5l-53 58l-49.5 58.5l-41.5 53c-12.333 16.333 -21.833 30.166 -28.5 41.499v14h217l34.5 -72.5l41 -82c14.333 -27.667 28.833 -54 43.5 -79s28.334 -46.167 41.001 -63.5
v-22z" />
    <glyph glyph-name="a" unicode="a" horiz-adv-x="958" 
d="M616 377c-15.333 1.33301 -32.3291 2.33301 -50.9961 3s-38.334 1 -59.001 1c-44.667 0 -81.334 -4 -110.001 -12s-51.334 -18.667 -68.001 -32s-28.334 -28.333 -35.001 -45s-10 -34 -10 -52c0 -34 10.167 -61.667 30.5 -83s48.833 -32 85.5 -32
c37.333 0 75.333 8.33301 114 25s73 39 103 67v160zM801.004 -18c-24.667 0 -46.3301 2.49805 -64.9971 7.49805s-34.667 12 -48 21s-24.5 19.833 -33.5 32.5s-16.167 27 -21.5 43c-32 -29.333 -69.667 -54 -113 -74s-95 -30 -155 -30c-46.667 0 -87.5 6.33301 -122.5 19
s-64 30.334 -87 53.001s-40.333 49.167 -52 79.5s-17.5 63.5 -17.5 99.5c0 89.333 34.167 157.833 102.5 205.5s169.5 71.5 303.5 71.5c20 0 39.833 -0.5 59.5 -1.5s41.167 -2.5 64.5 -4.5c0 60.667 -12.667 107.167 -38 139.5s-67 48.5 -125 48.5
c-41.333 0 -83.5 -5.16699 -126.5 -15.5s-85.5 -24.166 -127.5 -41.499v149c36.667 17.333 78.5 31 125.5 41s92.5 15 136.5 15c56.667 0 106.667 -5.5 150 -16.5s79.666 -29.333 108.999 -55s51.5 -59.5 66.5 -101.5s22.5 -93.667 22.5 -155v-317
c0 -24 6.16699 -41.667 18.5 -53s25.166 -17 38.499 -17s25.666 0.5 36.999 1.5s24.333 3.16699 39 6.5v-115c-16.667 -12 -37.167 -21 -61.5 -27s-50.833 -9 -79.5 -9z" />
    <glyph glyph-name="b" unicode="b" horiz-adv-x="1067" 
d="M346 141c18.667 -3.33301 38.3301 -6.5 58.9971 -9.5s43.334 -4.5 68.001 -4.5c56 0 103.167 8.83301 141.5 26.5s69.5 41 93.5 70s41.333 62.333 52 100s16 76.5 16 116.5c0 42 -5.83301 78.833 -17.5 110.5s-27.667 58.167 -48 79.5s-44.666 37.333 -72.999 48
s-59.166 16 -92.499 16c-14.667 0 -31.167 -1.5 -49.5 -4.5s-36.5 -7 -54.5 -12s-35.333 -11.167 -52 -18.5s-31 -15.333 -43 -24v-494zM153.996 1294l191.998 0.000976562v-360c0 -8.66699 -0.166992 -20 -0.5 -34l-1 -43.5c-0.333008 -15 -0.833008 -29.5 -1.5 -43.5
s-1.66699 -25.667 -3 -35c14 8.66699 30.333 16.834 49 24.501s38.5 14.167 59.5 19.5s42.667 9.66602 65 12.999s43.833 5 64.5 5c62 0 117.333 -9.5 166 -28.5s89.834 -45.833 123.501 -80.5s59.334 -75.834 77.001 -123.501s26.5 -100.5 26.5 -158.5
c0 -70 -11.333 -133.667 -34 -191s-54.667 -106.333 -96 -147s-91.5 -72 -150.5 -94s-125.167 -33 -198.5 -33c-32.667 0 -65.167 1.5 -97.5 4.5s-63.333 7 -93 12s-57.167 10.5 -82.5 16.5s-47 12 -65 18v1259z" />
    <glyph glyph-name="c" unicode="c" horiz-adv-x="899" 
d="M291 401c0 -46.667 6.49902 -86.834 19.499 -120.501s30.167 -61.334 51.5 -83.001s46.166 -37.5 74.499 -47.5s57.5 -15 87.5 -15c59.333 0 111.833 8.5 157.5 25.5s89.5 37.833 131.5 62.5v-157c-40 -27.333 -85 -48.166 -135 -62.499s-107.333 -21.5 -172 -21.5
c-60 0 -115.167 9.5 -165.5 28.5s-93.5 46.667 -129.5 83s-64.167 80.5 -84.5 132.5s-30.5 111 -30.5 177c0 72 12 135.167 36 189.5s56.333 99.833 97 136.5s88.334 64.334 143.001 83.001s112.334 28 173.001 28c44 0 89.833 -5.5 137.5 -16.5s91.167 -28.833 130.5 -53.5
v-166c-42 26.667 -85.167 47 -129.5 61s-90.5 21 -138.5 21c-34 0 -66.5 -5.16699 -97.5 -15.5s-58 -27 -81 -50s-41.333 -52.5 -55 -88.5s-20.5 -79.667 -20.5 -131z" />
    <glyph glyph-name="d" unicode="d" horiz-adv-x="1083" 
d="M291 403c0 -46.667 5.66504 -87 16.998 -121s26.833 -62 46.5 -84s42.5 -38.333 68.5 -49s53.667 -16 83 -16c25.333 0 49.5 3.16699 72.5 9.5s44.333 14.166 64 23.499s37.5 19.5 53.5 30.5s29.667 21.167 41 30.5v412c-8 6.66699 -18.667 13.5 -32 20.5
s-28.166 13.333 -44.499 19s-33.833 10.334 -52.5 14.001s-37.667 5.5 -57 5.5c-32.667 0 -64.667 -4.83301 -96 -14.5s-59.166 -26 -83.499 -49s-43.833 -53.333 -58.5 -91s-22 -84.5 -22 -140.5zM929.998 0h-185l-6 72c-15.333 -12 -33 -23.333 -53 -34
s-41.667 -20.167 -65 -28.5s-47.833 -15 -73.5 -20s-51.834 -7.5 -78.501 -7.5c-54 0 -103.667 9.16699 -149 27.5s-84.666 45.333 -117.999 81s-59.333 79.834 -78 132.501s-28 113.667 -28 183c0 65.333 10 124.666 30 177.999s48.5 99 85.5 137s82 67.333 135 88
s112.167 31 177.5 31c41.333 0 80 -4.83301 116 -14.5s68.333 -22.167 97 -37.5v506h193v-1294z" />
    <glyph glyph-name="e" unicode="e" horiz-adv-x="1008" 
d="M524 690c-64 0 -116.168 -16.167 -156.501 -48.5s-67.166 -79.5 -80.499 -141.5h434c-3.33301 62 -22 109.167 -56 141.5s-81 48.5 -141 48.5zM95.999 416c0 63.333 10.3301 121.17 30.9971 173.503s49.834 97 87.501 134s82.834 65.667 135.501 86
s111.334 30.5 176.001 30.5c63.333 0 118.833 -9.16699 166.5 -27.5s87.834 -44.5 120.501 -78.5s57.167 -75.667 73.5 -125s24.5 -105 24.5 -167v-82h-628c3.33301 -34 12.166 -65.5 26.499 -94.5s33.666 -53.833 57.999 -74.5s53 -36.834 86 -48.501
s69.5 -17.5 109.5 -17.5c23.333 0 48.166 2.16699 74.499 6.5s53.333 10.666 81 18.999s55.334 18.5 83.001 30.5s54.167 26 79.5 42v-151c-50.667 -28.667 -104.167 -50.834 -160.5 -66.501s-120.5 -23.5 -192.5 -23.5c-66.667 0 -126.667 9.83301 -180 29.5
s-98.666 48.167 -135.999 85.5s-66 82.833 -86 136.5s-30 114.5 -30 182.5z" />
    <glyph glyph-name="f" unicode="f" horiz-adv-x="627" 
d="M395 821h187.002v-131h-187v-690h-192v690h-152v131h152v180c0 101.333 24.833 178.333 74.5 231s117.5 79 203.5 79c15.333 0 32.666 -1.66699 51.999 -5s35.666 -7.33301 48.999 -12v-157c-6 1.33301 -13.333 2.83301 -22 4.5s-17.5 3 -26.5 4s-17.5 1.83301 -25.5 2.5
s-15 1 -21 1c-26.667 0 -48.667 -10.667 -66 -32s-26 -55 -26 -101v-195z" />
    <glyph glyph-name="g" unicode="g" horiz-adv-x="1067" 
d="M293 381c0 -44 4.66797 -81.333 14.001 -112s22.833 -55.667 40.5 -75s39.167 -33.333 64.5 -42s54 -13 86 -13c34.667 0 71.667 8.16699 111 24.5s76.666 39.5 111.999 69.5v457c-17.333 4 -37 7 -59 9s-44.667 3 -68 3c-56 0 -103.167 -9.16699 -141.5 -27.5
s-69.333 -42.5 -93 -72.5s-40.667 -64.167 -51 -102.5s-15.5 -77.833 -15.5 -118.5zM96.001 375c0 70 11.335 133.668 34.002 191.001s54.667 106.166 96 146.499s91.666 71.666 150.999 93.999s125.333 33.5 198 33.5c33.333 0 66 -1.5 98 -4.5s62.667 -6.83301 92 -11.5
s56.666 -10.167 81.999 -16.5s47.333 -12.833 66 -19.5v-741c0 -85.333 -7.5 -160.5 -22.5 -225.5s-40.167 -119.333 -75.5 -163s-82 -76.5 -140 -98.5s-130 -33 -216 -33c-50 0 -98 3.33301 -144 10s-87.667 16.334 -125 29.001v163c50.667 -15.333 99.667 -27 147 -35
s92.666 -12 135.999 -12c49.333 0 90 8.83301 122 26.5s57.333 41.834 76 72.501s31.667 66.667 39 108s11 85.666 11 132.999v64c-37.333 -26.667 -77.333 -48.667 -120 -66s-90.667 -26 -144 -26c-59.333 0 -111.5 8.83301 -156.5 26.5s-82.667 43 -113 76
s-53.166 73 -68.499 120s-23 99.833 -23 158.5z" />
    <glyph glyph-name="h" unicode="h" horiz-adv-x="1028" 
d="M895 0l-192.999 -0.00195312v508c0 58 -11.833 102.5 -35.5 133.5s-59.5 46.5 -107.5 46.5c-23.333 0 -45.5 -2.83301 -66.5 -8.5s-40.5 -13.167 -58.5 -22.5s-34.333 -19.666 -49 -30.999s-27.667 -22.666 -39 -33.999v-592h-192v1294h192v-417
c0 -8 -0.166992 -17.667 -0.5 -29l-1 -35.5l-1 -36c-0.333008 -11.667 -0.833008 -22.167 -1.5 -31.5c14 12 30.333 23.667 49 35s39 21.5 61 30.5s45.167 16.167 69.5 21.5s49.166 8 74.499 8c102 0 177.333 -28 226 -84s73 -136 73 -240v-516z" />
    <glyph glyph-name="i" unicode="i" horiz-adv-x="500" 
d="M373 1055c0 -16 -3.33301 -30.333 -10 -43s-15.5 -23.5 -26.5 -32.5s-23.833 -15.833 -38.5 -20.5s-30 -7 -46 -7c-33.333 0 -61.5 8.83301 -84.5 26.5s-34.5 43.167 -34.5 76.5c0 32 11.5 57 34.5 75s51.167 27 84.5 27c16 0 31.333 -2.33301 46 -7
s27.5 -11.5 38.5 -20.5s19.833 -19.667 26.5 -32s10 -26.5 10 -42.5zM346 0h-192v821h192v-821z" />
    <glyph glyph-name="j" unicode="j" horiz-adv-x="487" 
d="M371 1055c0 -16 -3.16602 -30.333 -9.49902 -43s-14.833 -23.5 -25.5 -32.5s-23.334 -15.833 -38.001 -20.5s-30 -7 -46 -7c-34 0 -62.333 8.83301 -85 26.5s-34 43.167 -34 76.5c0 32 11.333 57 34 75s51 27 85 27c32.667 0 60.667 -9 84 -27s35 -43 35 -75z
M154.001 821h192.001v-807c0 -61.333 -3.33301 -117 -10 -167s-15.334 -95.167 -26.001 -135.5s-23 -75.833 -37 -106.5s-28.667 -56.667 -44 -78h-155c8 22 16.667 49 26 81s18 68.667 26 110s14.667 86.833 20 136.5s8 103.5 8 161.5v805z" />
    <glyph glyph-name="k" unicode="k" horiz-adv-x="954" 
d="M969 0l-240.001 0.00195312l-385 385c0 -6 0.333008 -14.5 1 -25.5s1 -20.167 1 -27.5v-332h-192v1294h192v-647c0 -4.66699 -0.166992 -12.334 -0.5 -23.001s-0.666016 -22.334 -0.999023 -35.001l-1 -39.5c-0.333008 -13.667 -0.833008 -26.167 -1.5 -37.5l346 309h236
l-412 -364z" />
    <glyph glyph-name="l" unicode="l" horiz-adv-x="500" 
d="M346 0h-192v1294h192v-1294z" />
    <glyph glyph-name="m" unicode="m" horiz-adv-x="1550" 
d="M877 0l-192.999 0.00195312v508c0 58 -11.167 102.5 -33.5 133.5s-56.166 46.5 -101.499 46.5c-20.667 0 -41 -3.16699 -61 -9.5s-38.833 -14.166 -56.5 -23.499s-33.834 -19.5 -48.501 -30.5s-27 -21.167 -37 -30.5v-594h-192v821h186l4 -82
c14 12 29.667 24.167 47 36.5s36.333 23.166 57 32.499s42.5 17 65.5 23s47.167 9 72.5 9c62 0 113.833 -12 155.5 -36s73.167 -57 94.5 -99c16.667 16 35.5 32.167 56.5 48.5s43.5 30.833 67.5 43.5s49.167 23 75.5 31s53.166 12 80.499 12
c98.667 0 171.5 -28.5 218.5 -85.5s70.5 -137.167 70.5 -240.5v-514h-193v508c0 58 -11.167 102.5 -33.5 133.5s-55.5 46.5 -99.5 46.5c-22.667 0 -44.5 -3.66699 -65.5 -11s-40.5 -16.333 -58.5 -27s-34.167 -22.334 -48.5 -35.001s-25.833 -24.334 -34.5 -35.001
c1.33301 -7.33301 2.5 -17.833 3.5 -31.5s1.5 -25.167 1.5 -34.5v-514z" />
    <glyph glyph-name="n" unicode="n" horiz-adv-x="1030" 
d="M895 0h-192.999v508c0 58 -11.833 102.5 -35.5 133.5s-59.5 46.5 -107.5 46.5c-21.333 0 -42.166 -2.66699 -62.499 -8s-39.5 -12.5 -57.5 -21.5s-34.833 -19 -50.5 -30s-29.834 -22.5 -42.501 -34.5v-594h-192v821h186l6 -82c14 13.333 29.667 26 47 38
s36.5 22.667 57.5 32s43.667 16.833 68 22.5s50.166 8.5 77.499 8.5c102 0 177.333 -27.333 226 -82s73 -134 73 -238v-520z" />
    <glyph glyph-name="o" unicode="o" horiz-adv-x="1063" 
d="M774 414c0 90.667 -19.999 159 -59.999 205s-98.333 69 -175 69c-77.333 0 -137.666 -23.667 -180.999 -71s-65 -116.333 -65 -207c0 -43.333 5.66699 -82.166 17 -116.499s27.666 -63.333 48.999 -87s47.166 -41.834 77.499 -54.501s64.5 -19 102.5 -19
c76.667 0 135 24 175 72s60 117.667 60 209zM967.001 414c0 -64.667 -10.335 -123.665 -31.002 -176.998s-50 -98.833 -88 -136.5s-84.167 -66.834 -138.5 -87.501s-115.5 -31 -183.5 -31c-65.333 0 -124.5 10 -177.5 30s-98.167 48.167 -135.5 84.5
s-66.166 80.5 -86.499 132.5s-30.5 110 -30.5 174c0 68.667 10.333 130 31 184s50.5 99.833 89.5 137.5s86.333 66.334 142 86.001s118.5 29.5 188.5 29.5c67.333 0 127 -9.66699 179 -29s95.833 -47.333 131.5 -84s62.834 -81.334 81.501 -134.001s28 -112.334 28 -179.001
z" />
    <glyph glyph-name="p" unicode="p" horiz-adv-x="1083" 
d="M346 182c8 -6.66699 18 -13.501 30 -20.501s25.833 -13.333 41.5 -19s33.167 -10.334 52.5 -14.001s40 -5.5 62 -5.5c41.333 0 78 6.66699 110 20s59.333 32.666 82 57.999s39.834 56.333 51.501 93s17.5 78 17.5 124c0 43.333 -5.33301 82 -16 116
s-25.834 62.833 -45.501 86.5s-43 41.834 -70 54.501s-56.5 19 -88.5 19c-26 0 -50.167 -2.83301 -72.5 -8.5s-43 -13.167 -62 -22.5s-36.167 -19.666 -51.5 -30.999s-29 -22.666 -41 -33.999v-416zM154 820.999l188 0.00195312l4 -73c32 24.667 69.333 46.167 112 64.5
s92 27.5 148 27.5c54 0 104.333 -9.16699 151 -27.5s87 -45.333 121 -81s60.667 -79.834 80 -132.501s29 -113.667 29 -183c0 -64 -9.33301 -122.5 -28 -175.5s-45.834 -98.5 -81.501 -136.5s-79.5 -67.5 -131.5 -88.5s-111 -31.5 -177 -31.5
c-41.333 0 -81.666 4.66699 -120.999 14s-73.333 21.666 -102 36.999v-508h-192v1294z" />
    <glyph glyph-name="q" unicode="q" horiz-adv-x="1069" 
d="M723 571c-8 18.667 -18.835 35.1699 -32.502 49.5029s-29.167 26.333 -46.5 36s-36.333 17 -57 22s-41.667 7.5 -63 7.5c-34 0 -65.167 -6 -93.5 -18s-52.666 -30.167 -72.999 -54.5s-36.166 -55 -47.499 -92s-17 -80.5 -17 -130.5c0 -44.667 6 -83.334 18 -116.001
s28.667 -59.834 50 -81.501s46.833 -37.834 76.5 -48.501s62.167 -16 97.5 -16c15.333 0 31.5 1.33301 48.5 4s33.833 6.5 50.5 11.5s32.667 10.833 48 17.5s29 14 41 22v387zM914.998 -472.997l-191.998 -0.000976562v367c0 6 0.166992 15.667 0.5 29
s0.666016 27.833 0.999023 43.5s1 31.167 2 46.5l2.5 38c-26.667 -17.333 -61 -33.166 -103 -47.499s-89 -21.5 -141 -21.5c-62 0 -117 10.5 -165 31.5s-88.667 50 -122 87s-58.666 80.667 -75.999 131s-26 104.833 -26 163.5c0 69.333 9.33301 131.5 28 186.5
s45.667 101.667 81 140s78.666 67.666 129.999 87.999s109.666 30.5 174.999 30.5c53.333 0 99.833 -8.83301 139.5 -26.5s73.167 -40.5 100.5 -68.5c4 13.333 8.83301 26.833 14.5 40.5s11.5 25.5 17.5 35.5h164c-3.33301 -12 -6.83301 -27.333 -10.5 -46
s-7 -39.167 -10 -61.5s-5.5 -46.166 -7.5 -71.499s-3 -50.333 -3 -75v-1040z" />
    <glyph glyph-name="r" unicode="r" horiz-adv-x="670" 
d="M498 840c22.667 0 44.502 -2.5 65.502 -7.5s42.167 -11.5 63.5 -19.5v-156c-22.667 5.33301 -46.667 9.16602 -72 11.499s-49.333 3.5 -72 3.5c-25.333 0 -46.833 -5.5 -64.5 -16.5s-31.834 -25.667 -42.501 -44s-18.334 -39.666 -23.001 -63.999s-7 -49.833 -7 -76.5
v-471h-192v545c0 24.667 -1 50.667 -3 78s-4.5 53.666 -7.5 78.999s-6.33301 48.5 -10 69.5s-7.16699 37.5 -10.5 49.5h162c3.33301 -6 6.66602 -14.167 9.99902 -24.5s6.5 -21.666 9.5 -33.999s5.83301 -25.5 8.5 -39.5s4.66699 -27.667 6 -41l32 52.5
c11.333 18.333 24.333 35.333 39 51s30.834 28.667 48.501 39s37.5 15.5 59.5 15.5z" />
    <glyph glyph-name="s" unicode="s" horiz-adv-x="715" 
d="M639 231c0 -35.333 -6.16699 -68.1709 -18.5 -98.5039s-31 -56.666 -56 -78.999s-56.333 -39.833 -94 -52.5s-81.834 -19 -132.501 -19c-49.333 0 -96 6.16699 -140 18.5s-81.333 29.833 -112 52.5v166c17.333 -12 36.5 -23.667 57.5 -35s42.5 -21.166 64.5 -29.499
s43.667 -15 65 -20s41 -7.5 59 -7.5c43.333 0 75 9.33301 95 28s30 41.334 30 68.001c0 14 -2 26.5 -6 37.5s-11.5 21.333 -22.5 31s-26.333 19.167 -46 28.5s-44.834 19.333 -75.501 30c-42 15.333 -77.167 31.5 -105.5 48.5s-51 35.667 -68 56s-29.167 42.333 -36.5 66
s-11 49.5 -11 77.5c0 36 7.83301 68.833 23.5 98.5s37 55.167 64 76.5s58.667 37.833 95 49.5s75.166 17.5 116.499 17.5c37.333 0 74 -3.66699 110 -11s71 -20 105 -38v-150c-32.667 14.667 -67.167 26.834 -103.5 36.501s-72.166 14.5 -107.499 14.5
c-41.333 0 -72.5 -8.66699 -93.5 -26s-31.5 -39.333 -31.5 -66c0 -11.333 2.16699 -22 6.5 -32s11.833 -19.667 22.5 -29s25.334 -18.833 44.001 -28.5s42.334 -19.5 71.001 -29.5c40 -14 74.5 -28.833 103.5 -44.5s53 -33.167 72 -52.5s33 -41.5 42 -66.5
s13.5 -53.833 13.5 -86.5z" />
    <glyph glyph-name="t" unicode="t" horiz-adv-x="666" 
d="M602 18c-22.667 -12 -49.999 -20.998 -81.999 -26.998s-65.333 -9 -100 -9c-80.667 0 -138.334 22 -173.001 66s-52 111.333 -52 202v440h-154v131h160l34.5 110.5l32.5 108.5h119v-219h229v-131h-229v-469c0 -28.667 7.33301 -51.834 22 -69.501s36 -26.5 64 -26.5
c24.667 0 47.667 1.16699 69 3.5s41.333 5.16602 60 8.49902v-119z" />
    <glyph glyph-name="u" unicode="u" horiz-adv-x="1030" 
d="M135 821l192.999 -0.000976562v-508c0 -57.333 11.833 -101.666 35.5 -132.999s59.5 -47 107.5 -47c21.333 0 42.166 2.66699 62.499 8s39.5 12.5 57.5 21.5s34.833 19 50.5 30s29.834 22.5 42.501 34.5v594h193v-821h-187l-6 82c-14 -12.667 -29.667 -25 -47 -37
s-36.5 -22.667 -57.5 -32s-43.667 -16.833 -68 -22.5s-50.166 -8.5 -77.499 -8.5c-102 0 -177.333 27.167 -226 81.5s-73 133.5 -73 237.5v520z" />
    <glyph glyph-name="v" unicode="v" horiz-adv-x="866" 
d="M860 821l-366 -821h-150l-334 821h197l184 -495c7.33301 -18.667 14 -38 20 -58s11.667 -40.333 17 -61l10.5 34c3.66699 12 7.5 23.5 11.5 34.5l11 30c3.33301 9 6 16.5 8 22.5l46.5 121l50 126.5l51 126l49.5 119.5h194z" />
    <glyph glyph-name="w" unicode="w" horiz-adv-x="1346" 
d="M1325 821l-311 -820.996h-174l-135 434c-9.33301 29.333 -17 55.5 -23 78.5s-10 40.5 -12 52.5h-6c-2.66699 -12 -7 -29.333 -13 -52s-14 -49.667 -24 -81l-140 -432h-168l-299 821h197l141 -434c4 -10 8.16699 -22.333 12.5 -37s8.5 -30 12.5 -46l11.5 -48
c3.66699 -16 6.5 -30.333 8.5 -43h5c2 13.333 5 28.166 9 44.499s8.5 32.5 13.5 48.5l14.5 45.5c4.66699 14.333 8.66699 26.166 12 35.499l139 434h147l138 -434c3.33301 -10 7.16602 -22.333 11.499 -37l13.5 -46l13.5 -48c4.33301 -16 7.83301 -30.333 10.5 -43h2
l11.5 43.5l13 49c4.33301 16.333 8.83301 31.666 13.5 45.999s8.33398 26.166 11.001 35.499l145 434h199z" />
    <glyph glyph-name="x" unicode="x" horiz-adv-x="887" 
d="M864 821l-305.001 -401.003l75.5 -101.5l79.5 -108.5l79.5 -108.5l74.5 -101.5h-213l-182 266l-16 25.5c-6.66699 10.333 -11.667 17.5 -15 21.5c-3.33301 -4 -8.16602 -11.167 -14.499 -21.5l-15.5 -25.5l-187 -266h-209l318 414l-73 100l-76 104.5l-75.5 103.5
l-72.5 99h213l160 -239l8.5 -14l11.5 -18.5c4 -6.33301 7.66699 -12.666 11 -18.999s6 -11.166 8 -14.499c2 4 4.83301 9.16699 8.5 15.5l11.5 19.5l11.5 18.5c3.66699 5.66699 6.5 9.83398 8.5 12.501l84.5 120l85.5 119h205z" />
    <glyph glyph-name="y" unicode="y" horiz-adv-x="862" 
d="M852 821l-299.001 -734.997c-11.333 -29.333 -23.666 -65.833 -36.999 -109.5l-41.5 -143l-42.5 -154.5c-14 -51.333 -27 -102 -39 -152h-196c12 48.667 23.667 93.167 35 133.5s23.333 80.166 36 119.499s26 78.333 40 117l46 130l-173.5 397l-172.5 397h211l203 -528
c3.33301 -7.33301 6.33301 -15.833 9 -25.5l7 -25.5c2 7.33301 4.5 15.166 7.5 23.499s6.16699 16.166 9.5 23.499l198 532h199z" />
    <glyph glyph-name="z" unicode="z" horiz-adv-x="829" 
d="M762 762l-434 -608h452v-154h-729v66l434 602h-397v153h674v-59z" />
    <glyph glyph-name="braceleft" unicode="{" horiz-adv-x="666" 
d="M57 580c28 0.666992 55.998 3.49805 83.998 8.49805s53.167 13.167 75.5 24.5s40.666 26.166 54.999 44.499s21.5 41.5 21.5 69.5c0 13.333 -1.33301 31.833 -4 55.5s-6 48.834 -10 75.501c-5.33301 30 -10.166 59.833 -14.499 89.5s-6.5 53.834 -6.5 72.501
c0 48 8.5 89.167 25.5 123.5s40.833 62.5 71.5 84.5s67.5 38.333 110.5 49s90.5 16.334 142.5 17.001v-135c-47.333 -1.33301 -85.333 -14 -114 -38s-43 -61.667 -43 -113c0 -12.667 1.66699 -30.667 5 -54l11 -77l12 -89c4 -30 6 -54.333 6 -73c0 -27.333 -4 -52 -12 -74
s-19.333 -41.833 -34 -59.5s-31.667 -33 -51 -46s-40.666 -24.167 -63.999 -33.5c49.333 -16.667 88.5 -41.834 117.5 -75.501s43.5 -77.5 43.5 -131.5c0 -9.33301 -0.5 -20.333 -1.5 -33s-2.5 -26.334 -4.5 -41.001l-6 -44.5l-6 -43.5l-11 -77
c-3.33301 -23.333 -5 -41.333 -5 -54c0 -51.333 14.333 -89.166 43 -113.499s66.667 -37.166 114 -38.499v-135c-52 0.666992 -99.5 6.16699 -142.5 16.5s-79.833 26.5 -110.5 48.5s-54.5 50.167 -71.5 84.5s-25.5 75.5 -25.5 123.5c0 10 0.5 21.333 1.5 34
s2.5 26.334 4.5 41.001s4.33301 29.5 7 44.5l8 44.5c4 26.667 7.33301 51.834 10 75.501s4 42.167 4 55.5c0 27.333 -7.16699 50.166 -21.5 68.499s-32.666 33.333 -54.999 45s-47.5 20.167 -75.5 25.5s-56 8.66602 -84 9.99902v148z" />
    <glyph glyph-name="bar" unicode="|" horiz-adv-x="1034" 
d="M604 -457h-174v1821h174v-1821z" />
    <glyph glyph-name="braceright" unicode="}" horiz-adv-x="666" 
d="M608 432c-27.333 -1.33301 -55 -4.66211 -83 -9.99512s-53.167 -13.833 -75.5 -25.5s-40.666 -26.667 -54.999 -45s-21.5 -41.166 -21.5 -68.499c0 -13.333 1.33301 -31.833 4 -55.5s6 -48.834 10 -75.501c2.66699 -14.667 5.16699 -29.5 7.5 -44.5
s4.5 -29.833 6.5 -44.5s3.66699 -28.334 5 -41.001s2 -24 2 -34c0 -48 -8.5 -89.167 -25.5 -123.5s-40.833 -62.5 -71.5 -84.5s-67.667 -38.167 -111 -48.5s-91 -15.833 -143 -16.5v135c48 1.33301 86.333 14.166 115 38.499s43 62.166 43 113.499
c0 12.667 -1.66699 30.667 -5 54l-11 77c-4.66699 28.667 -9 58.167 -13 88.5s-6 54.833 -6 73.5c0 27.333 4.16699 52 12.5 74s19.666 41.667 33.999 59s31.5 32.5 51.5 45.5s41.333 23.833 64 32.5c-48 17.333 -87 42.666 -117 75.999s-45 77.666 -45 132.999
c0 9.33301 0.5 20.333 1.5 33s2.5 26.334 4.5 41.001s4.16699 29.5 6.5 44.5l6.5 43.5l11 77c3.33301 23.333 5 41.333 5 54c0 51.333 -14.333 89 -43 113s-67 36.667 -115 38v135c52 -0.666992 99.667 -6.33398 143 -17.001s80.333 -27 111 -49s54.5 -50.167 71.5 -84.5
s25.5 -75.5 25.5 -123.5c0 -18.667 -2.16699 -43.167 -6.5 -73.5s-9.16602 -59.833 -14.499 -88.5c-4 -26.667 -7.33301 -51.834 -10 -75.501s-4 -42.167 -4 -55.5c0 -28 7.16699 -51.167 21.5 -69.5s32.666 -33.166 54.999 -44.499s47.5 -19.5 75.5 -24.5
s55.667 -7.83301 83 -8.5v-148z" />
    <glyph glyph-name="asciitilde" unicode="~" horiz-adv-x="1034" 
d="M707 395c-43.333 0 -84.835 8.66504 -124.502 25.998s-84.167 43 -133.5 77c-26 18.667 -48.5 32.167 -67.5 40.5s-36.167 12.5 -51.5 12.5c-30 0 -54.167 -13.333 -72.5 -40s-28.5 -65.334 -30.5 -116.001h-174c1.33301 48 8.5 91.667 21.5 131s31.333 72.833 55 100.5
s52.334 49 86.001 64s71.834 22.5 114.501 22.5c36 0 73.167 -8.16699 111.5 -24.5s76.166 -36.166 113.499 -59.499c34 -23.333 63.5 -41.166 88.5 -53.499s46.167 -18.5 63.5 -18.5c28.667 0 52 13 70 39s28 65 30 117h176c-2 -48.667 -9.5 -92.667 -22.5 -132
s-31.167 -72.666 -54.5 -99.999s-51.666 -48.5 -84.999 -63.5s-71.333 -22.5 -114 -22.5z" />
    <glyph glyph-name="exclamdown" unicode="&#xa1;" horiz-adv-x="565" 
d="M176 -473l41 940h137l39 -940h-217zM410 721c0 -16.667 -3.33301 -32.334 -10 -47.001s-15.667 -27.5 -27 -38.5s-24.666 -19.667 -39.999 -26s-32 -9.5 -50 -9.5c-17.333 0 -33.666 3.16699 -48.999 9.5s-28.833 15 -40.5 26s-20.834 23.833 -27.501 38.5
s-10 30.334 -10 47.001c0 16 3.33301 31.167 10 45.5s15.834 27 27.501 38s25.167 19.667 40.5 26s31.666 9.5 48.999 9.5c18 0 34.667 -3.16699 50 -9.5s28.666 -15 39.999 -26s20.333 -23.667 27 -38s10 -29.5 10 -45.5z" />
    <glyph glyph-name="cent" unicode="&#xa2;" horiz-adv-x="1034" 
d="M346 688c0 -68 14.5 -123.501 43.5 -166.501s66.5 -72.167 112.5 -87.5v522c-21.333 -8.66699 -41.5 -20.5 -60.5 -35.5s-35.5 -33.5 -49.5 -55.5s-25.167 -47.667 -33.5 -77s-12.5 -62.666 -12.5 -99.999zM150 691.999c0 62 8.83301 117.501 26.5 166.501
s42.334 91.5 74.001 127.5s69 65.167 112 87.5s89.5 37.833 139.5 46.5v174h141v-168c39.333 -3.33301 78.333 -10.333 117 -21s74 -26.667 106 -48v-180c-41.333 30 -81 52.5 -119 67.5s-72.667 25.167 -104 30.5v-549c36 6 73 17 111 33s75.333 36.333 112 61v-166
c-32 -20.667 -66.167 -37.834 -102.5 -51.501s-76.5 -23.167 -120.5 -28.5v-184h-141v182c-50 6 -96.5 20 -139.5 42s-80.333 51 -112 87s-56.334 78.5 -74.001 127.5s-26.5 103.5 -26.5 163.5z" />
    <glyph glyph-name="sterling" unicode="&#xa3;" horiz-adv-x="1034" 
d="M98 698l172 -0.00195312v176c0 72 11.167 135.333 33.5 190s52.5 100.334 90.5 137.001s82 64.167 132 82.5s102.667 27.5 158 27.5c43.333 0 86.833 -5.5 130.5 -16.5s83.5 -28.833 119.5 -53.5v-174c-18.667 14 -38.667 26.833 -60 38.5s-42.5 21.667 -63.5 30
s-41.833 14.666 -62.5 18.999s-40 6.5 -58 6.5c-31.333 0 -60.833 -5.66699 -88.5 -17s-51.667 -28.666 -72 -51.999s-36.5 -53.333 -48.5 -90s-18 -80 -18 -130v-174h325v-143h-325v-14c0 -43.333 -2.33301 -84.166 -7 -122.499s-12.667 -73.833 -24 -106.5
s-26.5 -62.167 -45.5 -88.5s-42.833 -49.5 -71.5 -69.5h695v-154h-930v139c36 19.333 66.167 42 90.5 68s43.833 55.167 58.5 87.5s25.167 67.333 31.5 105s9.5 77.167 9.5 118.5v37h-172v143z" />
    <glyph glyph-name="currency" unicode="&#xa4;" horiz-adv-x="1065" 
d="M111 553c0 41.333 5.99902 80.332 17.999 116.999s28.333 71.334 49 104.001l-76 78l117 121l80 -82c32 21.333 65.833 36.5 101.5 45.5s74.167 13.5 115.5 13.5c42 0 81 -4.83301 117 -14.5s70 -25.167 102 -46.5l82 84l117 -121l-80 -82
c21.333 -32 38 -65.833 50 -101.5s18 -74.167 18 -115.5c0 -82.667 -21.333 -156.334 -64 -221.001l76 -76l-117 -119l-80 82c-65.333 -43.333 -139 -65 -221 -65c-41.333 0 -80.166 5.33301 -116.499 16s-70.5 26.334 -102.5 47.001l-80 -78l-113 115l72 78
c-20.667 32 -36.667 67 -48 105s-17 76.667 -17 116zM288.999 552.999c0 -32.667 6 -63.5 18 -92.5s28.167 -54.167 48.5 -75.5s44.333 -38.333 72 -51s57.167 -19 88.5 -19s60.833 6.33301 88.5 19s51.667 29.667 72 51s36.5 46.5 48.5 75.5s18 59.833 18 92.5
s-6 63.334 -18 92.001s-28.167 53.5 -48.5 74.5s-44.333 37.667 -72 50s-57.167 18.5 -88.5 18.5s-60.833 -6.16699 -88.5 -18.5s-51.667 -29 -72 -50s-36.5 -45.833 -48.5 -74.5s-18 -59.334 -18 -92.001z" />
    <glyph glyph-name="yen" unicode="&#xa5;" horiz-adv-x="1034" 
d="M1038 1294l-360 -639h264v-141h-326v-133h326v-141h-326v-240h-196v240h-328l-2 141h330v133h-328l-2 141h264l-356 639h219l250 -483l12.5 -24l15 -29c5 -10 9.83301 -20.167 14.5 -30.5s8.33398 -19.5 11.001 -27.5l11 28c4 10 8.33301 20 13 30l13.5 28.5
c4.33301 9 8.16602 16.5 11.499 22.5l262 485h207z" />
    <glyph glyph-name="brokenbar" unicode="&#xa6;" horiz-adv-x="1034" 
d="M604 641h-174v723h174v-723zM604 -457h-174v723h174v-723z" />
    <glyph glyph-name="section" unicode="&#xa7;" horiz-adv-x="956" 
d="M885 535c0 -30 -5.00391 -58.334 -15.0039 -85.001s-23.167 -51 -39.5 -73s-35.166 -41.5 -56.499 -58.5s-43.666 -31.167 -66.999 -42.5c40.667 -28.667 70.834 -61.834 90.501 -99.501s29.5 -79.5 29.5 -125.5c0 -44.667 -8.33301 -85.667 -25 -123
s-41.167 -69.666 -73.5 -96.999s-72 -48.666 -119 -63.999s-100.5 -23 -160.5 -23c-58.667 0 -116 5 -172 15s-106.667 24.667 -152 44v189c18 -9.33301 40.5 -18.833 67.5 -28.5s55.5 -18.5 85.5 -26.5s59.833 -14.5 89.5 -19.5s55.834 -7.5 78.501 -7.5
c36.667 0 67.167 3.66699 91.5 11s43.666 17.166 57.999 29.499s24.5 26.166 30.5 41.499s9 31 9 47c0 19.333 -4.5 36.833 -13.5 52.5s-22.667 30.334 -41 44.001s-41.666 26.334 -69.999 38.001s-61.833 23.5 -100.5 35.5c-50 15.333 -94.5 32.166 -133.5 50.499
s-71.667 39.833 -98 64.5s-46.333 53.334 -60 86.001s-20.5 70.667 -20.5 114c0 28 4.33301 54.167 13 78.5s20.5 46.333 35.5 66s32.333 37.167 52 52.5s40.167 28.333 61.5 39c-40 25.333 -71.833 58.666 -95.5 99.999s-35.5 89.333 -35.5 144c0 47.333 9.33301 89 28 125
s44.5 66.167 77.5 90.5s72 42.833 117 55.5s93.833 19 146.5 19c56.667 0 107.667 -5.33301 153 -16s89 -25.667 131 -45v-184c-17.333 10 -37.666 19.667 -60.999 29s-47.833 17.5 -73.5 24.5s-51.334 12.667 -77.001 17s-49.167 6.5 -70.5 6.5
c-60 0 -104.667 -12.167 -134 -36.5s-44 -54.5 -44 -90.5c0 -23.333 5.83301 -43.666 17.5 -60.999s28 -32.833 49 -46.5s46 -25.667 75 -36s60.833 -20.5 95.5 -30.5c44 -12 85.667 -26.167 125 -42.5s74 -36 104 -59s53.667 -49.833 71 -80.5s26 -66.667 26 -108z
M286.996 534.999c0 -24 4.33105 -44.334 12.998 -61.001s22.167 -31.5 40.5 -44.5s41.666 -25 69.999 -36s62.166 -22.167 101.499 -33.5c6 -2 11.167 -3.5 15.5 -4.5s8.83301 -2.16699 13.5 -3.5c56 15.333 94.833 36 116.5 62s32.5 55.333 32.5 88
c0 23.333 -4.66699 43.166 -14 59.499s-23.666 31 -42.999 44s-43.833 25.167 -73.5 36.5s-65.167 23.333 -106.5 36c-9.33301 3.33301 -18.666 6.33301 -27.999 9s-16.666 5 -21.999 7c-16.667 -9.33301 -32.167 -19.166 -46.5 -29.499s-26.666 -22 -36.999 -35
s-18.333 -27.167 -24 -42.5s-8.5 -32.666 -8.5 -51.999z" />
    <glyph glyph-name="dieresis" unicode="&#xa8;" horiz-adv-x="791" 
d="M340 1055c0 -28 -10.333 -52.167 -31 -72.5s-50.667 -30.5 -90 -30.5c-37.333 0 -66.166 10.167 -86.499 30.5s-30.5 44.5 -30.5 72.5c0 30.667 9.83301 55.667 29.5 75s48.167 29 85.5 29c39.333 0 69.666 -9.66699 90.999 -29s32 -44.333 32 -75zM690 1055
c0 -28 -10.334 -52.167 -31.001 -72.5s-50.667 -30.5 -90 -30.5c-38 0 -67.167 10.167 -87.5 30.5s-30.5 44.5 -30.5 72.5c0 30.667 9.83301 55.667 29.5 75s47.834 29 84.501 29c40 0 70.833 -9.66699 92.5 -29s32.5 -44.333 32.5 -75z" />
    <glyph glyph-name="copyright" unicode="&#xa9;" horiz-adv-x="1536" 
d="M104 647c0 61.333 7.83301 120.166 23.5 176.499s38 109.166 67 158.499s63.667 94.166 104 134.499s85.166 75 134.499 104s102.166 51.333 158.499 67s115.166 23.5 176.499 23.5s120.333 -7.83301 177 -23.5s109.667 -38 159 -67s94.166 -63.667 134.499 -104
s74.833 -85.166 103.5 -134.499s50.834 -102.166 66.501 -158.499s23.5 -115.166 23.5 -176.499c0 -60.667 -7.83301 -119.334 -23.5 -176.001s-37.834 -109.5 -66.501 -158.5s-63.167 -93.667 -103.5 -134s-85.166 -75 -134.499 -104s-102.333 -51.333 -159 -67
s-115.667 -23.5 -177 -23.5s-120.166 7.83301 -176.499 23.5s-109.166 38 -158.499 67s-94.166 63.667 -134.499 104s-75 85 -104 134s-51.333 101.833 -67 158.5s-23.5 115.334 -23.5 176.001zM213 647c0 -76.667 14.5 -148.834 43.5 -216.501s68.667 -126.667 119 -177
s109.166 -90.166 176.499 -119.499s139.333 -44 216 -44c77.333 0 149.833 14.667 217.5 44s126.667 69.166 177 119.499s90 109.333 119 177s43.5 139.834 43.5 216.501s-14.5 148.834 -43.5 216.501s-68.667 126.667 -119 177s-109.333 90.166 -177 119.499
s-140.167 44 -217.5 44c-76.667 0 -148.667 -14.667 -216 -44s-126.166 -69.166 -176.499 -119.499s-90 -109.333 -119 -177s-43.5 -139.834 -43.5 -216.501zM1004 295c-58.667 -31.333 -130.668 -46.999 -216.001 -46.999c-54 0 -103.5 9.66699 -148.5 29
s-83.667 46.166 -116 80.499s-57.333 75.333 -75 123s-26.5 99.834 -26.5 156.501c0 59.333 9.66699 113.833 29 163.5s46 92.5 80 128.5s74.333 64.167 121 84.5s97.667 30.5 153 30.5c37.333 0 73.833 -3.83301 109.5 -11.5s66.167 -16.5 91.5 -26.5v-111
c-24 12.667 -52.5 24.334 -85.5 35.001s-68.167 16 -105.5 16c-39.333 0 -75.666 -7.33301 -108.999 -22s-62 -35.334 -86 -62.001s-42.833 -59 -56.5 -97s-20.5 -80.667 -20.5 -128c0 -42.667 6.5 -81.834 19.5 -117.501s31.333 -66.167 55 -91.5s52 -45 85 -59
s69.167 -21 108.5 -21c37.333 0 72 4.5 104 13.5s61.667 22.167 89 39.5v-106z" />
    <glyph glyph-name="ordfeminine" unicode="&#xaa;" horiz-adv-x="836" 
d="M506 933c-12 1.33301 -25.666 2.33301 -40.999 3s-31.333 1 -48 1c-36 0 -65.333 -3.16699 -88 -9.5s-40.334 -14.666 -53.001 -24.999s-21.167 -22.333 -25.5 -36s-6.5 -27.834 -6.5 -42.501c0 -28 6.83301 -49.667 20.5 -65s35.5 -23 65.5 -23s60.833 6 92.5 18
s59.5 29 83.5 51v128zM656.001 614c-40 0 -70.3359 7.83301 -91.0029 23.5s-35.667 36.167 -45 61.5c-26 -24 -56.5 -44.167 -91.5 -60.5s-77.167 -24.5 -126.5 -24.5c-38 0 -71 5.16699 -99 15.5s-51.5 24.666 -70.5 42.999s-33.167 40 -42.5 65s-14 51.833 -14 80.5
c0 72.667 27.667 128.667 83 168s137.333 59 246 59c16.667 0 32.834 -0.333008 48.501 -1s33.167 -2 52.5 -4c0 50 -10.167 86.833 -30.5 110.5s-54.166 35.5 -101.499 35.5c-34 0 -68.333 -4.16699 -103 -12.5s-69 -19.5 -103 -33.5v126c30 14 63.833 25 101.5 33
s74.5 12 110.5 12c46 0 87 -4.5 123 -13.5s66.333 -23.833 91 -44.5s43.5 -48 56.5 -82s19.5 -76 19.5 -126v-254c0 -19.333 3.83301 -33.333 11.5 -42s16.834 -13 27.501 -13c11.333 0 21.5 0.333008 30.5 1s19.5 2.33398 31.5 5.00098v-98
c-13.333 -10 -30 -17.5 -50 -22.5s-41.667 -7.5 -65 -7.5z" />
    <glyph glyph-name="guillemotleft" unicode="&#xab;" horiz-adv-x="995" 
d="M76 434l77 85.999l76 91.5l70.5 92.5c22.333 30.667 42.5 60.334 60.5 89.001h175v-43l-117.5 -156c-45 -58 -92.833 -116 -143.5 -174l74.5 -87.5l70 -87l63 -82l53.5 -73.5v-45h-177c-18 30 -38.333 60.5 -61 91.5l-71 93l-75.5 90.5l-74.5 83v31zM461 433.999
l76.5 85.999l75.5 91.5l71 92.5c22.667 30.667 43 60.334 61 89.001h175v-43l-119 -156c-45.333 -58 -93.333 -116 -144 -174c50.667 -58 98.834 -116.167 144.501 -174.5l118.5 -155.5v-45h-177c-18.667 30 -39.334 60.5 -62.001 91.5l-71 93l-75 90.5l-74 83v31z" />
    <glyph glyph-name="logicalnot" unicode="&#xac;" horiz-adv-x="1034" 
d="M80 635h874v-510h-159v350h-715v160z" />
    <glyph glyph-name="uni00AD" unicode="&#xad;" horiz-adv-x="735" 
d="M604 352h-473v170h473v-170z" />
    <glyph glyph-name="registered" unicode="&#xae;" horiz-adv-x="1536" 
d="M104 647c0 61.333 7.83301 120.166 23.5 176.499s38 109.166 67 158.499s63.667 94.166 104 134.499s85.166 75 134.499 104s102.166 51.333 158.499 67s115.166 23.5 176.499 23.5s120.333 -7.83301 177 -23.5s109.667 -38 159 -67s94.166 -63.667 134.499 -104
s74.833 -85.166 103.5 -134.499s50.834 -102.166 66.501 -158.499s23.5 -115.166 23.5 -176.499c0 -60.667 -7.83301 -119.334 -23.5 -176.001s-37.834 -109.5 -66.501 -158.5s-63.167 -93.667 -103.5 -134s-85.166 -75 -134.499 -104s-102.333 -51.333 -159 -67
s-115.667 -23.5 -177 -23.5s-120.166 7.83301 -176.499 23.5s-109.166 38 -158.499 67s-94.166 63.667 -134.499 104s-75 85 -104 134s-51.333 101.833 -67 158.5s-23.5 115.334 -23.5 176.001zM213 647c0 -76.667 14.5 -148.834 43.5 -216.501s68.667 -126.667 119 -177
s109.166 -90.166 176.499 -119.499s139.333 -44 216 -44c77.333 0 149.833 14.667 217.5 44s126.667 69.166 177 119.499s90 109.333 119 177s43.5 139.834 43.5 216.501s-14.5 148.834 -43.5 216.501s-68.667 126.667 -119 177s-109.333 90.166 -177 119.499
s-140.167 44 -217.5 44c-76.667 0 -148.667 -14.667 -216 -44s-126.166 -69.166 -176.499 -119.499s-90 -109.333 -119 -177s-43.5 -139.834 -43.5 -216.501zM1090 260l-135.999 0.00195312l-219 332h-82v-332h-114v774h190c42 0 81.667 -3.33301 119 -10
s70.166 -18 98.499 -34s50.666 -37.333 66.999 -64s24.5 -60.334 24.5 -101.001c0 -30.667 -5.16699 -58.167 -15.5 -82.5s-24 -45.5 -41 -63.5s-36.667 -32.833 -59 -44.5s-45.166 -19.834 -68.499 -24.501v-4zM915.001 817.002c0 41.333 -14.5 71.167 -43.5 89.5
s-74.5 27.5 -136.5 27.5h-82v-244h76c60 0 106 9.83301 138 29.5s48 52.167 48 97.5z" />
    <glyph glyph-name="uni00AF" unicode="&#xaf;" horiz-adv-x="807" 
d="M803 1429h-799v137h799v-137z" />
    <glyph glyph-name="degree" unicode="&#xb0;" horiz-adv-x="639" 
d="M39 1022c0 37.333 7.33301 72.5 22 105.5s34.667 61.833 60 86.5s55 44.167 89 58.5s70.333 21.5 109 21.5c39.333 0 76 -7.16699 110 -21.5s63.667 -33.833 89 -58.5s45.333 -53.5 60 -86.5s22 -68.167 22 -105.5c0 -38 -7.33301 -73.5 -22 -106.5
s-34.667 -61.833 -60 -86.5s-55 -44 -89 -58s-70.667 -21 -110 -21c-38.667 0 -75 7 -109 21s-63.667 33.333 -89 58s-45.333 53.5 -60 86.5s-22 68.5 -22 106.5zM188 1022c0 -19.333 3.66699 -37.333 11 -54s17 -31.167 29 -43.5s25.833 -22 41.5 -29
s32.167 -10.5 49.5 -10.5s33.833 3.5 49.5 10.5s29.5 16.667 41.5 29s21.5 26.833 28.5 43.5s10.5 34.667 10.5 54s-3.5 37.333 -10.5 54s-16.5 31.167 -28.5 43.5s-25.833 22 -41.5 29s-32.167 10.5 -49.5 10.5s-33.833 -3.5 -49.5 -10.5s-29.5 -16.667 -41.5 -29
s-21.667 -26.833 -29 -43.5s-11 -34.667 -11 -54z" />
    <glyph glyph-name="plusminus" unicode="&#xb1;" horiz-adv-x="1034" 
d="M954 0h-874v160h874v-160zM954 598h-356v-350h-160v350h-358v160h358v348h160v-348h356v-160z" />
    <glyph glyph-name="uni00B2" unicode="&#xb2;" horiz-adv-x="688" 
d="M610 500l-509.998 0.00195312v118l127 145l78.5 93c19.667 24 34.167 42.167 43.5 54.5s16 22.166 20 29.499c8 13.333 16.833 31 26.5 53s14.5 45.333 14.5 70c0 32 -9.16699 56.667 -27.5 74s-43.5 26 -75.5 26c-16.667 0 -34.667 -3 -54 -9s-38.5 -13.833 -57.5 -23.5
s-37.167 -20.334 -54.5 -32.001s-32.333 -23.5 -45 -35.5v151c25.333 24 59.166 44 101.499 60s89.166 24 140.499 24c41.333 0 77.5 -5.33301 108.5 -16s56.667 -25.5 77 -44.5s35.5 -41 45.5 -66s15 -52.167 15 -81.5c0 -34 -5.33301 -64.5 -16 -91.5
s-24.667 -53.833 -42 -80.5c-25.333 -40 -104.333 -134.333 -237 -283h321v-135z" />
    <glyph glyph-name="uni00B3" unicode="&#xb3;" horiz-adv-x="688" 
d="M598 733c0 -36 -6.83301 -68.498 -20.5 -97.498s-33 -53.833 -58 -74.5s-55.167 -36.667 -90.5 -48s-74.666 -17 -117.999 -17c-39.333 0 -77.5 4.16699 -114.5 12.5s-71.167 21.166 -102.5 38.499v147c15.333 -10 31.833 -19 49.5 -27s35.667 -15 54 -21
s36.333 -10.667 54 -14s34.167 -5 49.5 -5c44 0 76.167 9.5 96.5 28.5s30.5 44.833 30.5 77.5c0 33.333 -14.333 59.166 -43 77.499s-68.334 27.5 -119.001 27.5h-71v133h41c53.333 0 93.833 10 121.5 30s41.5 46 41.5 78c0 25.333 -9.16699 46 -27.5 62s-44.5 24 -78.5 24
c-13.333 0 -28.166 -1.5 -44.499 -4.5s-33 -7.33301 -50 -13s-33.833 -12.5 -50.5 -20.5s-32 -17 -46 -27v145c14 10 29.667 18.333 47 25s35.5 12 54.5 16s38.167 7 57.5 9s38 3 56 3c38.667 0 73.5 -4.66699 104.5 -14s57.5 -22.833 79.5 -40.5s38.833 -39 50.5 -64
s17.5 -53.5 17.5 -85.5c0 -42 -12.333 -78.5 -37 -109.5s-56.667 -54.167 -96 -69.5c23.333 -5.33301 44.833 -13.333 64.5 -24s36.667 -23.5 51 -38.5s25.666 -32.5 33.999 -52.5s12.5 -42.333 12.5 -67z" />
    <glyph glyph-name="acute" unicode="&#xb4;" horiz-adv-x="451" 
d="M37 940c12.667 17.333 26.333 38.498 41 63.498s29.167 51.333 43.5 79l41 82l34.5 72.5h217v-14c-6.66699 -11.333 -16.167 -25.166 -28.5 -41.499l-41.5 -53l-49.5 -58.5l-53.5 -58l-52.5 -52.5c-17 -16.333 -32.833 -30.166 -47.5 -41.499h-104v22z" />
    <glyph glyph-name="mu" unicode="&#xb5;" horiz-adv-x="1049" 
d="M346 -463h-191.998v1284h192v-524c0 -30 3.66699 -55.333 11 -76s17.5 -37.5 30.5 -50.5s28.5 -22.5 46.5 -28.5s37.333 -9 58 -9c23.333 0 45.666 3.5 66.999 10.5s41.166 15.833 59.499 26.5s34.666 22.167 48.999 34.5s25.833 23.5 34.5 33.5v583h193v-821h-184l-4 88
c-12.667 -12.667 -27.667 -25.167 -45 -37.5s-36.333 -23.5 -57 -33.5s-42.5 -18 -65.5 -24s-47.167 -9 -72.5 -9c-20.667 0 -41.667 2 -63 6s-40.666 10.667 -57.999 20v-473z" />
    <glyph glyph-name="paragraph" unicode="&#xb6;" horiz-adv-x="1014" 
d="M66 961c0 51.333 7.83301 97.667 23.5 139s38.334 76.333 68.001 105s66.167 50.667 109.5 66s93 23 149 23h518v-123h-113v-1382h-147v1382h-142v-1382h-149v844c-46.667 2.66699 -89.334 11.5 -128.001 26.5s-72 36.167 -100 63.5s-49.833 60.833 -65.5 100.5
s-23.5 85.5 -23.5 137.5z" />
    <glyph glyph-name="periodcentered" unicode="&#xb7;" horiz-adv-x="451" 
d="M90 555c0 18 3.5 34.667 10.5 50s16.667 28.5 29 39.5s26.666 19.667 42.999 26s33.833 9.5 52.5 9.5c19.333 0 37.166 -3.16699 53.499 -9.5s30.5 -15 42.5 -26s21.5 -24.167 28.5 -39.5s10.5 -32 10.5 -50c0 -16.667 -3.5 -32.834 -10.5 -48.501
s-16.5 -29.167 -28.5 -40.5s-26.167 -20.5 -42.5 -27.5s-34.166 -10.5 -53.499 -10.5c-18.667 0 -36.167 3.5 -52.5 10.5s-30.666 16.167 -42.999 27.5s-22 24.833 -29 40.5s-10.5 31.834 -10.5 48.501z" />
    <glyph glyph-name="periodcentered" unicode="&#x2219;" horiz-adv-x="451" 
d="M90 555c0 18 3.5 34.667 10.5 50s16.667 28.5 29 39.5s26.666 19.667 42.999 26s33.833 9.5 52.5 9.5c19.333 0 37.166 -3.16699 53.499 -9.5s30.5 -15 42.5 -26s21.5 -24.167 28.5 -39.5s10.5 -32 10.5 -50c0 -16.667 -3.5 -32.834 -10.5 -48.501
s-16.5 -29.167 -28.5 -40.5s-26.167 -20.5 -42.5 -27.5s-34.166 -10.5 -53.499 -10.5c-18.667 0 -36.167 3.5 -52.5 10.5s-30.666 16.167 -42.999 27.5s-22 24.833 -29 40.5s-10.5 31.834 -10.5 48.501z" />
    <glyph glyph-name="cedilla" unicode="&#xb8;" horiz-adv-x="420" 
d="M393 -213c0 -56.667 -18.8311 -100.833 -56.498 -132.5s-98.5 -47.5 -182.5 -47.5c-17.333 0 -36.333 1.16699 -57 3.5s-37.334 5.16602 -50.001 8.49902v123c12.667 -3.33301 28.5 -6.16602 47.5 -8.49902s34.5 -3.5 46.5 -3.5c28 0 50 4.33301 66 13s24 22.667 24 42
c0 20.667 -12.667 38.167 -38 52.5s-61 23.5 -107 27.5l88 170h145l-49 -101c17.333 -5.33301 33.333 -12 48 -20s27.667 -17.833 39 -29.5s20.166 -25.667 26.499 -42s9.5 -34.833 9.5 -55.5z" />
    <glyph glyph-name="uni00B9" unicode="&#xb9;" horiz-adv-x="688" 
d="M477 500l-166 -0.000976562v602c-5.33301 -5.33301 -13.833 -12.666 -25.5 -21.999l-31.5 -25l-135 -103v160l239 182h119v-794z" />
    <glyph glyph-name="ordmasculine" unicode="&#xba;" horiz-adv-x="836" 
d="M594 963c0 68.667 -14.832 122.334 -44.499 161.001s-72.834 58 -129.501 58s-100.5 -19.833 -131.5 -59.5s-46.5 -93.5 -46.5 -161.5c0 -68.667 15.167 -121.834 45.5 -159.501s73.833 -56.5 130.5 -56.5c27.333 0 52 5.16699 74 15.5s40.5 25 55.5 44s26.5 42 34.5 69
s12 56.833 12 89.5zM760.001 969c0 -52 -7.83496 -100.003 -23.502 -144.003s-38.167 -81.667 -67.5 -113s-65.5 -55.833 -108.5 -73.5s-91.833 -26.5 -146.5 -26.5c-52.667 0 -100 8 -142 24s-77.667 39 -107 69s-51.833 66.167 -67.5 108.5s-23.5 89.833 -23.5 142.5
c0 55.333 8.16699 104.833 24.5 148.5s39.833 80.834 70.5 111.501s67.834 54.167 111.501 70.5s92.834 24.5 147.501 24.5c51.333 0 97.5 -7.83301 138.5 -23.5s75.833 -38.167 104.5 -67.5s50.667 -65.166 66 -107.499s23 -90.166 23 -143.499z" />
    <glyph glyph-name="guillemotright" unicode="&#xbb;" horiz-adv-x="995" 
d="M920 403l-77.001 -84.999l-76.5 -91.5c-25 -31 -48.667 -61.833 -71 -92.5s-42.5 -60.334 -60.5 -89.001h-174v45l53.5 74.5l62 82.5l68.5 87c24 29.333 48.667 58 74 86l-74.5 86l-69.5 87l-62 83l-52 74v43h176c18.667 -30 39.334 -60.5 62.001 -91.5l71 -93l75.5 -91
l74.5 -83.5v-31zM534.999 403.001l-77 -84.999l-76 -91.5l-70.5 -92.5c-22.333 -30.667 -42.833 -60.334 -61.5 -89.001h-174v45l55 74.5l63 82.5l69 87l73 86l-73.5 86l-70 87l-63 83l-53.5 74v43h176c19.333 -30 40.333 -60.5 63 -91.5l70.5 -93l75 -91l74.5 -83.5v-31z
" />
    <glyph glyph-name="onequarter" unicode="&#xbc;" horiz-adv-x="1524" 
d="M466 500l-166 -0.000976562v602c-5.33301 -5.33301 -13.833 -12.666 -25.5 -21.999l-31.5 -25l-135 -103v160l239 182h119v-794zM1265 1311l-847 -1329h-177l848 1329h176zM1169 305.999l0.000976562 182c0 8 0.166992 17.833 0.5 29.5s0.5 23.667 0.5 36
s0.166992 24 0.5 35s0.5 19.167 0.5 24.5c-10.667 -11.333 -24.834 -28 -42.501 -50s-36 -47 -55 -75s-37.5 -57.833 -55.5 -89.5s-33 -62.5 -45 -92.5h196zM1448 172.999h-113.001v-172h-166v172h-348l-16 69c4.66699 25.333 14.334 54.333 29.001 87s32.5 67 53.5 103
s44 72.333 69 109s50.167 71.167 75.5 103.5s49.833 61.333 73.5 87s44.167 45.5 61.5 59.5h168v-485h113v-133z" />
    <glyph glyph-name="onehalf" unicode="&#xbd;" horiz-adv-x="1524" 
d="M466 500l-166 -0.000976562v602c-5.33301 -5.33301 -13.833 -12.666 -25.5 -21.999l-31.5 -25l-135 -103v160l239 182h119v-794zM1265 1311l-847 -1329h-177l848 1329h176zM1431 0.999023l-509.998 0.00195312v118l127 145l78.5 93c19.667 24 34.167 42.167 43.5 54.5
s16 22.166 20 29.499c8 13.333 16.833 31 26.5 53s14.5 45.333 14.5 70c0 32 -9.16699 56.667 -27.5 74s-43.5 26 -75.5 26c-16.667 0 -34.667 -3 -54 -9s-38.5 -13.833 -57.5 -23.5s-37.167 -20.334 -54.5 -32.001s-32.333 -23.5 -45 -35.5v151
c25.333 24 59.166 44 101.499 60s89.166 24 140.499 24c41.333 0 77.5 -5.33301 108.5 -16s56.667 -25.5 77 -44.5s35.5 -41 45.5 -66s15 -52.167 15 -81.5c0 -34 -5.33301 -64.5 -16 -91.5s-24.667 -53.833 -42 -80.5c-25.333 -40 -104.333 -134.333 -237 -283h321v-135z
" />
    <glyph glyph-name="threequarters" unicode="&#xbe;" horiz-adv-x="1524" 
d="M1298 1311l-847 -1329h-177l848 1329h176zM618 733c0 -36 -6.83301 -68.498 -20.5 -97.498s-33 -53.833 -58 -74.5s-55.167 -36.667 -90.5 -48s-74.666 -17 -117.999 -17c-39.333 0 -77.5 4.16699 -114.5 12.5s-71.167 21.166 -102.5 38.499v147
c15.333 -10 31.833 -19 49.5 -27s35.667 -15 54 -21s36.333 -10.667 54 -14s34.167 -5 49.5 -5c44 0 76.167 9.5 96.5 28.5s30.5 44.833 30.5 77.5c0 33.333 -14.333 59.166 -43 77.499s-68.334 27.5 -119.001 27.5h-71v133h41c53.333 0 93.833 10 121.5 30s41.5 46 41.5 78
c0 25.333 -9.16699 46 -27.5 62s-44.5 24 -78.5 24c-13.333 0 -28.166 -1.5 -44.499 -4.5s-33 -7.33301 -50 -13s-33.833 -12.5 -50.5 -20.5s-32 -17 -46 -27v145c14 10 29.667 18.333 47 25s35.5 12 54.5 16s38.167 7 57.5 9s38 3 56 3c38.667 0 73.5 -4.66699 104.5 -14
s57.5 -22.833 79.5 -40.5s38.833 -39 50.5 -64s17.5 -53.5 17.5 -85.5c0 -42 -12.333 -78.5 -37 -109.5s-56.667 -54.167 -96 -69.5c23.333 -5.33301 44.833 -13.333 64.5 -24s36.667 -23.5 51 -38.5s25.666 -32.5 33.999 -52.5s12.5 -42.333 12.5 -67zM1202 306.002
l0.000976562 182c0 8 0.166992 17.833 0.5 29.5s0.5 23.667 0.5 36s0.166992 24 0.5 35s0.5 19.167 0.5 24.5c-10.667 -11.333 -24.834 -28 -42.501 -50s-36 -47 -55 -75s-37.5 -57.833 -55.5 -89.5s-33 -62.5 -45 -92.5h196zM1481 173.002h-113.001v-172h-166v172h-348
l-16 69c4.66699 25.333 14.334 54.333 29.001 87s32.5 67 53.5 103s44 72.333 69 109s50.167 71.167 75.5 103.5s49.833 61.333 73.5 87s44.167 45.5 61.5 59.5h168v-485h113v-133z" />
    <glyph glyph-name="questiondown" unicode="&#xbf;" horiz-adv-x="825" 
d="M74 -158c0 32.667 4.33008 63.999 12.9971 93.999s21.834 59.667 39.501 89s40.334 59 68.001 89s60.5 61 98.5 93c25.333 22.667 45.666 43.5 60.999 62.5s27.5 37.333 36.5 55s15.833 35.334 20.5 53.001s8.33398 36.5 11.001 56.5l8 60h127l12 -56
c2 -9.33301 3.5 -20.833 4.5 -34.5s1.5 -25.167 1.5 -34.5c0 -46.667 -12 -89.5 -36 -128.5s-59.667 -77.5 -107 -115.5c-30 -25.333 -55.667 -49 -77 -71s-38.833 -43.833 -52.5 -65.5s-23.5 -44.167 -29.5 -67.5s-9 -49 -9 -77c0 -54 16.833 -95.833 50.5 -125.5
s79.834 -44.5 138.501 -44.5c44 0 92.5 7.5 145.5 22.5s105.5 37.5 157.5 67.5v-174c-50.667 -24.667 -101.834 -42.667 -153.501 -54s-104.5 -17 -158.5 -17c-56 0 -106.833 7.5 -152.5 22.5s-84.667 36.5 -117 64.5s-57.166 62 -74.499 102s-26 84.667 -26 134z
M617.997 712.999c0 -18 -3.5 -34.667 -10.5 -50s-16.5 -28.5 -28.5 -39.5s-26.167 -19.667 -42.5 -26s-34.166 -9.5 -53.499 -9.5c-18 0 -35.167 3.16699 -51.5 9.5s-30.5 15 -42.5 26s-21.5 24.167 -28.5 39.5s-10.5 32 -10.5 50c0 17.333 3.5 33.666 10.5 48.999
s16.5 28.833 28.5 40.5s26.167 20.834 42.5 27.501s33.5 10 51.5 10c19.333 0 37.166 -3.33301 53.499 -10s30.5 -15.834 42.5 -27.501s21.5 -25.167 28.5 -40.5s10.5 -31.666 10.5 -48.999z" />
    <glyph glyph-name="Agrave" unicode="&#xc0;" horiz-adv-x="1212" 
d="M1206 0h-211l-145 371h-498l-135 -371h-211l502 1294h190zM627 983c-3.33301 9.33301 -7.5 22.834 -12.5 40.501s-9.16699 36.167 -12.5 55.5h-4c-3.33301 -20.667 -7.5 -39.834 -12.5 -57.501s-9.83301 -32.5 -14.5 -44.5l-157 -434h377zM709 1380
l-100.999 -0.000976562c-22.667 14 -47.834 32.5 -75.501 55.5l-81.5 71c-26.667 24.333 -50.667 47.833 -72 70.5s-37 41 -47 55v15h215l34.5 -61c13 -22.667 26.667 -45.167 41 -67.5s29 -43.666 44 -63.999s29.167 -37.5 42.5 -51.5v-23z" />
    <glyph glyph-name="Aacute" unicode="&#xc1;" horiz-adv-x="1212" 
d="M1206 0h-211l-145 371h-498l-135 -371h-211l502 1294h190zM627 983c-3.33301 9.33301 -7.5 22.834 -12.5 40.501s-9.16699 36.167 -12.5 55.5h-4c-3.33301 -20.667 -7.5 -39.834 -12.5 -57.501s-9.83301 -32.5 -14.5 -44.5l-157 -434h377zM516 1403
c13.333 14 27.5 31.168 42.5 51.501s29.667 41.666 44 63.999s28 44.833 41 67.5l34.5 61h215v-15c-6.66699 -9.33301 -16 -20.666 -28 -33.999l-41 -43.5c-15.333 -15.667 -32 -31.834 -50 -48.501s-36.167 -32.667 -54.5 -48l-54 -43.5
c-17.667 -13.667 -34.167 -25.167 -49.5 -34.5h-100v23z" />
    <glyph glyph-name="Acircumflex" unicode="&#xc2;" horiz-adv-x="1212" 
d="M1206 0h-211l-145 371h-498l-135 -371h-211l502 1294h190zM627 983c-3.33301 9.33301 -7.5 22.834 -12.5 40.501s-9.16699 36.167 -12.5 55.5h-4c-3.33301 -20.667 -7.5 -39.834 -12.5 -57.501s-9.83301 -32.5 -14.5 -44.5l-157 -434h377zM909 1380h-100
c-14 8 -30.333 17.833 -49 29.5l-57 36.5l-56 38l-47 34l-48 -34.5c-18 -13 -36.667 -25.833 -56 -38.5l-56.5 -36l-48.5 -29h-100v21c14.667 14 31 31.167 49 51.5l54.5 64.5l53 68c17 22.667 31.833 43.334 44.5 62.001h219c12 -18.667 26.333 -39.334 43 -62.001
l52.5 -68l54.5 -64.5c18 -20.333 34 -37.5 48 -51.5v-21z" />
    <glyph glyph-name="Atilde" unicode="&#xc3;" horiz-adv-x="1212" 
d="M1206 0h-211l-145 371h-498l-135 -371h-211l502 1294h190zM627 983c-3.33301 9.33301 -7.5 22.834 -12.5 40.501s-9.16699 36.167 -12.5 55.5h-4c-3.33301 -20.667 -7.5 -39.834 -12.5 -57.501s-9.83301 -32.5 -14.5 -44.5l-157 -434h377zM719 1371
c-26 0 -51.9971 5.66895 -77.9971 17.002s-49.333 22.666 -70 33.999c-16.667 9.33301 -33.334 18.166 -50.001 26.499s-30 12.5 -40 12.5c-15.333 0 -29 -7.16699 -41 -21.5s-22.333 -38.166 -31 -71.499h-125c7.33301 74 27.666 133.167 60.999 177.5
s78.666 66.5 135.999 66.5c28.667 0 54.667 -5.33301 78 -16s46.333 -22.334 69 -35.001l50.5 -26.5c16.333 -8.33301 29.833 -12.5 40.5 -12.5c16 0 30.5 7 43.5 21s23.5 37 31.5 69h117c-2.66699 -36 -9 -68.833 -19 -98.5s-23.167 -55 -39.5 -76
s-35.833 -37.333 -58.5 -49s-47.667 -17.5 -75 -17.5z" />
    <glyph glyph-name="Adieresis" unicode="&#xc4;" horiz-adv-x="1212" 
d="M1206 0h-211l-145 371h-498l-135 -371h-211l502 1294h190zM627 983c-3.33301 9.33301 -7.5 22.834 -12.5 40.501s-9.16699 36.167 -12.5 55.5h-4c-3.33301 -20.667 -7.5 -39.834 -12.5 -57.501s-9.83301 -32.5 -14.5 -44.5l-157 -434h377zM545 1497
c0 -28 -10.333 -52.167 -31 -72.5s-50.667 -30.5 -90 -30.5c-37.333 0 -66.166 10.167 -86.499 30.5s-30.5 44.5 -30.5 72.5c0 30.667 9.83301 55.667 29.5 75s48.167 29 85.5 29c39.333 0 69.666 -9.66699 90.999 -29s32 -44.333 32 -75zM895 1497
c0 -28 -10.334 -52.167 -31.001 -72.5s-50.667 -30.5 -90 -30.5c-38 0 -67.167 10.167 -87.5 30.5s-30.5 44.5 -30.5 72.5c0 30.667 9.83301 55.667 29.5 75s47.834 29 84.501 29c40 0 70.833 -9.66699 92.5 -29s32.5 -44.333 32.5 -75z" />
    <glyph glyph-name="Aring" unicode="&#xc5;" horiz-adv-x="1212" 
d="M1206 0h-211l-145 371h-498l-135 -371h-211l502 1294h190zM627 983c-3.33301 9.33301 -7.5 22.834 -12.5 40.501s-9.16699 36.167 -12.5 55.5h-4c-3.33301 -20.667 -7.5 -39.834 -12.5 -57.501s-9.83301 -32.5 -14.5 -44.5l-157 -434h377zM684 1388
c0 29.333 -8 52 -24 68s-36.667 24 -62 24c-23.333 0 -43.5 -8 -60.5 -24s-25.5 -38.667 -25.5 -68c0 -30 7.33301 -53.167 22 -69.5s36 -24.5 64 -24.5c25.333 0 46 8.16699 62 24.5s24 39.5 24 69.5zM824 1390c0 -32.667 -5.50098 -62 -16.501 -88s-26.5 -48 -46.5 -66
s-43.833 -31.667 -71.5 -41s-58.167 -14 -91.5 -14c-32.667 0 -62.5 4.66699 -89.5 14s-50.333 23 -70 41s-34.834 39.833 -45.501 65.5s-16 54.5 -16 86.5s5.33301 60.5 16 85.5s25.834 46.167 45.501 63.5s43 30.666 70 39.999s56.833 14 89.5 14
s62.834 -4.66699 90.501 -14s51.5 -22.666 71.5 -39.999s35.667 -38.333 47 -63s17 -52.667 17 -84z" />
    <glyph glyph-name="AE" unicode="&#xc6;" horiz-adv-x="1571" 
d="M467 543h326v583h-54zM1442 0h-649v371h-404l-87.5 -185.5l-86.5 -185.5h-209l619 1294h815v-168h-451v-393h453v-166h-453v-401h453v-166z" />
    <glyph glyph-name="Ccedilla" unicode="&#xc7;" horiz-adv-x="1214" 
d="M317 633c0 -72.667 10.4961 -138.833 31.4961 -198.5s50.667 -110.834 89 -153.501s84.333 -75.667 138 -99s113.167 -35 178.5 -35c60.667 0 120.834 8 180.501 24s116.834 39 171.501 69v-177c-50 -26.667 -106 -46.834 -168 -60.501s-129.667 -20.5 -203 -20.5
c-91.333 0 -175.166 16 -251.499 48s-142 76.667 -197 134s-97.667 125.833 -128 205.5s-45.5 167.5 -45.5 263.5c0 98.667 16.333 189.5 49 272.5s77.834 154.5 135.501 214.5s126 106.833 205 140.5s164.833 50.5 257.5 50.5c31.333 0 63 -1.83301 95 -5.5
s63.333 -8.66699 94 -15s59.834 -13.666 87.501 -21.999s52.834 -17.5 75.501 -27.5v-176c-23.333 10 -49.333 20 -78 30s-58.334 18.833 -89.001 26.5s-62 13.834 -94 18.501s-63 7 -93 7c-62.667 0 -120.834 -12.167 -174.501 -36.5s-100.167 -58.833 -139.5 -103.5
s-70.333 -98.667 -93 -162s-34 -134 -34 -212zM853.996 -212.999c0 -56.667 -18.8311 -100.833 -56.498 -132.5s-98.5 -47.5 -182.5 -47.5c-17.333 0 -36.333 1.16699 -57 3.5s-37.334 5.16602 -50.001 8.49902v123c12.667 -3.33301 28.5 -6.16602 47.5 -8.49902
s34.5 -3.5 46.5 -3.5c28 0 50 4.33301 66 13s24 22.667 24 42c0 20.667 -12.667 38.167 -38 52.5s-61 23.5 -107 27.5l88 170h145l-49 -101c17.333 -5.33301 33.333 -12 48 -20s27.667 -17.833 39 -29.5s20.166 -25.667 26.499 -42s9.5 -34.833 9.5 -55.5z" />
    <glyph glyph-name="Egrave" unicode="&#xc8;" horiz-adv-x="954" 
d="M825 0h-647v1294h645v-168h-450v-393h452v-166h-452v-401h452v-166zM647 1380l-100.999 -0.000976562c-22.667 14 -47.834 32.5 -75.501 55.5l-81.5 71c-26.667 24.333 -50.667 47.833 -72 70.5s-37 41 -47 55v15h215l34.5 -61c13 -22.667 26.667 -45.167 41 -67.5
s29 -43.666 44 -63.999s29.167 -37.5 42.5 -51.5v-23z" />
    <glyph glyph-name="Eacute" unicode="&#xc9;" horiz-adv-x="954" 
d="M825 0h-647v1294h645v-168h-450v-393h452v-166h-452v-401h452v-166zM387 1403c13.333 14 27.5 31.168 42.5 51.501s29.667 41.666 44 63.999s28 44.833 41 67.5l34.5 61h215v-15c-6.66699 -9.33301 -16 -20.666 -28 -33.999l-41 -43.5
c-15.333 -15.667 -32 -31.834 -50 -48.501s-36.167 -32.667 -54.5 -48l-54 -43.5c-17.667 -13.667 -34.167 -25.167 -49.5 -34.5h-100v23z" />
    <glyph glyph-name="Ecircumflex" unicode="&#xca;" horiz-adv-x="954" 
d="M825 0h-647v1294h645v-168h-450v-393h452v-166h-452v-401h452v-166zM813 1380h-100c-14 8 -30.333 17.833 -49 29.5l-57 36.5l-56 38l-47 34l-48 -34.5c-18 -13 -36.667 -25.833 -56 -38.5l-56.5 -36l-48.5 -29h-100v21c14.667 14 31 31.167 49 51.5l54.5 64.5l53 68
c17 22.667 31.833 43.334 44.5 62.001h219c12 -18.667 26.333 -39.334 43 -62.001l52.5 -68l54.5 -64.5c18 -20.333 34 -37.5 48 -51.5v-21z" />
    <glyph glyph-name="Edieresis" unicode="&#xcb;" horiz-adv-x="954" 
d="M825 0h-647v1294h645v-168h-450v-393h452v-166h-452v-401h452v-166zM459 1497c0 -28 -10.333 -52.167 -31 -72.5s-50.667 -30.5 -90 -30.5c-37.333 0 -66.166 10.167 -86.499 30.5s-30.5 44.5 -30.5 72.5c0 30.667 9.83301 55.667 29.5 75s48.167 29 85.5 29
c39.333 0 69.666 -9.66699 90.999 -29s32 -44.333 32 -75zM809 1497c0 -28 -10.334 -52.167 -31.001 -72.5s-50.667 -30.5 -90 -30.5c-38 0 -67.167 10.167 -87.5 30.5s-30.5 44.5 -30.5 72.5c0 30.667 9.83301 55.667 29.5 75s47.834 29 84.501 29
c40 0 70.833 -9.66699 92.5 -29s32.5 -44.333 32.5 -75z" />
    <glyph glyph-name="Igrave" unicode="&#xcc;" horiz-adv-x="553" 
d="M375 0h-197v1294h197v-1294zM380 1380l-100.999 -0.000976562c-22.667 14 -47.834 32.5 -75.501 55.5l-81.5 71c-26.667 24.333 -50.667 47.833 -72 70.5s-37 41 -47 55v15h215l34.5 -61c13 -22.667 26.667 -45.167 41 -67.5s29 -43.666 44 -63.999
s29.167 -37.5 42.5 -51.5v-23z" />
    <glyph glyph-name="Iacute" unicode="&#xcd;" horiz-adv-x="553" 
d="M375 0h-197v1294h197v-1294zM178 1403c13.333 14 27.5 31.168 42.5 51.501s29.667 41.666 44 63.999s28 44.833 41 67.5l34.5 61h215v-15c-6.66699 -9.33301 -16 -20.666 -28 -33.999l-41 -43.5c-15.333 -15.667 -32 -31.834 -50 -48.501s-36.167 -32.667 -54.5 -48
l-54 -43.5c-17.667 -13.667 -34.167 -25.167 -49.5 -34.5h-100v23z" />
    <glyph glyph-name="Icircumflex" unicode="&#xce;" horiz-adv-x="553" 
d="M375 0h-197v1294h197v-1294zM586 1380h-100c-14 8 -30.333 17.833 -49 29.5l-57 36.5l-56 38l-47 34l-48 -34.5c-18 -13 -36.667 -25.833 -56 -38.5l-56.5 -36l-48.5 -29h-100v21c14.667 14 31 31.167 49 51.5l54.5 64.5l53 68c17 22.667 31.833 43.334 44.5 62.001h219
c12 -18.667 26.333 -39.334 43 -62.001l52.5 -68l54.5 -64.5c18 -20.333 34 -37.5 48 -51.5v-21z" />
    <glyph glyph-name="Idieresis" unicode="&#xcf;" horiz-adv-x="553" 
d="M375 0h-197v1294h197v-1294zM220 1497c0 -28 -10.333 -52.167 -31 -72.5s-50.667 -30.5 -90 -30.5c-37.333 0 -66.166 10.167 -86.499 30.5s-30.5 44.5 -30.5 72.5c0 30.667 9.83301 55.667 29.5 75s48.167 29 85.5 29c39.333 0 69.666 -9.66699 90.999 -29
s32 -44.333 32 -75zM570 1497c0 -28 -10.334 -52.167 -31.001 -72.5s-50.667 -30.5 -90 -30.5c-38 0 -67.167 10.167 -87.5 30.5s-30.5 44.5 -30.5 72.5c0 30.667 9.83301 55.667 29.5 75s47.834 29 84.501 29c40 0 70.833 -9.66699 92.5 -29s32.5 -44.333 32.5 -75z" />
    <glyph glyph-name="Eth" unicode="&#xd0;" horiz-adv-x="1384" 
d="M1272 672c0 -100.667 -18.499 -192.334 -55.499 -275.001s-88.833 -153.5 -155.5 -212.5s-146.334 -104.5 -239.001 -136.5s-194.667 -48 -306 -48h-338v573h-158v162h158v559h354c117.333 0 221.833 -13.167 313.5 -39.5s169.167 -65.666 232.5 -117.999
s111.5 -117.333 144.5 -195s49.5 -167.5 49.5 -269.5zM1069 670c0 79.333 -12.5 147.667 -37.5 205s-60.667 104.666 -107 141.999s-103 64.833 -170 82.5s-142.5 26.5 -226.5 26.5h-153v-391h336v-162h-336v-407h135c85.333 0 162.5 11.833 231.5 35.5
s127.833 57.334 176.5 101.001s86 96.667 112 159s39 131.833 39 208.5z" />
    <glyph glyph-name="Ntilde" unicode="&#xd1;" horiz-adv-x="1483" 
d="M1305 0h-193.001l-633 840c-4.66699 5.33301 -12.5 16.166 -23.5 32.499l-35 53.5l-35.5 57c-11.333 18.667 -19.666 33 -24.999 43v-1026h-182v1294h207l604 -811l35 -50.5l39 -60l35.5 -58c11 -18.333 19.5 -33.166 25.5 -44.499v1024h181v-1294zM903.999 1350
c-26 0 -51.9971 5.66895 -77.9971 17.002s-49.333 22.666 -70 33.999c-16.667 9.33301 -33.334 18.166 -50.001 26.499s-30 12.5 -40 12.5c-15.333 0 -29 -7.16699 -41 -21.5s-22.333 -38.166 -31 -71.499h-125c7.33301 74 27.666 133.167 60.999 177.5
s78.666 66.5 135.999 66.5c28.667 0 54.667 -5.33301 78 -16s46.333 -22.334 69 -35.001l50.5 -26.5c16.333 -8.33301 29.833 -12.5 40.5 -12.5c16 0 30.5 7 43.5 21s23.5 37 31.5 69h117c-2.66699 -36 -9 -68.833 -19 -98.5s-23.167 -55 -39.5 -76
s-35.833 -37.333 -58.5 -49s-47.667 -17.5 -75 -17.5z" />
    <glyph glyph-name="Ograve" unicode="&#xd2;" horiz-adv-x="1448" 
d="M1133 643c0 78.667 -8.66504 149.169 -25.998 211.502s-43 115.166 -77 158.499s-76 76.5 -126 99.5s-107.667 34.5 -173 34.5c-62.667 0 -119.5 -12.167 -170.5 -36.5s-94.5 -58.5 -130.5 -102.5s-63.833 -96.833 -83.5 -158.5s-29.5 -129.834 -29.5 -204.501
s9.33301 -142.667 28 -204s45.5 -113.666 80.5 -156.999s77.333 -77 127 -101s105.167 -36 166.5 -36c65.333 0 123.666 11.167 174.999 33.5s94.666 54.666 129.999 96.999s62.333 94.333 81 156s28 131.5 28 209.5zM1335 664.002
c0 -104.667 -14.166 -199.168 -42.499 -283.501s-69 -156 -122 -215s-117.5 -104.333 -193.5 -136s-162 -47.5 -258 -47.5c-92 0 -175.333 15.5 -250 46.5s-138.334 75 -191.001 132s-93.334 125.5 -122.001 205.5s-43 169 -43 267c0 102.667 14.167 195.834 42.5 279.501
s69.5 155 123.5 214s119.833 104.5 197.5 136.5s165.834 48 264.501 48c90 0 171.667 -15.667 245 -47s135.833 -75.5 187.5 -132.5s91.5 -125.167 119.5 -204.5s42 -167 42 -263zM863.003 1380l-100.999 -0.000976562c-22.667 14 -47.834 32.5 -75.501 55.5l-81.5 71
c-26.667 24.333 -50.667 47.833 -72 70.5s-37 41 -47 55v15h215l34.5 -61c13 -22.667 26.667 -45.167 41 -67.5s29 -43.666 44 -63.999s29.167 -37.5 42.5 -51.5v-23z" />
    <glyph glyph-name="Oacute" unicode="&#xd3;" horiz-adv-x="1448" 
d="M1133 643c0 78.667 -8.66504 149.169 -25.998 211.502s-43 115.166 -77 158.499s-76 76.5 -126 99.5s-107.667 34.5 -173 34.5c-62.667 0 -119.5 -12.167 -170.5 -36.5s-94.5 -58.5 -130.5 -102.5s-63.833 -96.833 -83.5 -158.5s-29.5 -129.834 -29.5 -204.501
s9.33301 -142.667 28 -204s45.5 -113.666 80.5 -156.999s77.333 -77 127 -101s105.167 -36 166.5 -36c65.333 0 123.666 11.167 174.999 33.5s94.666 54.666 129.999 96.999s62.333 94.333 81 156s28 131.5 28 209.5zM1335 664.002
c0 -104.667 -14.166 -199.168 -42.499 -283.501s-69 -156 -122 -215s-117.5 -104.333 -193.5 -136s-162 -47.5 -258 -47.5c-92 0 -175.333 15.5 -250 46.5s-138.334 75 -191.001 132s-93.334 125.5 -122.001 205.5s-43 169 -43 267c0 102.667 14.167 195.834 42.5 279.501
s69.5 155 123.5 214s119.833 104.5 197.5 136.5s165.834 48 264.501 48c90 0 171.667 -15.667 245 -47s135.833 -75.5 187.5 -132.5s91.5 -125.167 119.5 -204.5s42 -167 42 -263zM621.003 1403c13.333 14 27.5 31.168 42.5 51.501s29.667 41.666 44 63.999
s28 44.833 41 67.5l34.5 61h215v-15c-6.66699 -9.33301 -16 -20.666 -28 -33.999l-41 -43.5c-15.333 -15.667 -32 -31.834 -50 -48.501s-36.167 -32.667 -54.5 -48l-54 -43.5c-17.667 -13.667 -34.167 -25.167 -49.5 -34.5h-100v23z" />
    <glyph glyph-name="Ocircumflex" unicode="&#xd4;" horiz-adv-x="1448" 
d="M1133 643c0 78.667 -8.66504 149.169 -25.998 211.502s-43 115.166 -77 158.499s-76 76.5 -126 99.5s-107.667 34.5 -173 34.5c-62.667 0 -119.5 -12.167 -170.5 -36.5s-94.5 -58.5 -130.5 -102.5s-63.833 -96.833 -83.5 -158.5s-29.5 -129.834 -29.5 -204.501
s9.33301 -142.667 28 -204s45.5 -113.666 80.5 -156.999s77.333 -77 127 -101s105.167 -36 166.5 -36c65.333 0 123.666 11.167 174.999 33.5s94.666 54.666 129.999 96.999s62.333 94.333 81 156s28 131.5 28 209.5zM1335 664.002
c0 -104.667 -14.166 -199.168 -42.499 -283.501s-69 -156 -122 -215s-117.5 -104.333 -193.5 -136s-162 -47.5 -258 -47.5c-92 0 -175.333 15.5 -250 46.5s-138.334 75 -191.001 132s-93.334 125.5 -122.001 205.5s-43 169 -43 267c0 102.667 14.167 195.834 42.5 279.501
s69.5 155 123.5 214s119.833 104.5 197.5 136.5s165.834 48 264.501 48c90 0 171.667 -15.667 245 -47s135.833 -75.5 187.5 -132.5s91.5 -125.167 119.5 -204.5s42 -167 42 -263zM1044 1380h-100c-14 8 -30.333 17.833 -49 29.5l-57 36.5l-56 38l-47 34l-48 -34.5
c-18 -13 -36.667 -25.833 -56 -38.5l-56.5 -36l-48.5 -29h-100v21c14.667 14 31 31.167 49 51.5l54.5 64.5l53 68c17 22.667 31.833 43.334 44.5 62.001h219c12 -18.667 26.333 -39.334 43 -62.001l52.5 -68l54.5 -64.5c18 -20.333 34 -37.5 48 -51.5v-21z" />
    <glyph glyph-name="Otilde" unicode="&#xd5;" horiz-adv-x="1448" 
d="M1133 643c0 78.667 -8.66504 149.169 -25.998 211.502s-43 115.166 -77 158.499s-76 76.5 -126 99.5s-107.667 34.5 -173 34.5c-62.667 0 -119.5 -12.167 -170.5 -36.5s-94.5 -58.5 -130.5 -102.5s-63.833 -96.833 -83.5 -158.5s-29.5 -129.834 -29.5 -204.501
s9.33301 -142.667 28 -204s45.5 -113.666 80.5 -156.999s77.333 -77 127 -101s105.167 -36 166.5 -36c65.333 0 123.666 11.167 174.999 33.5s94.666 54.666 129.999 96.999s62.333 94.333 81 156s28 131.5 28 209.5zM1335 664.002
c0 -104.667 -14.166 -199.168 -42.499 -283.501s-69 -156 -122 -215s-117.5 -104.333 -193.5 -136s-162 -47.5 -258 -47.5c-92 0 -175.333 15.5 -250 46.5s-138.334 75 -191.001 132s-93.334 125.5 -122.001 205.5s-43 169 -43 267c0 102.667 14.167 195.834 42.5 279.501
s69.5 155 123.5 214s119.833 104.5 197.5 136.5s165.834 48 264.501 48c90 0 171.667 -15.667 245 -47s135.833 -75.5 187.5 -132.5s91.5 -125.167 119.5 -204.5s42 -167 42 -263zM857.003 1371c-26 0 -51.9971 5.66895 -77.9971 17.002s-49.333 22.666 -70 33.999
c-16.667 9.33301 -33.334 18.166 -50.001 26.499s-30 12.5 -40 12.5c-15.333 0 -29 -7.16699 -41 -21.5s-22.333 -38.166 -31 -71.499h-125c7.33301 74 27.666 133.167 60.999 177.5s78.666 66.5 135.999 66.5c28.667 0 54.667 -5.33301 78 -16s46.333 -22.334 69 -35.001
l50.5 -26.5c16.333 -8.33301 29.833 -12.5 40.5 -12.5c16 0 30.5 7 43.5 21s23.5 37 31.5 69h117c-2.66699 -36 -9 -68.833 -19 -98.5s-23.167 -55 -39.5 -76s-35.833 -37.333 -58.5 -49s-47.667 -17.5 -75 -17.5z" />
    <glyph glyph-name="Odieresis" unicode="&#xd6;" horiz-adv-x="1448" 
d="M1133 643c0 78.667 -8.66504 149.169 -25.998 211.502s-43 115.166 -77 158.499s-76 76.5 -126 99.5s-107.667 34.5 -173 34.5c-62.667 0 -119.5 -12.167 -170.5 -36.5s-94.5 -58.5 -130.5 -102.5s-63.833 -96.833 -83.5 -158.5s-29.5 -129.834 -29.5 -204.501
s9.33301 -142.667 28 -204s45.5 -113.666 80.5 -156.999s77.333 -77 127 -101s105.167 -36 166.5 -36c65.333 0 123.666 11.167 174.999 33.5s94.666 54.666 129.999 96.999s62.333 94.333 81 156s28 131.5 28 209.5zM1335 664.002
c0 -104.667 -14.166 -199.168 -42.499 -283.501s-69 -156 -122 -215s-117.5 -104.333 -193.5 -136s-162 -47.5 -258 -47.5c-92 0 -175.333 15.5 -250 46.5s-138.334 75 -191.001 132s-93.334 125.5 -122.001 205.5s-43 169 -43 267c0 102.667 14.167 195.834 42.5 279.501
s69.5 155 123.5 214s119.833 104.5 197.5 136.5s165.834 48 264.501 48c90 0 171.667 -15.667 245 -47s135.833 -75.5 187.5 -132.5s91.5 -125.167 119.5 -204.5s42 -167 42 -263zM678.003 1497c0 -28 -10.333 -52.167 -31 -72.5s-50.667 -30.5 -90 -30.5
c-37.333 0 -66.166 10.167 -86.499 30.5s-30.5 44.5 -30.5 72.5c0 30.667 9.83301 55.667 29.5 75s48.167 29 85.5 29c39.333 0 69.666 -9.66699 90.999 -29s32 -44.333 32 -75zM1028 1497c0 -28 -10.334 -52.167 -31.001 -72.5s-50.667 -30.5 -90 -30.5
c-38 0 -67.167 10.167 -87.5 30.5s-30.5 44.5 -30.5 72.5c0 30.667 9.83301 55.667 29.5 75s47.834 29 84.501 29c40 0 70.833 -9.66699 92.5 -29s32.5 -44.333 32.5 -75z" />
    <glyph glyph-name="multiply" unicode="&#xd7;" horiz-adv-x="1034" 
d="M817 137l-299 297l-299 -297l-117 119l295 299l-295 297l117 121l299 -299l299 299l117 -121l-295 -297l295 -299z" />
    <glyph glyph-name="Oslash" unicode="&#xd8;" horiz-adv-x="1450" 
d="M731 1147c-62.667 0 -119.502 -12.166 -170.502 -36.499s-94.5 -58.5 -130.5 -102.5s-63.833 -96.833 -83.5 -158.5s-29.5 -129.834 -29.5 -204.501c0 -62.667 5.83301 -120.167 17.5 -172.5s29.834 -98.5 54.501 -138.5l143 188.5l141 187l140 187l141 188.5
c-30.667 20.667 -64.167 36.167 -100.5 46.5s-77.166 15.5 -122.499 15.5zM1133 643.001c0 66 -5.49805 125.834 -16.498 179.501s-28.833 100.5 -53.5 140.5l-143 -188l-141 -186l-140 -186l-141 -188c32 -22.667 66 -39.667 102 -51s75.667 -17 119 -17
c65.333 0 123.666 11.167 174.999 33.5s94.666 54.666 129.999 96.999s62.333 94.333 81 156s28 131.5 28 209.5zM295 -52.998l-197 -0.000976562l170 223c-48 58 -85.833 126.5 -113.5 205.5s-41.5 164.833 -41.5 257.5c0 102.667 14.167 195.834 42.5 279.501
s69.5 155 123.5 214s119.833 104.5 197.5 136.5s165.834 48 264.501 48c60.667 0 118.167 -7.33301 172.5 -22s103.5 -36 147.5 -64l92 123h199l-170 -228c48 -56.667 85.5 -124 112.5 -202s40.5 -162.667 40.5 -254c0 -104.667 -14.167 -199.167 -42.5 -283.5
s-69 -156 -122 -215s-117.5 -104.333 -193.5 -136s-162 -47.5 -258 -47.5c-64.667 0 -124.834 7.33301 -180.501 22s-105.5 36 -149.5 64z" />
    <glyph glyph-name="Ugrave" unicode="&#xd9;" horiz-adv-x="1393" 
d="M705 143c48.667 0 93.001 7.50098 133.001 22.501s74.167 37.333 102.5 67s50.333 67 66 112s23.5 97.5 23.5 157.5v792h195v-768c0 -91.333 -12.333 -171.333 -37 -240s-60.334 -125.834 -107.001 -171.501s-103.334 -80 -170.001 -103s-141.667 -34.5 -225 -34.5
c-79.333 0 -150.833 11.167 -214.5 33.5s-118 55.666 -163 99.999s-79.667 99.5 -104 165.5s-36.5 142.667 -36.5 230v788h197v-780c0 -61.333 8 -115.166 24 -161.499s38.833 -85 68.5 -116s65.334 -54.333 107.001 -70s88.5 -23.5 140.5 -23.5zM863.001 1380
l-100.999 -0.000976562c-22.667 14 -47.834 32.5 -75.501 55.5l-81.5 71c-26.667 24.333 -50.667 47.833 -72 70.5s-37 41 -47 55v15h215l34.5 -61c13 -22.667 26.667 -45.167 41 -67.5s29 -43.666 44 -63.999s29.167 -37.5 42.5 -51.5v-23z" />
    <glyph glyph-name="Uacute" unicode="&#xda;" horiz-adv-x="1393" 
d="M705 143c48.667 0 93.001 7.50098 133.001 22.501s74.167 37.333 102.5 67s50.333 67 66 112s23.5 97.5 23.5 157.5v792h195v-768c0 -91.333 -12.333 -171.333 -37 -240s-60.334 -125.834 -107.001 -171.501s-103.334 -80 -170.001 -103s-141.667 -34.5 -225 -34.5
c-79.333 0 -150.833 11.167 -214.5 33.5s-118 55.666 -163 99.999s-79.667 99.5 -104 165.5s-36.5 142.667 -36.5 230v788h197v-780c0 -61.333 8 -115.166 24 -161.499s38.833 -85 68.5 -116s65.334 -54.333 107.001 -70s88.5 -23.5 140.5 -23.5zM586.001 1403
c13.333 14 27.5 31.168 42.5 51.501s29.667 41.666 44 63.999s28 44.833 41 67.5l34.5 61h215v-15c-6.66699 -9.33301 -16 -20.666 -28 -33.999l-41 -43.5c-15.333 -15.667 -32 -31.834 -50 -48.501s-36.167 -32.667 -54.5 -48l-54 -43.5
c-17.667 -13.667 -34.167 -25.167 -49.5 -34.5h-100v23z" />
    <glyph glyph-name="Ucircumflex" unicode="&#xdb;" horiz-adv-x="1393" 
d="M705 143c48.667 0 93.001 7.50098 133.001 22.501s74.167 37.333 102.5 67s50.333 67 66 112s23.5 97.5 23.5 157.5v792h195v-768c0 -91.333 -12.333 -171.333 -37 -240s-60.334 -125.834 -107.001 -171.501s-103.334 -80 -170.001 -103s-141.667 -34.5 -225 -34.5
c-79.333 0 -150.833 11.167 -214.5 33.5s-118 55.666 -163 99.999s-79.667 99.5 -104 165.5s-36.5 142.667 -36.5 230v788h197v-780c0 -61.333 8 -115.166 24 -161.499s38.833 -85 68.5 -116s65.334 -54.333 107.001 -70s88.5 -23.5 140.5 -23.5zM1011 1380h-100
c-14 8 -30.333 17.833 -49 29.5l-57 36.5l-56 38l-47 34l-48 -34.5c-18 -13 -36.667 -25.833 -56 -38.5l-56.5 -36l-48.5 -29h-100v21c14.667 14 31 31.167 49 51.5l54.5 64.5l53 68c17 22.667 31.833 43.334 44.5 62.001h219c12 -18.667 26.333 -39.334 43 -62.001
l52.5 -68l54.5 -64.5c18 -20.333 34 -37.5 48 -51.5v-21z" />
    <glyph glyph-name="Udieresis" unicode="&#xdc;" horiz-adv-x="1393" 
d="M705 143c48.667 0 93.001 7.50098 133.001 22.501s74.167 37.333 102.5 67s50.333 67 66 112s23.5 97.5 23.5 157.5v792h195v-768c0 -91.333 -12.333 -171.333 -37 -240s-60.334 -125.834 -107.001 -171.501s-103.334 -80 -170.001 -103s-141.667 -34.5 -225 -34.5
c-79.333 0 -150.833 11.167 -214.5 33.5s-118 55.666 -163 99.999s-79.667 99.5 -104 165.5s-36.5 142.667 -36.5 230v788h197v-780c0 -61.333 8 -115.166 24 -161.499s38.833 -85 68.5 -116s65.334 -54.333 107.001 -70s88.5 -23.5 140.5 -23.5zM647.001 1497
c0 -28 -10.333 -52.167 -31 -72.5s-50.667 -30.5 -90 -30.5c-37.333 0 -66.166 10.167 -86.499 30.5s-30.5 44.5 -30.5 72.5c0 30.667 9.83301 55.667 29.5 75s48.167 29 85.5 29c39.333 0 69.666 -9.66699 90.999 -29s32 -44.333 32 -75zM997.001 1497
c0 -28 -10.334 -52.167 -31.001 -72.5s-50.667 -30.5 -90 -30.5c-38 0 -67.167 10.167 -87.5 30.5s-30.5 44.5 -30.5 72.5c0 30.667 9.83301 55.667 29.5 75s47.834 29 84.501 29c40 0 70.833 -9.66699 92.5 -29s32.5 -44.333 32.5 -75z" />
    <glyph glyph-name="Yacute" unicode="&#xdd;" horiz-adv-x="1077" 
d="M1079 1294l-441.999 -749v-545h-197v539l-442 755h219l270 -483c4 -6.66699 8.33301 -14.667 13 -24l14.5 -29c5 -10 9.83301 -20.167 14.5 -30.5l12 -27.5l11 28l12.5 30c4.33301 10 8.66602 19.5 12.999 28.5s8.5 16.5 12.5 22.5l282 485h207zM434.001 1403
c13.333 14 27.5 31.168 42.5 51.501s29.667 41.666 44 63.999s28 44.833 41 67.5l34.5 61h215v-15c-6.66699 -9.33301 -16 -20.666 -28 -33.999l-41 -43.5c-15.333 -15.667 -32 -31.834 -50 -48.501s-36.167 -32.667 -54.5 -48l-54 -43.5
c-17.667 -13.667 -34.167 -25.167 -49.5 -34.5h-100v23z" />
    <glyph glyph-name="Thorn" unicode="&#xde;" horiz-adv-x="1049" 
d="M758 672c0 34 -5.83301 63.333 -17.5 88s-30.167 45 -55.5 61s-57.833 27.833 -97.5 35.5s-87.5 11.5 -143.5 11.5h-69v-432h63c100.667 0 179.167 20.167 235.5 60.5s84.5 98.833 84.5 175.5zM961 682c0 -61.333 -12.167 -117.5 -36.5 -168.5s-60.833 -95 -109.5 -132
s-109.667 -65.667 -183 -86s-159 -30.833 -257 -31.5v-264h-197v1294h197v-260h67c76 0 145.667 -5.83301 209 -17.5s118 -31.167 164 -58.5s81.833 -63.5 107.5 -108.5s38.5 -100.833 38.5 -167.5z" />
    <glyph glyph-name="germandbls" unicode="&#xdf;" horiz-adv-x="1042" 
d="M973 346c0 -54 -8.99805 -103.338 -26.998 -148.005s-43.333 -83 -76 -115s-71.834 -56.833 -117.501 -74.5s-96.5 -26.5 -152.5 -26.5c-66.667 0 -128.667 10 -186 30v160c32 -11.333 61.667 -20.333 89 -27s55 -10 83 -10c29.333 0 55.666 4.83301 78.999 14.5
s43.5 23.5 60.5 41.5s30 39.667 39 65s13.5 53.333 13.5 84c0 39.333 -7.66699 74.333 -23 105s-37.5 57.334 -66.5 80.001s-64 41 -105 55s-87.5 23.333 -139.5 28v148c37.333 5.33301 70.833 14.833 100.5 28.5s54.834 30.834 75.501 51.501s36.5 44.334 47.5 71.001
s16.5 55.334 16.5 86.001c0 48.667 -14 88.167 -42 118.5s-67.333 45.5 -118 45.5c-59.333 0 -104.166 -19.667 -134.499 -59s-45.5 -99.333 -45.5 -180v-918h-190v942c0 56 8.5 106.667 25.5 152s41.5 84 73.5 116s71 56.833 117 74.5s98 26.5 156 26.5
c52 0 99.5 -7 142.5 -21s80 -34.167 111 -60.5s55 -58.166 72 -95.499s25.5 -79.333 25.5 -126c0 -72.667 -16.833 -134.667 -50.5 -186s-81.834 -92 -144.501 -122c95.333 -25.333 167.666 -67.333 216.999 -126s74 -134.667 74 -228z" />
    <glyph glyph-name="agrave" unicode="&#xe0;" horiz-adv-x="958" 
d="M616 377c-15.333 1.33301 -32.3291 2.33301 -50.9961 3s-38.334 1 -59.001 1c-44.667 0 -81.334 -4 -110.001 -12s-51.334 -18.667 -68.001 -32s-28.334 -28.333 -35.001 -45s-10 -34 -10 -52c0 -34 10.167 -61.667 30.5 -83s48.833 -32 85.5 -32
c37.333 0 75.333 8.33301 114 25s73 39 103 67v160zM801.004 -18c-24.667 0 -46.3301 2.49805 -64.9971 7.49805s-34.667 12 -48 21s-24.5 19.833 -33.5 32.5s-16.167 27 -21.5 43c-32 -29.333 -69.667 -54 -113 -74s-95 -30 -155 -30c-46.667 0 -87.5 6.33301 -122.5 19
s-64 30.334 -87 53.001s-40.333 49.167 -52 79.5s-17.5 63.5 -17.5 99.5c0 89.333 34.167 157.833 102.5 205.5s169.5 71.5 303.5 71.5c20 0 39.833 -0.5 59.5 -1.5s41.167 -2.5 64.5 -4.5c0 60.667 -12.667 107.167 -38 139.5s-67 48.5 -125 48.5
c-41.333 0 -83.5 -5.16699 -126.5 -15.5s-85.5 -24.166 -127.5 -41.499v149c36.667 17.333 78.5 31 125.5 41s92.5 15 136.5 15c56.667 0 106.667 -5.5 150 -16.5s79.666 -29.333 108.999 -55s51.5 -59.5 66.5 -101.5s22.5 -93.667 22.5 -155v-317
c0 -24 6.16699 -41.667 18.5 -53s25.166 -17 38.499 -17s25.666 0.5 36.999 1.5s24.333 3.16699 39 6.5v-115c-16.667 -12 -37.167 -21 -61.5 -27s-50.833 -9 -79.5 -9zM572.008 917.998l-105.001 0.00195312c-14 11.333 -29.667 25.166 -47 41.499
s-34.833 33.833 -52.5 52.5l-53 58l-49.5 58.5l-41.5 53c-12.333 16.333 -21.833 30.166 -28.5 41.499v14h217l34.5 -72.5l41 -82c14.333 -27.667 28.833 -54 43.5 -79s28.334 -46.167 41.001 -63.5v-22z" />
    <glyph glyph-name="aacute" unicode="&#xe1;" horiz-adv-x="958" 
d="M616 377c-15.333 1.33301 -32.3291 2.33301 -50.9961 3s-38.334 1 -59.001 1c-44.667 0 -81.334 -4 -110.001 -12s-51.334 -18.667 -68.001 -32s-28.334 -28.333 -35.001 -45s-10 -34 -10 -52c0 -34 10.167 -61.667 30.5 -83s48.833 -32 85.5 -32
c37.333 0 75.333 8.33301 114 25s73 39 103 67v160zM801.004 -18c-24.667 0 -46.3301 2.49805 -64.9971 7.49805s-34.667 12 -48 21s-24.5 19.833 -33.5 32.5s-16.167 27 -21.5 43c-32 -29.333 -69.667 -54 -113 -74s-95 -30 -155 -30c-46.667 0 -87.5 6.33301 -122.5 19
s-64 30.334 -87 53.001s-40.333 49.167 -52 79.5s-17.5 63.5 -17.5 99.5c0 89.333 34.167 157.833 102.5 205.5s169.5 71.5 303.5 71.5c20 0 39.833 -0.5 59.5 -1.5s41.167 -2.5 64.5 -4.5c0 60.667 -12.667 107.167 -38 139.5s-67 48.5 -125 48.5
c-41.333 0 -83.5 -5.16699 -126.5 -15.5s-85.5 -24.166 -127.5 -41.499v149c36.667 17.333 78.5 31 125.5 41s92.5 15 136.5 15c56.667 0 106.667 -5.5 150 -16.5s79.666 -29.333 108.999 -55s51.5 -59.5 66.5 -101.5s22.5 -93.667 22.5 -155v-317
c0 -24 6.16699 -41.667 18.5 -53s25.166 -17 38.499 -17s25.666 0.5 36.999 1.5s24.333 3.16699 39 6.5v-115c-16.667 -12 -37.167 -21 -61.5 -27s-50.833 -9 -79.5 -9zM365.008 939.998c12.667 17.333 26.333 38.498 41 63.498s29.167 51.333 43.5 79l41 82l34.5 72.5h217
v-14c-6.66699 -11.333 -16.167 -25.166 -28.5 -41.499l-41.5 -53l-49.5 -58.5l-53.5 -58l-52.5 -52.5c-17 -16.333 -32.833 -30.166 -47.5 -41.499h-104v22z" />
    <glyph glyph-name="acircumflex" unicode="&#xe2;" horiz-adv-x="958" 
d="M616 377c-15.333 1.33301 -32.3291 2.33301 -50.9961 3s-38.334 1 -59.001 1c-44.667 0 -81.334 -4 -110.001 -12s-51.334 -18.667 -68.001 -32s-28.334 -28.333 -35.001 -45s-10 -34 -10 -52c0 -34 10.167 -61.667 30.5 -83s48.833 -32 85.5 -32
c37.333 0 75.333 8.33301 114 25s73 39 103 67v160zM801.004 -18c-24.667 0 -46.3301 2.49805 -64.9971 7.49805s-34.667 12 -48 21s-24.5 19.833 -33.5 32.5s-16.167 27 -21.5 43c-32 -29.333 -69.667 -54 -113 -74s-95 -30 -155 -30c-46.667 0 -87.5 6.33301 -122.5 19
s-64 30.334 -87 53.001s-40.333 49.167 -52 79.5s-17.5 63.5 -17.5 99.5c0 89.333 34.167 157.833 102.5 205.5s169.5 71.5 303.5 71.5c20 0 39.833 -0.5 59.5 -1.5s41.167 -2.5 64.5 -4.5c0 60.667 -12.667 107.167 -38 139.5s-67 48.5 -125 48.5
c-41.333 0 -83.5 -5.16699 -126.5 -15.5s-85.5 -24.166 -127.5 -41.499v149c36.667 17.333 78.5 31 125.5 41s92.5 15 136.5 15c56.667 0 106.667 -5.5 150 -16.5s79.666 -29.333 108.999 -55s51.5 -59.5 66.5 -101.5s22.5 -93.667 22.5 -155v-317
c0 -24 6.16699 -41.667 18.5 -53s25.166 -17 38.499 -17s25.666 0.5 36.999 1.5s24.333 3.16699 39 6.5v-115c-16.667 -12 -37.167 -21 -61.5 -27s-50.833 -9 -79.5 -9zM807.008 917.998l-100 0.000976562l-53.5 43l-58 49l-54 49c-17 16 -31.5 30.333 -43.5 43
c-12 -12.667 -26.833 -27.167 -44.5 -43.5l-55 -49.5l-57.5 -49l-52 -42h-100v20c14 17.333 29.833 38.5 47.5 63.5l53.5 78.5l53 82c17.333 27.333 32.333 52.333 45 75h225c13.333 -24.667 28.5 -51.167 45.5 -79.5l51.5 -83c17.333 -27 34.5 -52.333 51.5 -76
s32.167 -43.834 45.5 -60.501v-20z" />
    <glyph glyph-name="atilde" unicode="&#xe3;" horiz-adv-x="958" 
d="M616 377c-15.333 1.33301 -32.3291 2.33301 -50.9961 3s-38.334 1 -59.001 1c-44.667 0 -81.334 -4 -110.001 -12s-51.334 -18.667 -68.001 -32s-28.334 -28.333 -35.001 -45s-10 -34 -10 -52c0 -34 10.167 -61.667 30.5 -83s48.833 -32 85.5 -32
c37.333 0 75.333 8.33301 114 25s73 39 103 67v160zM801.004 -18c-24.667 0 -46.3301 2.49805 -64.9971 7.49805s-34.667 12 -48 21s-24.5 19.833 -33.5 32.5s-16.167 27 -21.5 43c-32 -29.333 -69.667 -54 -113 -74s-95 -30 -155 -30c-46.667 0 -87.5 6.33301 -122.5 19
s-64 30.334 -87 53.001s-40.333 49.167 -52 79.5s-17.5 63.5 -17.5 99.5c0 89.333 34.167 157.833 102.5 205.5s169.5 71.5 303.5 71.5c20 0 39.833 -0.5 59.5 -1.5s41.167 -2.5 64.5 -4.5c0 60.667 -12.667 107.167 -38 139.5s-67 48.5 -125 48.5
c-41.333 0 -83.5 -5.16699 -126.5 -15.5s-85.5 -24.166 -127.5 -41.499v149c36.667 17.333 78.5 31 125.5 41s92.5 15 136.5 15c56.667 0 106.667 -5.5 150 -16.5s79.666 -29.333 108.999 -55s51.5 -59.5 66.5 -101.5s22.5 -93.667 22.5 -155v-317
c0 -24 6.16699 -41.667 18.5 -53s25.166 -17 38.499 -17s25.666 0.5 36.999 1.5s24.333 3.16699 39 6.5v-115c-16.667 -12 -37.167 -21 -61.5 -27s-50.833 -9 -79.5 -9zM598.008 917.998c-26 0 -51.9971 5.66895 -77.9971 17.002s-49.333 22.666 -70 33.999
c-16.667 9.33301 -33.334 18.166 -50.001 26.499s-30 12.5 -40 12.5c-15.333 0 -29 -7.16699 -41 -21.5s-22.333 -38.166 -31 -71.499h-125c7.33301 74 27.666 133.167 60.999 177.5s78.666 66.5 135.999 66.5c28.667 0 54.667 -5.33301 78 -16s46.333 -22.334 69 -35.001
l50.5 -26.5c16.333 -8.33301 29.833 -12.5 40.5 -12.5c16 0 30.5 7 43.5 21s23.5 37 31.5 69h117c-2.66699 -36 -9 -68.833 -19 -98.5s-23.167 -55 -39.5 -76s-35.833 -37.333 -58.5 -49s-47.667 -17.5 -75 -17.5z" />
    <glyph glyph-name="adieresis" unicode="&#xe4;" horiz-adv-x="958" 
d="M616 377c-15.333 1.33301 -32.3291 2.33301 -50.9961 3s-38.334 1 -59.001 1c-44.667 0 -81.334 -4 -110.001 -12s-51.334 -18.667 -68.001 -32s-28.334 -28.333 -35.001 -45s-10 -34 -10 -52c0 -34 10.167 -61.667 30.5 -83s48.833 -32 85.5 -32
c37.333 0 75.333 8.33301 114 25s73 39 103 67v160zM801.004 -18c-24.667 0 -46.3301 2.49805 -64.9971 7.49805s-34.667 12 -48 21s-24.5 19.833 -33.5 32.5s-16.167 27 -21.5 43c-32 -29.333 -69.667 -54 -113 -74s-95 -30 -155 -30c-46.667 0 -87.5 6.33301 -122.5 19
s-64 30.334 -87 53.001s-40.333 49.167 -52 79.5s-17.5 63.5 -17.5 99.5c0 89.333 34.167 157.833 102.5 205.5s169.5 71.5 303.5 71.5c20 0 39.833 -0.5 59.5 -1.5s41.167 -2.5 64.5 -4.5c0 60.667 -12.667 107.167 -38 139.5s-67 48.5 -125 48.5
c-41.333 0 -83.5 -5.16699 -126.5 -15.5s-85.5 -24.166 -127.5 -41.499v149c36.667 17.333 78.5 31 125.5 41s92.5 15 136.5 15c56.667 0 106.667 -5.5 150 -16.5s79.666 -29.333 108.999 -55s51.5 -59.5 66.5 -101.5s22.5 -93.667 22.5 -155v-317
c0 -24 6.16699 -41.667 18.5 -53s25.166 -17 38.499 -17s25.666 0.5 36.999 1.5s24.333 3.16699 39 6.5v-115c-16.667 -12 -37.167 -21 -61.5 -27s-50.833 -9 -79.5 -9zM424.008 1055c0 -28 -10.333 -52.167 -31 -72.5s-50.667 -30.5 -90 -30.5
c-37.333 0 -66.166 10.167 -86.499 30.5s-30.5 44.5 -30.5 72.5c0 30.667 9.83301 55.667 29.5 75s48.167 29 85.5 29c39.333 0 69.666 -9.66699 90.999 -29s32 -44.333 32 -75zM774.008 1055c0 -28 -10.334 -52.167 -31.001 -72.5s-50.667 -30.5 -90 -30.5
c-38 0 -67.167 10.167 -87.5 30.5s-30.5 44.5 -30.5 72.5c0 30.667 9.83301 55.667 29.5 75s47.834 29 84.501 29c40 0 70.833 -9.66699 92.5 -29s32.5 -44.333 32.5 -75z" />
    <glyph glyph-name="aring" unicode="&#xe5;" horiz-adv-x="958" 
d="M616 377c-15.333 1.33301 -32.3291 2.33301 -50.9961 3s-38.334 1 -59.001 1c-44.667 0 -81.334 -4 -110.001 -12s-51.334 -18.667 -68.001 -32s-28.334 -28.333 -35.001 -45s-10 -34 -10 -52c0 -34 10.167 -61.667 30.5 -83s48.833 -32 85.5 -32
c37.333 0 75.333 8.33301 114 25s73 39 103 67v160zM801.004 -18c-24.667 0 -46.3301 2.49805 -64.9971 7.49805s-34.667 12 -48 21s-24.5 19.833 -33.5 32.5s-16.167 27 -21.5 43c-32 -29.333 -69.667 -54 -113 -74s-95 -30 -155 -30c-46.667 0 -87.5 6.33301 -122.5 19
s-64 30.334 -87 53.001s-40.333 49.167 -52 79.5s-17.5 63.5 -17.5 99.5c0 89.333 34.167 157.833 102.5 205.5s169.5 71.5 303.5 71.5c20 0 39.833 -0.5 59.5 -1.5s41.167 -2.5 64.5 -4.5c0 60.667 -12.667 107.167 -38 139.5s-67 48.5 -125 48.5
c-41.333 0 -83.5 -5.16699 -126.5 -15.5s-85.5 -24.166 -127.5 -41.499v149c36.667 17.333 78.5 31 125.5 41s92.5 15 136.5 15c56.667 0 106.667 -5.5 150 -16.5s79.666 -29.333 108.999 -55s51.5 -59.5 66.5 -101.5s22.5 -93.667 22.5 -155v-317
c0 -24 6.16699 -41.667 18.5 -53s25.166 -17 38.499 -17s25.666 0.5 36.999 1.5s24.333 3.16699 39 6.5v-115c-16.667 -12 -37.167 -21 -61.5 -27s-50.833 -9 -79.5 -9zM569.008 1118c0 29.333 -8 52 -24 68s-36.667 24 -62 24c-23.333 0 -43.5 -8 -60.5 -24
s-25.5 -38.667 -25.5 -68c0 -30 7.33301 -53.167 22 -69.5s36 -24.5 64 -24.5c25.333 0 46 8.16699 62 24.5s24 39.5 24 69.5zM709.008 1120c0 -32.667 -5.50098 -62 -16.501 -88s-26.5 -48 -46.5 -66s-43.833 -31.667 -71.5 -41s-58.167 -14 -91.5 -14
c-32.667 0 -62.5 4.66699 -89.5 14s-50.333 23 -70 41s-34.834 39.833 -45.501 65.5s-16 54.5 -16 86.5s5.33301 60.5 16 85.5s25.834 46.167 45.501 63.5s43 30.666 70 39.999s56.833 14 89.5 14s62.834 -4.66699 90.501 -14s51.5 -22.666 71.5 -39.999
s35.667 -38.333 47 -63s17 -52.667 17 -84z" />
    <glyph glyph-name="ae" unicode="&#xe6;" horiz-adv-x="1534" 
d="M365 -18c-46.667 0 -87.5 6.33203 -122.5 18.999s-64 30.334 -87 53.001s-40.333 49.167 -52 79.5s-17.5 63.5 -17.5 99.5c0 89.333 34.167 157.833 102.5 205.5s169.5 71.5 303.5 71.5c20 0 39.833 -0.5 59.5 -1.5s41.167 -2.5 64.5 -4.5
c0 60.667 -12.667 107.167 -38 139.5s-67 48.5 -125 48.5c-41.333 0 -83.5 -5.16699 -126.5 -15.5s-85.5 -24.166 -127.5 -41.499v149c36.667 17.333 78.5 31 125.5 41s92.5 15 136.5 15c68 0 126.167 -8.33301 174.5 -25s87.166 -44 116.499 -82
c36.667 34 80.5 60.333 131.5 79s107.5 28 169.5 28c63.333 0 118.833 -9.16699 166.5 -27.5s87.834 -44.5 120.501 -78.5s57.167 -75.667 73.5 -125s24.5 -105 24.5 -167v-82h-629c3.33301 -34 12.166 -65.5 26.499 -94.5s33.833 -53.833 58.5 -74.5
s53.5 -36.834 86.5 -48.501s69.5 -17.5 109.5 -17.5c23.333 0 48.166 2.16699 74.499 6.5s53.333 10.666 81 18.999s55.334 18.5 83.001 30.5s53.834 26 78.501 42v-151c-50 -29.333 -103.167 -51.666 -159.5 -66.999s-120.5 -23 -192.5 -23
c-80.667 0 -150.667 13.833 -210 41.5s-107.666 67.5 -144.999 119.5c-20.667 -20.667 -42.834 -40.667 -66.501 -60s-49.167 -36.5 -76.5 -51.5s-57 -27 -89 -36s-66.333 -13.5 -103 -13.5zM506 380.999c-44.667 0 -81.3311 -3.99805 -109.998 -11.998
s-51.334 -18.667 -68.001 -32s-28.334 -28.333 -35.001 -45s-10 -34 -10 -52c0 -34 10.167 -61.667 30.5 -83s48.833 -32 85.5 -32c18 0 38.167 3.16699 60.5 9.5s45 14.666 68 24.999s45 22.666 66 36.999s39.5 29.5 55.5 45.5c-7.33301 20.667 -13 42.167 -17 64.5
s-7 45.833 -9 70.5c-15.333 1.33301 -33.833 2.33301 -55.5 3s-42.167 1 -61.5 1zM1051 690.001c-64 0 -116.333 -16.167 -157 -48.5s-67.667 -79.5 -81 -141.5h434c-3.33301 62 -22 109.167 -56 141.5s-80.667 48.5 -140 48.5z" />
    <glyph glyph-name="ccedilla" unicode="&#xe7;" horiz-adv-x="899" 
d="M291 401c0 -46.667 6.49902 -86.834 19.499 -120.501s30.167 -61.334 51.5 -83.001s46.166 -37.5 74.499 -47.5s57.5 -15 87.5 -15c59.333 0 111.833 8.5 157.5 25.5s89.5 37.833 131.5 62.5v-157c-40 -27.333 -85 -48.166 -135 -62.499s-107.333 -21.5 -172 -21.5
c-60 0 -115.167 9.5 -165.5 28.5s-93.5 46.667 -129.5 83s-64.167 80.5 -84.5 132.5s-30.5 111 -30.5 177c0 72 12 135.167 36 189.5s56.333 99.833 97 136.5s88.334 64.334 143.001 83.001s112.334 28 173.001 28c44 0 89.833 -5.5 137.5 -16.5s91.167 -28.833 130.5 -53.5
v-166c-42 26.667 -85.167 47 -129.5 61s-90.5 21 -138.5 21c-34 0 -66.5 -5.16699 -97.5 -15.5s-58 -27 -81 -50s-41.333 -52.5 -55 -88.5s-20.5 -79.667 -20.5 -131zM681.999 -213c0 -56.667 -18.8311 -100.833 -56.498 -132.5s-98.5 -47.5 -182.5 -47.5
c-17.333 0 -36.333 1.16699 -57 3.5s-37.334 5.16602 -50.001 8.49902v123c12.667 -3.33301 28.5 -6.16602 47.5 -8.49902s34.5 -3.5 46.5 -3.5c28 0 50 4.33301 66 13s24 22.667 24 42c0 20.667 -12.667 38.167 -38 52.5s-61 23.5 -107 27.5l88 170h145l-49 -101
c17.333 -5.33301 33.333 -12 48 -20s27.667 -17.833 39 -29.5s20.166 -25.667 26.499 -42s9.5 -34.833 9.5 -55.5z" />
    <glyph glyph-name="egrave" unicode="&#xe8;" horiz-adv-x="1008" 
d="M524 690c-64 0 -116.168 -16.167 -156.501 -48.5s-67.166 -79.5 -80.499 -141.5h434c-3.33301 62 -22 109.167 -56 141.5s-81 48.5 -141 48.5zM95.999 416c0 63.333 10.3301 121.17 30.9971 173.503s49.834 97 87.501 134s82.834 65.667 135.501 86
s111.334 30.5 176.001 30.5c63.333 0 118.833 -9.16699 166.5 -27.5s87.834 -44.5 120.501 -78.5s57.167 -75.667 73.5 -125s24.5 -105 24.5 -167v-82h-628c3.33301 -34 12.166 -65.5 26.499 -94.5s33.666 -53.833 57.999 -74.5s53 -36.834 86 -48.501
s69.5 -17.5 109.5 -17.5c23.333 0 48.166 2.16699 74.499 6.5s53.333 10.666 81 18.999s55.334 18.5 83.001 30.5s54.167 26 79.5 42v-151c-50.667 -28.667 -104.167 -50.834 -160.5 -66.501s-120.5 -23.5 -192.5 -23.5c-66.667 0 -126.667 9.83301 -180 29.5
s-98.666 48.167 -135.999 85.5s-66 82.833 -86 136.5s-30 114.5 -30 182.5zM661.996 918.004l-105.001 0.00195312c-14 11.333 -29.667 25.166 -47 41.499s-34.833 33.833 -52.5 52.5l-53 58l-49.5 58.5l-41.5 53c-12.333 16.333 -21.833 30.166 -28.5 41.499v14h217
l34.5 -72.5l41 -82c14.333 -27.667 28.833 -54 43.5 -79s28.334 -46.167 41.001 -63.5v-22z" />
    <glyph glyph-name="eacute" unicode="&#xe9;" horiz-adv-x="1008" 
d="M524 690c-64 0 -116.168 -16.167 -156.501 -48.5s-67.166 -79.5 -80.499 -141.5h434c-3.33301 62 -22 109.167 -56 141.5s-81 48.5 -141 48.5zM95.999 416c0 63.333 10.3301 121.17 30.9971 173.503s49.834 97 87.501 134s82.834 65.667 135.501 86
s111.334 30.5 176.001 30.5c63.333 0 118.833 -9.16699 166.5 -27.5s87.834 -44.5 120.501 -78.5s57.167 -75.667 73.5 -125s24.5 -105 24.5 -167v-82h-628c3.33301 -34 12.166 -65.5 26.499 -94.5s33.666 -53.833 57.999 -74.5s53 -36.834 86 -48.501
s69.5 -17.5 109.5 -17.5c23.333 0 48.166 2.16699 74.499 6.5s53.333 10.666 81 18.999s55.334 18.5 83.001 30.5s54.167 26 79.5 42v-151c-50.667 -28.667 -104.167 -50.834 -160.5 -66.501s-120.5 -23.5 -192.5 -23.5c-66.667 0 -126.667 9.83301 -180 29.5
s-98.666 48.167 -135.999 85.5s-66 82.833 -86 136.5s-30 114.5 -30 182.5zM419.996 940.004c12.667 17.333 26.333 38.498 41 63.498s29.167 51.333 43.5 79l41 82l34.5 72.5h217v-14c-6.66699 -11.333 -16.167 -25.166 -28.5 -41.499l-41.5 -53l-49.5 -58.5l-53.5 -58
l-52.5 -52.5c-17 -16.333 -32.833 -30.166 -47.5 -41.499h-104v22z" />
    <glyph glyph-name="ecircumflex" unicode="&#xea;" horiz-adv-x="1008" 
d="M524 690c-64 0 -116.168 -16.167 -156.501 -48.5s-67.166 -79.5 -80.499 -141.5h434c-3.33301 62 -22 109.167 -56 141.5s-81 48.5 -141 48.5zM95.999 416c0 63.333 10.3301 121.17 30.9971 173.503s49.834 97 87.501 134s82.834 65.667 135.501 86
s111.334 30.5 176.001 30.5c63.333 0 118.833 -9.16699 166.5 -27.5s87.834 -44.5 120.501 -78.5s57.167 -75.667 73.5 -125s24.5 -105 24.5 -167v-82h-628c3.33301 -34 12.166 -65.5 26.499 -94.5s33.666 -53.833 57.999 -74.5s53 -36.834 86 -48.501
s69.5 -17.5 109.5 -17.5c23.333 0 48.166 2.16699 74.499 6.5s53.333 10.666 81 18.999s55.334 18.5 83.001 30.5s54.167 26 79.5 42v-151c-50.667 -28.667 -104.167 -50.834 -160.5 -66.501s-120.5 -23.5 -192.5 -23.5c-66.667 0 -126.667 9.83301 -180 29.5
s-98.666 48.167 -135.999 85.5s-66 82.833 -86 136.5s-30 114.5 -30 182.5zM842.996 918.004l-100 0.000976562l-53.5 43l-58 49l-54 49c-17 16 -31.5 30.333 -43.5 43c-12 -12.667 -26.833 -27.167 -44.5 -43.5l-55 -49.5l-57.5 -49l-52 -42h-100v20
c14 17.333 29.833 38.5 47.5 63.5l53.5 78.5l53 82c17.333 27.333 32.333 52.333 45 75h225c13.333 -24.667 28.5 -51.167 45.5 -79.5l51.5 -83c17.333 -27 34.5 -52.333 51.5 -76s32.167 -43.834 45.5 -60.501v-20z" />
    <glyph glyph-name="edieresis" unicode="&#xeb;" horiz-adv-x="1008" 
d="M524 690c-64 0 -116.168 -16.167 -156.501 -48.5s-67.166 -79.5 -80.499 -141.5h434c-3.33301 62 -22 109.167 -56 141.5s-81 48.5 -141 48.5zM95.999 416c0 63.333 10.3301 121.17 30.9971 173.503s49.834 97 87.501 134s82.834 65.667 135.501 86
s111.334 30.5 176.001 30.5c63.333 0 118.833 -9.16699 166.5 -27.5s87.834 -44.5 120.501 -78.5s57.167 -75.667 73.5 -125s24.5 -105 24.5 -167v-82h-628c3.33301 -34 12.166 -65.5 26.499 -94.5s33.666 -53.833 57.999 -74.5s53 -36.834 86 -48.501
s69.5 -17.5 109.5 -17.5c23.333 0 48.166 2.16699 74.499 6.5s53.333 10.666 81 18.999s55.334 18.5 83.001 30.5s54.167 26 79.5 42v-151c-50.667 -28.667 -104.167 -50.834 -160.5 -66.501s-120.5 -23.5 -192.5 -23.5c-66.667 0 -126.667 9.83301 -180 29.5
s-98.666 48.167 -135.999 85.5s-66 82.833 -86 136.5s-30 114.5 -30 182.5zM480.996 1055c0 -28 -10.333 -52.167 -31 -72.5s-50.667 -30.5 -90 -30.5c-37.333 0 -66.166 10.167 -86.499 30.5s-30.5 44.5 -30.5 72.5c0 30.667 9.83301 55.667 29.5 75s48.167 29 85.5 29
c39.333 0 69.666 -9.66699 90.999 -29s32 -44.333 32 -75zM830.996 1055c0 -28 -10.334 -52.167 -31.001 -72.5s-50.667 -30.5 -90 -30.5c-38 0 -67.167 10.167 -87.5 30.5s-30.5 44.5 -30.5 72.5c0 30.667 9.83301 55.667 29.5 75s47.834 29 84.501 29
c40 0 70.833 -9.66699 92.5 -29s32.5 -44.333 32.5 -75z" />
    <glyph glyph-name="igrave" unicode="&#xec;" horiz-adv-x="500" 
d="M346 0h-192v821h192v-821zM345 918l-105.001 0.00195312c-14 11.333 -29.667 25.166 -47 41.499s-34.833 33.833 -52.5 52.5l-53 58l-49.5 58.5l-41.5 53c-12.333 16.333 -21.833 30.166 -28.5 41.499v14h217l34.5 -72.5l41 -82c14.333 -27.667 28.833 -54 43.5 -79
s28.334 -46.167 41.001 -63.5v-22z" />
    <glyph glyph-name="iacute" unicode="&#xed;" horiz-adv-x="500" 
d="M346 0h-192v821h192v-821zM152 940c12.667 17.333 26.333 38.498 41 63.498s29.167 51.333 43.5 79l41 82l34.5 72.5h217v-14c-6.66699 -11.333 -16.167 -25.166 -28.5 -41.499l-41.5 -53l-49.5 -58.5l-53.5 -58l-52.5 -52.5c-17 -16.333 -32.833 -30.166 -47.5 -41.499
h-104v22z" />
    <glyph glyph-name="icircumflex" unicode="&#xee;" horiz-adv-x="500" 
d="M346 0h-192v821h192v-821zM558 918l-100 0.000976562l-53.5 43l-58 49l-54 49c-17 16 -31.5 30.333 -43.5 43c-12 -12.667 -26.833 -27.167 -44.5 -43.5l-55 -49.5l-57.5 -49l-52 -42h-100v20c14 17.333 29.833 38.5 47.5 63.5l53.5 78.5l53 82
c17.333 27.333 32.333 52.333 45 75h225c13.333 -24.667 28.5 -51.167 45.5 -79.5l51.5 -83c17.333 -27 34.5 -52.333 51.5 -76s32.167 -43.834 45.5 -60.501v-20z" />
    <glyph glyph-name="idieresis" unicode="&#xef;" horiz-adv-x="500" 
d="M346 0h-192v821h192v-821zM194 1055c0 -28 -10.333 -52.167 -31 -72.5s-50.667 -30.5 -90 -30.5c-37.333 0 -66.166 10.167 -86.499 30.5s-30.5 44.5 -30.5 72.5c0 30.667 9.83301 55.667 29.5 75s48.167 29 85.5 29c39.333 0 69.666 -9.66699 90.999 -29
s32 -44.333 32 -75zM544 1055c0 -28 -10.334 -52.167 -31.001 -72.5s-50.667 -30.5 -90 -30.5c-38 0 -67.167 10.167 -87.5 30.5s-30.5 44.5 -30.5 72.5c0 30.667 9.83301 55.667 29.5 75s47.834 29 84.501 29c40 0 70.833 -9.66699 92.5 -29s32.5 -44.333 32.5 -75z" />
    <glyph glyph-name="eth" unicode="&#xf0;" horiz-adv-x="1075" 
d="M774 479c0 25.333 -0.669922 50.166 -2.00293 74.499s-4 42.5 -8 54.5c-13.333 12.667 -29.166 24 -47.499 34s-37.5 18.333 -57.5 25s-40.5 11.834 -61.5 15.501s-40.5 5.5 -58.5 5.5c-77.333 0 -137.666 -23.667 -180.999 -71s-65 -116.333 -65 -207
c0 -87.333 21.167 -155.333 63.5 -204s100.833 -73 175.5 -73c38.667 0 73 8.33301 103 25s55.333 40.334 76 71.001s36.334 67.167 47.001 109.5s16 89.166 16 140.499zM966.997 508c0 -82.667 -10.335 -156.5 -31.002 -221.5s-50 -120 -88 -165
s-84.167 -79.5 -138.5 -103.5s-115.5 -36 -183.5 -36c-65.333 0 -124.5 10 -177.5 30s-98.167 48.167 -135.5 84.5s-66.166 80.5 -86.499 132.5s-30.5 110 -30.5 174c0 68.667 10 130 30 184s48.5 99.833 85.5 137.5s81.833 66.334 134.5 86.001s111.334 29.5 176.001 29.5
c37.333 0 74 -3.5 110 -10.5s66.333 -16.5 91 -28.5c-32.667 83.333 -82.667 157.666 -150 222.999l-73 -37.5l-79 -39l-78.5 -39l-72.5 -36.5v150l185 88c-27.333 15.333 -53 28.5 -77 39.5l-73 32.5v137c60 -14.667 115.5 -32.834 166.5 -54.501s97.167 -46.5 138.5 -74.5
l65 31.5l70.5 33.5l69.5 33.5l62 30.5v-145l-152 -72c74.667 -72 133.667 -157.167 177 -255.5s65 -211.166 65 -338.499z" />
    <glyph glyph-name="ntilde" unicode="&#xf1;" horiz-adv-x="1030" 
d="M895 0h-192.999v508c0 58 -11.833 102.5 -35.5 133.5s-59.5 46.5 -107.5 46.5c-21.333 0 -42.166 -2.66699 -62.499 -8s-39.5 -12.5 -57.5 -21.5s-34.833 -19 -50.5 -30s-29.834 -22.5 -42.501 -34.5v-594h-192v821h186l6 -82c14 13.333 29.667 26 47 38
s36.5 22.667 57.5 32s43.667 16.833 68 22.5s50.166 8.5 77.499 8.5c102 0 177.333 -27.333 226 -82s73 -134 73 -238v-520zM658.001 918c-26 0 -51.9971 5.66895 -77.9971 17.002s-49.333 22.666 -70 33.999c-16.667 9.33301 -33.334 18.166 -50.001 26.499
s-30 12.5 -40 12.5c-15.333 0 -29 -7.16699 -41 -21.5s-22.333 -38.166 -31 -71.499h-125c7.33301 74 27.666 133.167 60.999 177.5s78.666 66.5 135.999 66.5c28.667 0 54.667 -5.33301 78 -16s46.333 -22.334 69 -35.001l50.5 -26.5
c16.333 -8.33301 29.833 -12.5 40.5 -12.5c16 0 30.5 7 43.5 21s23.5 37 31.5 69h117c-2.66699 -36 -9 -68.833 -19 -98.5s-23.167 -55 -39.5 -76s-35.833 -37.333 -58.5 -49s-47.667 -17.5 -75 -17.5z" />
    <glyph glyph-name="ograve" unicode="&#xf2;" horiz-adv-x="1063" 
d="M774 414c0 90.667 -19.999 159 -59.999 205s-98.333 69 -175 69c-77.333 0 -137.666 -23.667 -180.999 -71s-65 -116.333 -65 -207c0 -43.333 5.66699 -82.166 17 -116.499s27.666 -63.333 48.999 -87s47.166 -41.834 77.499 -54.501s64.5 -19 102.5 -19
c76.667 0 135 24 175 72s60 117.667 60 209zM967.001 414c0 -64.667 -10.335 -123.665 -31.002 -176.998s-50 -98.833 -88 -136.5s-84.167 -66.834 -138.5 -87.501s-115.5 -31 -183.5 -31c-65.333 0 -124.5 10 -177.5 30s-98.167 48.167 -135.5 84.5
s-66.166 80.5 -86.499 132.5s-30.5 110 -30.5 174c0 68.667 10.333 130 31 184s50.5 99.833 89.5 137.5s86.333 66.334 142 86.001s118.5 29.5 188.5 29.5c67.333 0 127 -9.66699 179 -29s95.833 -47.333 131.5 -84s62.834 -81.334 81.501 -134.001s28 -112.334 28 -179.001
zM665.999 918.002l-105.001 0.00195312c-14 11.333 -29.667 25.166 -47 41.499s-34.833 33.833 -52.5 52.5l-53 58l-49.5 58.5l-41.5 53c-12.333 16.333 -21.833 30.166 -28.5 41.499v14h217l34.5 -72.5l41 -82c14.333 -27.667 28.833 -54 43.5 -79
s28.334 -46.167 41.001 -63.5v-22z" />
    <glyph glyph-name="oacute" unicode="&#xf3;" horiz-adv-x="1063" 
d="M774 414c0 90.667 -19.999 159 -59.999 205s-98.333 69 -175 69c-77.333 0 -137.666 -23.667 -180.999 -71s-65 -116.333 -65 -207c0 -43.333 5.66699 -82.166 17 -116.499s27.666 -63.333 48.999 -87s47.166 -41.834 77.499 -54.501s64.5 -19 102.5 -19
c76.667 0 135 24 175 72s60 117.667 60 209zM967.001 414c0 -64.667 -10.335 -123.665 -31.002 -176.998s-50 -98.833 -88 -136.5s-84.167 -66.834 -138.5 -87.501s-115.5 -31 -183.5 -31c-65.333 0 -124.5 10 -177.5 30s-98.167 48.167 -135.5 84.5
s-66.166 80.5 -86.499 132.5s-30.5 110 -30.5 174c0 68.667 10.333 130 31 184s50.5 99.833 89.5 137.5s86.333 66.334 142 86.001s118.5 29.5 188.5 29.5c67.333 0 127 -9.66699 179 -29s95.833 -47.333 131.5 -84s62.834 -81.334 81.501 -134.001s28 -112.334 28 -179.001
zM425.999 940.002c12.667 17.333 26.333 38.498 41 63.498s29.167 51.333 43.5 79l41 82l34.5 72.5h217v-14c-6.66699 -11.333 -16.167 -25.166 -28.5 -41.499l-41.5 -53l-49.5 -58.5l-53.5 -58l-52.5 -52.5c-17 -16.333 -32.833 -30.166 -47.5 -41.499h-104v22z" />
    <glyph glyph-name="ocircumflex" unicode="&#xf4;" horiz-adv-x="1063" 
d="M774 414c0 90.667 -19.999 159 -59.999 205s-98.333 69 -175 69c-77.333 0 -137.666 -23.667 -180.999 -71s-65 -116.333 -65 -207c0 -43.333 5.66699 -82.166 17 -116.499s27.666 -63.333 48.999 -87s47.166 -41.834 77.499 -54.501s64.5 -19 102.5 -19
c76.667 0 135 24 175 72s60 117.667 60 209zM967.001 414c0 -64.667 -10.335 -123.665 -31.002 -176.998s-50 -98.833 -88 -136.5s-84.167 -66.834 -138.5 -87.501s-115.5 -31 -183.5 -31c-65.333 0 -124.5 10 -177.5 30s-98.167 48.167 -135.5 84.5
s-66.166 80.5 -86.499 132.5s-30.5 110 -30.5 174c0 68.667 10.333 130 31 184s50.5 99.833 89.5 137.5s86.333 66.334 142 86.001s118.5 29.5 188.5 29.5c67.333 0 127 -9.66699 179 -29s95.833 -47.333 131.5 -84s62.834 -81.334 81.501 -134.001s28 -112.334 28 -179.001
zM842.999 918.002l-100 0.000976562l-53.5 43l-58 49l-54 49c-17 16 -31.5 30.333 -43.5 43c-12 -12.667 -26.833 -27.167 -44.5 -43.5l-55 -49.5l-57.5 -49l-52 -42h-100v20c14 17.333 29.833 38.5 47.5 63.5l53.5 78.5l53 82c17.333 27.333 32.333 52.333 45 75h225
c13.333 -24.667 28.5 -51.167 45.5 -79.5l51.5 -83c17.333 -27 34.5 -52.333 51.5 -76s32.167 -43.834 45.5 -60.501v-20z" />
    <glyph glyph-name="otilde" unicode="&#xf5;" horiz-adv-x="1063" 
d="M774 414c0 90.667 -19.999 159 -59.999 205s-98.333 69 -175 69c-77.333 0 -137.666 -23.667 -180.999 -71s-65 -116.333 -65 -207c0 -43.333 5.66699 -82.166 17 -116.499s27.666 -63.333 48.999 -87s47.166 -41.834 77.499 -54.501s64.5 -19 102.5 -19
c76.667 0 135 24 175 72s60 117.667 60 209zM967.001 414c0 -64.667 -10.335 -123.665 -31.002 -176.998s-50 -98.833 -88 -136.5s-84.167 -66.834 -138.5 -87.501s-115.5 -31 -183.5 -31c-65.333 0 -124.5 10 -177.5 30s-98.167 48.167 -135.5 84.5
s-66.166 80.5 -86.499 132.5s-30.5 110 -30.5 174c0 68.667 10.333 130 31 184s50.5 99.833 89.5 137.5s86.333 66.334 142 86.001s118.5 29.5 188.5 29.5c67.333 0 127 -9.66699 179 -29s95.833 -47.333 131.5 -84s62.834 -81.334 81.501 -134.001s28 -112.334 28 -179.001
zM657.999 918.002c-26 0 -51.9971 5.66895 -77.9971 17.002s-49.333 22.666 -70 33.999c-16.667 9.33301 -33.334 18.166 -50.001 26.499s-30 12.5 -40 12.5c-15.333 0 -29 -7.16699 -41 -21.5s-22.333 -38.166 -31 -71.499h-125c7.33301 74 27.666 133.167 60.999 177.5
s78.666 66.5 135.999 66.5c28.667 0 54.667 -5.33301 78 -16s46.333 -22.334 69 -35.001l50.5 -26.5c16.333 -8.33301 29.833 -12.5 40.5 -12.5c16 0 30.5 7 43.5 21s23.5 37 31.5 69h117c-2.66699 -36 -9 -68.833 -19 -98.5s-23.167 -55 -39.5 -76
s-35.833 -37.333 -58.5 -49s-47.667 -17.5 -75 -17.5z" />
    <glyph glyph-name="odieresis" unicode="&#xf6;" horiz-adv-x="1063" 
d="M774 414c0 90.667 -19.999 159 -59.999 205s-98.333 69 -175 69c-77.333 0 -137.666 -23.667 -180.999 -71s-65 -116.333 -65 -207c0 -43.333 5.66699 -82.166 17 -116.499s27.666 -63.333 48.999 -87s47.166 -41.834 77.499 -54.501s64.5 -19 102.5 -19
c76.667 0 135 24 175 72s60 117.667 60 209zM967.001 414c0 -64.667 -10.335 -123.665 -31.002 -176.998s-50 -98.833 -88 -136.5s-84.167 -66.834 -138.5 -87.501s-115.5 -31 -183.5 -31c-65.333 0 -124.5 10 -177.5 30s-98.167 48.167 -135.5 84.5
s-66.166 80.5 -86.499 132.5s-30.5 110 -30.5 174c0 68.667 10.333 130 31 184s50.5 99.833 89.5 137.5s86.333 66.334 142 86.001s118.5 29.5 188.5 29.5c67.333 0 127 -9.66699 179 -29s95.833 -47.333 131.5 -84s62.834 -81.334 81.501 -134.001s28 -112.334 28 -179.001
zM478.999 1055c0 -28 -10.333 -52.167 -31 -72.5s-50.667 -30.5 -90 -30.5c-37.333 0 -66.166 10.167 -86.499 30.5s-30.5 44.5 -30.5 72.5c0 30.667 9.83301 55.667 29.5 75s48.167 29 85.5 29c39.333 0 69.666 -9.66699 90.999 -29s32 -44.333 32 -75zM828.999 1055
c0 -28 -10.334 -52.167 -31.001 -72.5s-50.667 -30.5 -90 -30.5c-38 0 -67.167 10.167 -87.5 30.5s-30.5 44.5 -30.5 72.5c0 30.667 9.83301 55.667 29.5 75s47.834 29 84.501 29c40 0 70.833 -9.66699 92.5 -29s32.5 -44.333 32.5 -75z" />
    <glyph glyph-name="divide" unicode="&#xf7;" horiz-adv-x="1034" 
d="M395 870c0 17.333 3.16699 32.833 9.5 46.5s15 25.5 26 35.5s24 17.667 39 23s31.167 8 48.5 8s33.5 -2.66699 48.5 -8s28 -13 39 -23s19.667 -21.833 26 -35.5s9.5 -29.167 9.5 -46.5c0 -15.333 -3.16699 -29.833 -9.5 -43.5s-15 -25.5 -26 -35.5s-24 -18 -39 -24
s-31.167 -9 -48.5 -9s-33.5 3 -48.5 9s-28 14 -39 24s-19.667 21.833 -26 35.5s-9.5 28.167 -9.5 43.5zM395 238c0 34 11.833 61.167 35.5 81.5s52.834 30.5 87.501 30.5c35.333 0 64.666 -10.167 87.999 -30.5s35 -47.5 35 -81.5c0 -15.333 -3.16699 -29.833 -9.5 -43.5
s-15 -25.667 -26 -36s-24 -18.5 -39 -24.5s-31.167 -9 -48.5 -9s-33.5 3 -48.5 9s-28 14.167 -39 24.5s-19.667 22.333 -26 36s-9.5 28.167 -9.5 43.5zM954 635v-160h-874v160h874z" />
    <glyph glyph-name="oslash" unicode="&#xf8;" horiz-adv-x="1065" 
d="M539 688c-77.333 0 -137.668 -23.666 -181.001 -70.999s-65 -116.333 -65 -207c0 -60.667 9.66699 -112 29 -154l323 414c-16.667 5.33301 -33.167 9.66602 -49.5 12.999s-35.166 5 -56.499 5zM773.998 414.001c0 32 -2.66602 61 -7.99902 87s-12.333 49.333 -21 70
l-321 -413c18.667 -9.33301 36.667 -15.833 54 -19.5s37.666 -5.5 60.999 -5.5c76.667 0 135 24 175 72s60 117.667 60 209zM802.999 874.001h178.001l-119 -155c37.333 -37.333 64.166 -81 80.499 -131s24.5 -108 24.5 -174c0 -64.667 -10.333 -123.667 -31 -177
s-50 -98.833 -88 -136.5s-84.167 -66.834 -138.5 -87.501s-115.5 -31 -183.5 -31c-38 0 -74.833 3.83301 -110.5 11.5s-68.5 18.167 -98.5 31.5l-57 -78h-176l125 155c-37.333 38 -65.5 82.833 -84.5 134.5s-28.5 107.167 -28.5 166.5c0 68.667 10.333 130 31 184
s50.5 99.833 89.5 137.5s86.333 66.334 142 86.001s118.5 29.5 188.5 29.5c37.333 0 72.833 -3.5 106.5 -10.5s65.167 -16.5 94.5 -28.5z" />
    <glyph glyph-name="ugrave" unicode="&#xf9;" horiz-adv-x="1030" 
d="M135 821l192.999 -0.000976562v-508c0 -57.333 11.833 -101.666 35.5 -132.999s59.5 -47 107.5 -47c21.333 0 42.166 2.66699 62.499 8s39.5 12.5 57.5 21.5s34.833 19 50.5 30s29.834 22.5 42.501 34.5v594h193v-821h-187l-6 82c-14 -12.667 -29.667 -25 -47 -37
s-36.5 -22.667 -57.5 -32s-43.667 -16.833 -68 -22.5s-50.166 -8.5 -77.499 -8.5c-102 0 -177.333 27.167 -226 81.5s-73 133.5 -73 237.5v520zM632.999 917.999l-105.001 0.00195312c-14 11.333 -29.667 25.166 -47 41.499s-34.833 33.833 -52.5 52.5l-53 58l-49.5 58.5
l-41.5 53c-12.333 16.333 -21.833 30.166 -28.5 41.499v14h217l34.5 -72.5l41 -82c14.333 -27.667 28.833 -54 43.5 -79s28.334 -46.167 41.001 -63.5v-22z" />
    <glyph glyph-name="uacute" unicode="&#xfa;" horiz-adv-x="1030" 
d="M135 821l192.999 -0.000976562v-508c0 -57.333 11.833 -101.666 35.5 -132.999s59.5 -47 107.5 -47c21.333 0 42.166 2.66699 62.499 8s39.5 12.5 57.5 21.5s34.833 19 50.5 30s29.834 22.5 42.501 34.5v594h193v-821h-187l-6 82c-14 -12.667 -29.667 -25 -47 -37
s-36.5 -22.667 -57.5 -32s-43.667 -16.833 -68 -22.5s-50.166 -8.5 -77.499 -8.5c-102 0 -177.333 27.167 -226 81.5s-73 133.5 -73 237.5v520zM392.999 939.999c12.667 17.333 26.333 38.498 41 63.498s29.167 51.333 43.5 79l41 82l34.5 72.5h217v-14
c-6.66699 -11.333 -16.167 -25.166 -28.5 -41.499l-41.5 -53l-49.5 -58.5l-53.5 -58l-52.5 -52.5c-17 -16.333 -32.833 -30.166 -47.5 -41.499h-104v22z" />
    <glyph glyph-name="ucircumflex" unicode="&#xfb;" horiz-adv-x="1030" 
d="M135 821l192.999 -0.000976562v-508c0 -57.333 11.833 -101.666 35.5 -132.999s59.5 -47 107.5 -47c21.333 0 42.166 2.66699 62.499 8s39.5 12.5 57.5 21.5s34.833 19 50.5 30s29.834 22.5 42.501 34.5v594h193v-821h-187l-6 82c-14 -12.667 -29.667 -25 -47 -37
s-36.5 -22.667 -57.5 -32s-43.667 -16.833 -68 -22.5s-50.166 -8.5 -77.499 -8.5c-102 0 -177.333 27.167 -226 81.5s-73 133.5 -73 237.5v520zM818.999 917.999l-100 0.000976562l-53.5 43l-58 49l-54 49c-17 16 -31.5 30.333 -43.5 43
c-12 -12.667 -26.833 -27.167 -44.5 -43.5l-55 -49.5l-57.5 -49l-52 -42h-100v20c14 17.333 29.833 38.5 47.5 63.5l53.5 78.5l53 82c17.333 27.333 32.333 52.333 45 75h225c13.333 -24.667 28.5 -51.167 45.5 -79.5l51.5 -83c17.333 -27 34.5 -52.333 51.5 -76
s32.167 -43.834 45.5 -60.501v-20z" />
    <glyph glyph-name="udieresis" unicode="&#xfc;" horiz-adv-x="1030" 
d="M135 821l192.999 -0.000976562v-508c0 -57.333 11.833 -101.666 35.5 -132.999s59.5 -47 107.5 -47c21.333 0 42.166 2.66699 62.499 8s39.5 12.5 57.5 21.5s34.833 19 50.5 30s29.834 22.5 42.501 34.5v594h193v-821h-187l-6 82c-14 -12.667 -29.667 -25 -47 -37
s-36.5 -22.667 -57.5 -32s-43.667 -16.833 -68 -22.5s-50.166 -8.5 -77.499 -8.5c-102 0 -177.333 27.167 -226 81.5s-73 133.5 -73 237.5v520zM448.999 1055c0 -28 -10.333 -52.167 -31 -72.5s-50.667 -30.5 -90 -30.5c-37.333 0 -66.166 10.167 -86.499 30.5
s-30.5 44.5 -30.5 72.5c0 30.667 9.83301 55.667 29.5 75s48.167 29 85.5 29c39.333 0 69.666 -9.66699 90.999 -29s32 -44.333 32 -75zM798.999 1055c0 -28 -10.334 -52.167 -31.001 -72.5s-50.667 -30.5 -90 -30.5c-38 0 -67.167 10.167 -87.5 30.5s-30.5 44.5 -30.5 72.5
c0 30.667 9.83301 55.667 29.5 75s47.834 29 84.501 29c40 0 70.833 -9.66699 92.5 -29s32.5 -44.333 32.5 -75z" />
    <glyph glyph-name="yacute" unicode="&#xfd;" horiz-adv-x="862" 
d="M852 821l-299.001 -734.997c-11.333 -29.333 -23.666 -65.833 -36.999 -109.5l-41.5 -143l-42.5 -154.5c-14 -51.333 -27 -102 -39 -152h-196c12 48.667 23.667 93.167 35 133.5s23.333 80.166 36 119.499s26 78.333 40 117l46 130l-173.5 397l-172.5 397h211l203 -528
c3.33301 -7.33301 6.33301 -15.833 9 -25.5l7 -25.5c2 7.33301 4.5 15.166 7.5 23.499s6.16699 16.166 9.5 23.499l198 532h199zM337.999 940.003c12.667 17.333 26.333 38.498 41 63.498s29.167 51.333 43.5 79l41 82l34.5 72.5h217v-14
c-6.66699 -11.333 -16.167 -25.166 -28.5 -41.499l-41.5 -53l-49.5 -58.5l-53.5 -58l-52.5 -52.5c-17 -16.333 -32.833 -30.166 -47.5 -41.499h-104v22z" />
    <glyph glyph-name="thorn" unicode="&#xfe;" horiz-adv-x="1085" 
d="M793 418c0 43.333 -5.33301 81.999 -16 115.999s-25.834 62.833 -45.501 86.5s-43 41.834 -70 54.501s-56.5 19 -88.5 19c-26 0 -50.333 -3.16699 -73 -9.5s-43.5 -14.333 -62.5 -24s-36.167 -20 -51.5 -31s-28.666 -21.5 -39.999 -31.5v-416
c15.333 -13.333 39.5 -26.5 72.5 -39.5s71.833 -19.5 116.5 -19.5c25.333 0 53 4.16699 83 12.5s58 23.333 84 45s47.667 51.667 65 90s26 87.5 26 147.5zM987 415.999c0 -64 -9.33496 -122.497 -28.002 -175.497s-45.834 -98.5 -81.501 -136.5s-79.5 -67.5 -131.5 -88.5
s-111 -31.5 -177 -31.5c-41.333 0 -81.666 4.66699 -120.999 14s-73.333 21.666 -102 36.999v-508h-192v1767h192v-360c0 -15.333 -0.166992 -32.166 -0.5 -50.499l-1 -53c-0.333008 -17 -0.833008 -32.833 -1.5 -47.5s-1.66699 -26.334 -3 -35.001
c16.667 12.667 34.334 24.667 53.001 36s38.834 21.166 60.501 29.499s45 14.833 70 19.5s52.5 7 82.5 7c54 0 104.333 -9.16699 151 -27.5s87 -45.333 121 -81s60.667 -79.834 80 -132.501s29 -113.667 29 -183z" />
    <glyph glyph-name="ydieresis" unicode="&#xff;" horiz-adv-x="862" 
d="M852 821l-299.001 -734.997c-11.333 -29.333 -23.666 -65.833 -36.999 -109.5l-41.5 -143l-42.5 -154.5c-14 -51.333 -27 -102 -39 -152h-196c12 48.667 23.667 93.167 35 133.5s23.333 80.166 36 119.499s26 78.333 40 117l46 130l-173.5 397l-172.5 397h211l203 -528
c3.33301 -7.33301 6.33301 -15.833 9 -25.5l7 -25.5c2 7.33301 4.5 15.166 7.5 23.499s6.16699 16.166 9.5 23.499l198 532h199zM413.999 1055c0 -28 -10.333 -52.167 -31 -72.5s-50.667 -30.5 -90 -30.5c-37.333 0 -66.166 10.167 -86.499 30.5s-30.5 44.5 -30.5 72.5
c0 30.667 9.83301 55.667 29.5 75s48.167 29 85.5 29c39.333 0 69.666 -9.66699 90.999 -29s32 -44.333 32 -75zM763.999 1055c0 -28 -10.334 -52.167 -31.001 -72.5s-50.667 -30.5 -90 -30.5c-38 0 -67.167 10.167 -87.5 30.5s-30.5 44.5 -30.5 72.5
c0 30.667 9.83301 55.667 29.5 75s47.834 29 84.501 29c40 0 70.833 -9.66699 92.5 -29s32.5 -44.333 32.5 -75z" />
    <glyph glyph-name="dotlessi" unicode="&#x131;" horiz-adv-x="500" 
d="M346 0h-192v821h192v-821z" />
    <glyph glyph-name="OE" unicode="&#x152;" horiz-adv-x="1708" 
d="M733 1143c-62.667 0 -119.503 -11.998 -170.503 -35.998s-94.5 -57.667 -130.5 -101s-63.833 -95.666 -83.5 -156.999s-29.5 -129.333 -29.5 -204s9.33301 -142.334 28 -203.001s45.5 -112.334 80.5 -155.001s77.333 -75.5 127 -98.5s105.167 -34.5 166.5 -34.5
c64.667 0 123.334 4 176.001 12v962c-21.333 3.33301 -46.166 6.66602 -74.499 9.99902s-58.166 5 -89.499 5zM1548 0.00195312l-621.998 0.000976562c-29.333 -4 -61.5 -6.66699 -96.5 -8s-71.167 -2 -108.5 -2c-92 0 -175.333 15.167 -250 45.5
s-138.334 73.5 -191.001 129.5s-93.334 123.5 -122.001 202.5s-43 167.5 -43 265.5c0 102.667 14.167 195.5 42.5 278.5s69.5 153.667 123.5 212s119.833 103.166 197.5 134.499s165.834 47 264.501 47c24 0 52.667 -0.666992 86 -2s65.666 -4.33301 96.999 -9h618v-168
h-450v-393h452v-166h-452v-401h454v-166z" />
    <glyph glyph-name="oe" unicode="&#x153;" horiz-adv-x="1616" 
d="M1147 690c-58.667 0 -106.332 -16.167 -142.999 -48.5s-60 -79.5 -70 -141.5h395c-3.33301 62 -20.333 109.167 -51 141.5s-74.334 48.5 -131.001 48.5zM293.002 410c0 -43.333 5.33398 -82.166 16.001 -116.499s25.834 -63.333 45.501 -87s43.5 -41.834 71.5 -54.501
s59.333 -19 94 -19c71.333 0 125.666 24 162.999 72s56 117.667 56 209c0 93.333 -19.333 162.333 -58 207s-92.334 67 -161.001 67c-70.667 0 -126.167 -23.667 -166.5 -71s-60.5 -116.333 -60.5 -207zM1520 360l-590.003 -0.00390625c3.33301 -34 11.833 -65.333 25.5 -94
s31.667 -53.5 54 -74.5s48.833 -37.333 79.5 -49s64.334 -17.5 101.001 -17.5c22 0 45.667 2.5 71 7.5s51 12 77 21s52 19.833 78 32.5s50.333 27 73 43v-157c-23.333 -16 -47.166 -29.667 -71.499 -41s-50 -20.666 -77 -27.999s-56 -12.666 -87 -15.999s-64.5 -5 -100.5 -5
c-142 0 -247.667 45 -317 135c-37.333 -43.333 -83.666 -76.666 -138.999 -99.999s-118.333 -35 -189 -35c-62.667 0 -119.334 10 -170.001 30s-94 48.167 -130 84.5s-63.667 80.5 -83 132.5s-29 110 -29 174c0 68.667 10 130 30 184s48.667 99.833 86 137.5
s82.666 66.334 135.999 86.001s113.333 29.5 180 29.5c72.667 0 134.334 -10.5 185.001 -31.5s93 -53.5 127 -97.5c36 42 79.833 74 131.5 96s110.834 33 177.501 33c60.667 0 114 -9.16699 160 -27.5s84.667 -44.5 116 -78.5s55 -75.667 71 -125s24 -105 24 -167v-82z" />
    <glyph glyph-name="Scaron" unicode="&#x160;" horiz-adv-x="987" 
d="M895 362c0 -52.667 -9.16895 -102.168 -27.502 -148.501s-45.333 -86.666 -81 -120.999s-80 -61.333 -133 -81s-114.5 -29.5 -184.5 -29.5c-34 0 -67.833 2.16699 -101.5 6.5s-65.667 10.666 -96 18.999s-58.5 18 -84.5 29s-48.667 22.833 -68 35.5v200
c21.333 -15.333 46.5 -30.5 75.5 -45.5s59.5 -28.333 91.5 -40s63.833 -21.167 95.5 -28.5s60.167 -11 85.5 -11c38.667 0 72.5 4.83301 101.5 14.5s53.333 23.5 73 41.5s34.334 39.5 44.001 64.5s14.5 52.5 14.5 82.5c0 34 -6.16699 62.667 -18.5 86
s-29.833 43.666 -52.5 60.999s-50 33 -82 47s-67.667 28.667 -107 44c-54 21.333 -102 42.833 -144 64.5s-77.333 46.334 -106 74.001s-50.5 59.667 -65.5 96s-22.5 79.5 -22.5 129.5c0 54.667 11 104.167 33 148.5s52 82 90 113s82.5 55 133.5 72s105.5 25.5 163.5 25.5
c62 0 118 -5.66699 168 -17s95.667 -25.666 137 -42.999v-180c-19.333 9.33301 -41.666 18.333 -66.999 27s-52 16.5 -80 23.5s-56 12.667 -84 17s-54.667 6.5 -80 6.5c-35.333 0 -66.666 -4.5 -93.999 -13.5s-50.5 -21.5 -69.5 -37.5s-33.333 -35.167 -43 -57.5
s-14.5 -46.833 -14.5 -73.5c0 -30 6.33301 -55.833 19 -77.5s30.667 -41 54 -58s51.5 -32.667 84.5 -47s69.833 -29.5 110.5 -45.5c52 -20.667 98.5 -42.167 139.5 -64.5s75.667 -48 104 -77s50.166 -62.333 65.499 -100s23 -81.5 23 -131.5zM820.998 1628
c-14 -14 -30 -31.5 -48 -52.5l-54.5 -66l-52.5 -68.5c-16.667 -22.667 -31 -43 -43 -61h-221c-12.667 18.667 -27.667 39.5 -45 62.5l-53 69c-18 23 -35.833 44.667 -53.5 65s-33.5 37.5 -47.5 51.5v19h100l48 -30l57 -37.5l56.5 -38.5l47.5 -34l48 34.5l55.5 38.5l56.5 37
c18.667 12 35 22 49 30h100v-19z" />
    <glyph glyph-name="scaron" unicode="&#x161;" horiz-adv-x="715" 
d="M639 231c0 -35.333 -6.16699 -68.1709 -18.5 -98.5039s-31 -56.666 -56 -78.999s-56.333 -39.833 -94 -52.5s-81.834 -19 -132.501 -19c-49.333 0 -96 6.16699 -140 18.5s-81.333 29.833 -112 52.5v166c17.333 -12 36.5 -23.667 57.5 -35s42.5 -21.166 64.5 -29.499
s43.667 -15 65 -20s41 -7.5 59 -7.5c43.333 0 75 9.33301 95 28s30 41.334 30 68.001c0 14 -2 26.5 -6 37.5s-11.5 21.333 -22.5 31s-26.333 19.167 -46 28.5s-44.834 19.333 -75.501 30c-42 15.333 -77.167 31.5 -105.5 48.5s-51 35.667 -68 56s-29.167 42.333 -36.5 66
s-11 49.5 -11 77.5c0 36 7.83301 68.833 23.5 98.5s37 55.167 64 76.5s58.667 37.833 95 49.5s75.166 17.5 116.499 17.5c37.333 0 74 -3.66699 110 -11s71 -20 105 -38v-150c-32.667 14.667 -67.167 26.834 -103.5 36.501s-72.166 14.5 -107.499 14.5
c-41.333 0 -72.5 -8.66699 -93.5 -26s-31.5 -39.333 -31.5 -66c0 -11.333 2.16699 -22 6.5 -32s11.833 -19.667 22.5 -29s25.334 -18.833 44.001 -28.5s42.334 -19.5 71.001 -29.5c40 -14 74.5 -28.833 103.5 -44.5s53 -33.167 72 -52.5s33 -41.5 42 -66.5
s13.5 -53.833 13.5 -86.5zM694 1217c-13.333 -16.667 -28.501 -36.999 -45.501 -60.999l-51.5 -76l-51.5 -82c-17 -28 -32.167 -54.667 -45.5 -80h-225c-12.667 23.333 -27.667 48.833 -45 76.5l-53 82l-53.5 77.5c-17.667 24.667 -33.5 45.667 -47.5 63v20h100l51.5 -42
l58 -49.5l55.5 -50l44 -42.5c12.667 13.333 27.834 28.166 45.501 44.499l55 49l56.5 48.5c18.667 16 36 30 52 42h100v-20z" />
    <glyph glyph-name="Ydieresis" unicode="&#x178;" horiz-adv-x="1077" 
d="M1079 1294l-441.999 -749v-545h-197v539l-442 755h219l270 -483c4 -6.66699 8.33301 -14.667 13 -24l14.5 -29c5 -10 9.83301 -20.167 14.5 -30.5l12 -27.5l11 28l12.5 30c4.33301 10 8.66602 19.5 12.999 28.5s8.5 16.5 12.5 22.5l282 485h207zM504.001 1497
c0 -28 -10.333 -52.167 -31 -72.5s-50.667 -30.5 -90 -30.5c-37.333 0 -66.166 10.167 -86.499 30.5s-30.5 44.5 -30.5 72.5c0 30.667 9.83301 55.667 29.5 75s48.167 29 85.5 29c39.333 0 69.666 -9.66699 90.999 -29s32 -44.333 32 -75zM854.001 1497
c0 -28 -10.334 -52.167 -31.001 -72.5s-50.667 -30.5 -90 -30.5c-38 0 -67.167 10.167 -87.5 30.5s-30.5 44.5 -30.5 72.5c0 30.667 9.83301 55.667 29.5 75s47.834 29 84.501 29c40 0 70.833 -9.66699 92.5 -29s32.5 -44.333 32.5 -75z" />
    <glyph glyph-name="Zcaron" unicode="&#x17d;" horiz-adv-x="1139" 
d="M1049 1260l-662 -1094h643v-166h-940v43l655 1083h-655v168h959v-34zM880 1628c-14 -14 -30 -31.5 -48 -52.5l-54.5 -66l-52.5 -68.5c-16.667 -22.667 -31 -43 -43 -61h-221c-12.667 18.667 -27.667 39.5 -45 62.5l-53 69c-18 23 -35.833 44.667 -53.5 65
s-33.5 37.5 -47.5 51.5v19h100l48 -30l57 -37.5l56.5 -38.5l47.5 -34l48 34.5l55.5 38.5l56.5 37c18.667 12 35 22 49 30h100v-19z" />
    <glyph glyph-name="zcaron" unicode="&#x17e;" horiz-adv-x="829" 
d="M762 762l-434 -608h452v-154h-729v66l434 602h-397v153h674v-59zM727 1217c-13.333 -16.667 -28.501 -36.999 -45.501 -60.999l-51.5 -76l-51.5 -82c-17 -28 -32.167 -54.667 -45.5 -80h-225c-12.667 23.333 -27.667 48.833 -45 76.5l-53 82l-53.5 77.5
c-17.667 24.667 -33.5 45.667 -47.5 63v20h100l51.5 -42l58 -49.5l55.5 -50l44 -42.5c12.667 13.333 27.834 28.166 45.501 44.499l55 49l56.5 48.5c18.667 16 36 30 52 42h100v-20z" />
    <glyph glyph-name="florin" unicode="&#x192;" horiz-adv-x="1034" 
d="M770 694l-186 -0.00292969l-52.5 -324.5l-52.5 -324.5c-10 -60.667 -22.167 -116 -36.5 -166s-30 -95.167 -47 -135.5s-35 -75.833 -54 -106.5s-37.833 -57 -56.5 -79h-154c12 22 25.167 49.333 39.5 82s28.666 69.834 42.999 111.501s27.833 87.5 40.5 137.5
s23.667 103.333 33 160l52.5 322.5l51.5 322.5h-149l18 127h152l12 80l12 80c8 51.333 20 97.333 36 138s36.667 75.334 62 104.001s55.666 50.5 90.999 65.5s76.333 22.5 123 22.5c8.66699 0 18.334 -0.666992 29.001 -2s21.334 -3 32.001 -5l30 -5.5
c9.33301 -1.66699 16.333 -3.16699 21 -4.5l-22 -149c-6 1.33301 -13.333 2.33301 -22 3s-17.5 1.5 -26.5 2.5s-17.5 1.66699 -25.5 2s-14.333 0.5 -19 0.5c-30.667 0 -55.5 -14.333 -74.5 -43s-32.167 -69 -39.5 -121c-4 -30 -8.5 -57.667 -13.5 -83
s-9.5 -53.666 -13.5 -84.999h184z" />
    <glyph glyph-name="uni02C0" unicode="&#x2c0;" horiz-adv-x="395" 
d="M265 1052l-21.001 -21c-8.66699 -8.66699 -14.5 -19.5 -17.5 -32.5s-4.16699 -24.167 -3.5 -33.5h-43v14c0 31.333 9 56 27 74l27.5 26c10.333 10 21.5 22.333 33.5 37c5.33301 8.66699 8 18.334 8 29.001c0 17.333 -7 32.5 -21 45.5s-30.667 19.5 -50 19.5
c-38 0 -62.667 -24.333 -74 -73l-45 4c10.667 70.667 50.334 106 119.001 106c74.667 0 113.667 -33.333 117 -100c0 -32.667 -19 -64.334 -57 -95.001z" />
    <glyph glyph-name="uni02C1" unicode="&#x2c1;" horiz-adv-x="395" 
d="M276 1137c-8 48.667 -32.333 72.999 -73 72.999c-48 0 -72 -21.667 -72 -65c0 -19.333 12.667 -39.666 38 -60.999c15.333 -12 30.666 -31.333 45.999 -58c6.66699 -13.333 10 -29 10 -47v-14h-43c0 29.333 -4 49 -12 59c-3.33301 4 -7.33301 8.5 -12 13.5l-17 17.5
c-36.667 32 -55 62.667 -55 92c0 66.667 39 100 117 100c70.667 0 110.334 -35.333 119.001 -106z" />
    <glyph glyph-name="circumflex" unicode="&#x2c6;" horiz-adv-x="696" 
d="M657 918l-100 0.000976562l-53.5 43l-58 49l-54 49c-17 16 -31.5 30.333 -43.5 43c-12 -12.667 -26.833 -27.167 -44.5 -43.5l-55 -49.5l-57.5 -49l-52 -42h-100v20c14 17.333 29.833 38.5 47.5 63.5l53.5 78.5l53 82c17.333 27.333 32.333 52.333 45 75h225
c13.333 -24.667 28.5 -51.167 45.5 -79.5l51.5 -83c17.333 -27 34.5 -52.333 51.5 -76s32.167 -43.834 45.5 -60.501v-20z" />
    <glyph glyph-name="caron" unicode="&#x2c7;" horiz-adv-x="725" 
d="M657 1217c-13.333 -16.667 -28.501 -36.999 -45.501 -60.999l-51.5 -76l-51.5 -82c-17 -28 -32.167 -54.667 -45.5 -80h-225c-12.667 23.333 -27.667 48.833 -45 76.5l-53 82l-53.5 77.5c-17.667 24.667 -33.5 45.667 -47.5 63v20h100l51.5 -42l58 -49.5l55.5 -50
l44 -42.5c12.667 13.333 27.834 28.166 45.501 44.499l55 49l56.5 48.5c18.667 16 36 30 52 42h100v-20z" />
    <glyph glyph-name="macron" unicode="&#x2c9;" horiz-adv-x="1229" 
d="M1202 1339h-1175c-36 0 -54 14.333 -54 43s18 43 54 43h1175c35.333 0 53 -14.333 53 -43s-17.667 -43 -53 -43z" />
    <glyph glyph-name="uni02D2" unicode="&#x2d2;" horiz-adv-x="639" 
d="M326 922c-22.667 -42.667 -37.667 -64 -45 -64c-8.66699 0 -13 4 -13 12c0 3.33301 0.666992 6.33301 2 9c41.333 79.333 62 148.666 62 207.999c0 30 -5.16699 62 -15.5 96s-25.833 71 -46.5 111c-1.33301 2.66699 -2 5.33398 -2 8.00098c0 8.66699 4.33301 13 13 13
c10 0 25.667 -22.667 47 -68c9.33301 -19.333 16.5 -36.5 21.5 -51.5s8.5 -27.167 10.5 -36.5c7.33301 -25.333 11 -49.333 11 -72c0 -51.333 -15 -106.333 -45 -165z" />
    <glyph glyph-name="uni02D3" unicode="&#x2d3;" horiz-adv-x="639" 
d="M356 858c-8 0 -22.334 21.334 -43.001 64.001c-30 58.667 -45 113.667 -45 165c0 11.333 0.5 23.166 1.5 35.499s3.16699 24.5 6.5 36.5c4.66699 18.667 16.334 48 35.001 88c21.333 45.333 36.333 68 45 68c10 0 15 -5 15 -15l-2 -6
c-42.667 -79.333 -64 -148.333 -64 -207c0 -60 21.333 -129.333 64 -208c1.33301 -2.66699 2 -5.66699 2 -9c0 -8 -5 -12 -15 -12z" />
    <glyph glyph-name="ring" unicode="&#x2da;" horiz-adv-x="557" 
d="M362 1118c0 29.333 -8 52 -24 68s-36.667 24 -62 24c-23.333 0 -43.5 -8 -60.5 -24s-25.5 -38.667 -25.5 -68c0 -30 7.33301 -53.167 22 -69.5s36 -24.5 64 -24.5c25.333 0 46 8.16699 62 24.5s24 39.5 24 69.5zM502 1120c0 -32.667 -5.50098 -62 -16.501 -88
s-26.5 -48 -46.5 -66s-43.833 -31.667 -71.5 -41s-58.167 -14 -91.5 -14c-32.667 0 -62.5 4.66699 -89.5 14s-50.333 23 -70 41s-34.834 39.833 -45.501 65.5s-16 54.5 -16 86.5s5.33301 60.5 16 85.5s25.834 46.167 45.501 63.5s43 30.666 70 39.999s56.833 14 89.5 14
s62.834 -4.66699 90.501 -14s51.5 -22.666 71.5 -39.999s35.667 -38.333 47 -63s17 -52.667 17 -84z" />
    <glyph glyph-name="tilde" unicode="&#x2dc;" horiz-adv-x="662" 
d="M451 918c-26 0 -51.9971 5.66895 -77.9971 17.002s-49.333 22.666 -70 33.999c-16.667 9.33301 -33.334 18.166 -50.001 26.499s-30 12.5 -40 12.5c-15.333 0 -29 -7.16699 -41 -21.5s-22.333 -38.166 -31 -71.499h-125c7.33301 74 27.666 133.167 60.999 177.5
s78.666 66.5 135.999 66.5c28.667 0 54.667 -5.33301 78 -16s46.333 -22.334 69 -35.001l50.5 -26.5c16.333 -8.33301 29.833 -12.5 40.5 -12.5c16 0 30.5 7 43.5 21s23.5 37 31.5 69h117c-2.66699 -36 -9 -68.833 -19 -98.5s-23.167 -55 -39.5 -76
s-35.833 -37.333 -58.5 -49s-47.667 -17.5 -75 -17.5z" />
    <glyph glyph-name="uni0303" unicode="&#x303;" 
d="M565 41c-45.333 -27.333 -82.666 -40.998 -111.999 -40.998c-33.333 0 -82.666 20.333 -147.999 61c-63.333 41.333 -101.666 62 -114.999 62c-18.667 0 -46.667 -13.667 -84 -41c-32 -27.333 -54.667 -41 -68 -41c-24 0 -36 13.667 -36 41
c0 13.333 6.16699 26.833 18.5 40.5s30.833 28.167 55.5 43.5c45.333 27.333 82.666 41 111.999 41c31.333 0 79.333 -20.667 144 -62c65.333 -39.333 105.666 -59 120.999 -59c9.33301 0 20.666 3.16699 33.999 9.5s29.333 16.166 48 29.499c36.667 27.333 60 41 70 41
c24 0 36 -13 36 -39c0 -26.667 -25.333 -55.334 -76 -86.001z" />
    <glyph glyph-name="uni0304" unicode="&#x304;" 
d="M545 0h-492c-35.333 -0 -53 14.333 -53 43s19 43 57 43h486c36.667 0 55 -14.333 55 -43s-17.667 -43 -53 -43z" />
    <glyph glyph-name="uni0307" unicode="&#x307;" 
d="M148 47.5c-4 -9.66699 -9.50195 -17.998 -16.502 -24.998s-15.167 -12.5 -24.5 -16.5s-19 -6 -29 -6c-21.333 0 -39.666 7.66699 -54.999 23s-23 33.666 -23 54.999c0 10 2 19.667 6 29s9.5 17.5 16.5 24.5s15.333 12.5 25 16.5s19.834 6 30.501 6
c20.667 0 38.5 -7.5 53.5 -22.5s22.5 -32.833 22.5 -53.5c0 -10.667 -2 -20.834 -6 -30.501z" />
    <glyph glyph-name="uni0308" unicode="&#x308;" 
d="M432 23c-15.333 -15.333 -33.6699 -23 -55.0029 -23s-39.666 7.66699 -54.999 23s-23 33.666 -23 54.999c0 10 2 19.667 6 29s9.5 17.5 16.5 24.5s15.333 12.5 25 16.5s19.834 6 30.501 6s20.834 -2 30.501 -6s18 -9.5 25 -16.5s12.5 -15.167 16.5 -24.5s6 -19 6 -29
c0 -21.333 -7.66699 -39.666 -23 -54.999zM147.996 47.5c-4 -9.66699 -9.50195 -17.998 -16.502 -24.998s-15.167 -12.5 -24.5 -16.5s-19 -6 -29 -6c-21.333 0 -39.666 7.66699 -54.999 23s-23 33.666 -23 54.999c0 10 2 19.667 6 29s9.5 17.5 16.5 24.5
s15.333 12.5 25 16.5s19.834 6 30.501 6c20.667 0 38.5 -7.5 53.5 -22.5s22.5 -32.833 22.5 -53.5c0 -10.667 -2 -20.834 -6 -30.501z" />
    <glyph glyph-name="uni030A" unicode="&#x30a;" 
d="M259.5 81c-7 -16 -16.833 -30 -29.5 -42s-27.334 -21.5 -44.001 -28.5s-34.334 -10.5 -53.001 -10.5s-36.167 3.5 -52.5 10.5s-30.666 16.5 -42.999 28.5s-22 26 -29 42s-10.5 33.333 -10.5 52s3.5 36.167 10.5 52.5s16.667 30.5 29 42.5s26.666 21.333 42.999 28
s33.833 10 52.5 10s36.334 -3.33301 53.001 -10s31.334 -16 44.001 -28s22.5 -26.167 29.5 -42.5s10.5 -33.833 10.5 -52.5s-3.5 -36 -10.5 -52zM217.5 167c-5 10.667 -11.667 20 -20 28s-18.166 14.333 -29.499 19s-23 7 -35 7c-24.667 0 -45.834 -8.5 -63.501 -25.5
s-26.5 -37.833 -26.5 -62.5s8.83301 -45.5 26.5 -62.5s38.834 -25.5 63.501 -25.5c12.667 0 24.667 2.33301 36 7s21.166 11 29.499 19s14.833 17.333 19.5 28s7 22 7 34s-2.5 23.333 -7.5 34z" />
    <glyph glyph-name="uni0323" unicode="&#x323;" 
d="M131.5 -131.5c-15 -15 -32.8311 -22.498 -53.498 -22.498c-10.667 0 -20.834 2 -30.501 6s-18 9.5 -25 16.5s-12.5 15.167 -16.5 24.5s-6 19 -6 29c0 21.333 7.66699 39.666 23 54.999s33.666 23 54.999 23c10 0 19.667 -2 29 -6s17.5 -9.5 24.5 -16.5
s12.5 -15.333 16.5 -25s6 -19.834 6 -30.501c0 -20.667 -7.5 -38.5 -22.5 -53.5z" />
    <glyph glyph-name="uni0324" unicode="&#x324;" 
d="M449 -107c-4 -9.33301 -9.49609 -17.5 -16.4961 -24.5s-15.333 -12.5 -25 -16.5s-19.834 -6 -30.501 -6s-20.834 2 -30.501 6s-18 9.5 -25 16.5s-12.5 15.167 -16.5 24.5s-6 19 -6 29c0 21.333 7.66699 39.666 23 54.999s33.666 23 54.999 23s39.666 -7.66699 54.999 -23
s23 -33.666 23 -54.999c0 -10 -2 -19.667 -6 -29zM131.504 -131.5c-15 -15 -32.8311 -22.498 -53.498 -22.498c-10.667 0 -20.834 2 -30.501 6s-18 9.5 -25 16.5s-12.5 15.167 -16.5 24.5s-6 19 -6 29c0 21.333 7.66699 39.666 23 54.999s33.666 23 54.999 23
c10 0 19.667 -2 29 -6s17.5 -9.5 24.5 -16.5s12.5 -15.333 16.5 -25s6 -19.834 6 -30.501c0 -20.667 -7.5 -38.5 -22.5 -53.5z" />
    <glyph glyph-name="uni0325" unicode="&#x325;" 
d="M259.5 -186c-7 -16 -16.833 -30 -29.5 -42s-27.334 -21.333 -44.001 -28s-34.334 -10 -53.001 -10s-36.167 3.33301 -52.5 10s-30.666 16 -42.999 28s-22 26 -29 42s-10.5 33.667 -10.5 53c0 18.667 3.5 36 10.5 52s16.667 30 29 42s26.666 21.5 42.999 28.5
s33.833 10.5 52.5 10.5s36.334 -3.5 53.001 -10.5s31.334 -16.5 44.001 -28.5s22.5 -26 29.5 -42s10.5 -33.333 10.5 -52c0 -19.333 -3.5 -37 -10.5 -53zM218 -99c-4.66699 10.667 -11.167 20 -19.5 28s-18.166 14.333 -29.499 19s-23.333 7 -36 7
c-24.667 0 -45.834 -8.5 -63.501 -25.5s-26.5 -37.833 -26.5 -62.5s8.83301 -45.5 26.5 -62.5s38.834 -25.5 63.501 -25.5c12 0 23.667 2.33301 35 7s21.166 11 29.499 19s15 17.333 20 28s7.5 22 7.5 34s-2.33301 23.333 -7 34z" />
    <glyph glyph-name="uni032D" unicode="&#x32d;" 
d="M555 0c-14.667 0 -58.333 28.668 -131 86.001c-5.33301 5.33301 -18.5 16.166 -39.5 32.499l-85.5 67.5l-63 -51.5l-60 -48.5c-72.667 -57.333 -117 -86 -133 -86c-28.667 -0 -43 14.333 -43 43c0 13.333 9.66699 27 29 41l270 207l270 -207
c19.333 -14 29 -27.667 29 -41c0 -28.667 -14.333 -43 -43 -43z" />
    <glyph glyph-name="uni032E" unicode="&#x32e;" 
d="M522 -231c-56.667 -38.667 -123.332 -58.002 -199.999 -58.002c-78.667 0 -146.334 19.333 -203.001 58c-66 44.667 -99 103.334 -99 176.001c0 31.333 13.667 47 41 47c24.667 0 39 -16.333 43 -49c3.33301 -23.333 11.333 -44.666 24 -63.999
s30.667 -35.666 54 -48.999c41.333 -23.333 88 -35 140 -35c111.333 0 182.333 48 213 144c12.667 35.333 27.667 53 45 53c28.667 0 43 -15.667 43 -47c0 -72.667 -33.667 -131.334 -101 -176.001z" />
    <glyph glyph-name="uni0330" unicode="&#x330;" 
d="M563 -166c-45.333 -27.333 -82.6641 -40.998 -111.997 -40.998c-32 0 -81.333 20.667 -148 62c-62.667 40.667 -101 61 -115 61c-18.667 0 -46.667 -13.667 -84 -41c-33.333 -27.333 -56 -41 -68 -41c-24 0 -36 13.667 -36 41c0 13.333 6.16699 26.833 18.5 40.5
s30.833 28.167 55.5 43.5c45.333 27.333 82.666 41 111.999 41c31.333 0 79.333 -19.667 144 -59c65.333 -41.333 105.666 -62 120.999 -62c9.33301 0 20.666 3.5 33.999 10.5s29 17.167 47 30.5c18.667 13.333 33.167 23.166 43.5 29.499s18.833 9.5 25.5 9.5
c25.333 0 38 -13 38 -39c0 -26.667 -25.333 -55.334 -76 -86.001z" />
    <glyph glyph-name="uni0331" unicode="&#x331;" 
d="M545 -86h-492c-35.333 0 -53 14.333 -53 43s19 43 57 43h486c36.667 0 55 -14.333 55 -43s-17.667 -43 -53 -43z" />
    <glyph glyph-name="uni060C" unicode="&#x60c;" horiz-adv-x="469" 
d="M100 0c9.33301 34 21.667 70.999 37 110.999s31.833 80.5 49.5 121.5l54.5 121.5l52 111h147c-12 -36 -23.5 -74.167 -34.5 -114.5s-21.167 -80.833 -30.5 -121.5s-17.833 -80.667 -25.5 -120s-14.167 -75.666 -19.5 -108.999h-230z" />
    <glyph glyph-name="uni061B" unicode="&#x61b;" horiz-adv-x="469" 
d="M349.5 78c-7 -15.333 -16.5 -28.666 -28.5 -39.999s-26.167 -20.5 -42.5 -27.5s-34.166 -10.5 -53.499 -10.5c-18.667 0 -36.167 3.5 -52.5 10.5s-30.5 16.167 -42.5 27.5s-21.333 24.666 -28 39.999s-10 31.333 -10 48c0 18 3.33301 34.667 10 50s16 28.5 28 39.5
s26.167 19.667 42.5 26s33.833 9.5 52.5 9.5c19.333 0 37.166 -3.16699 53.499 -9.5s30.5 -15 42.5 -26s21.5 -24.167 28.5 -39.5s10.5 -32 10.5 -50c0 -16.667 -3.5 -32.667 -10.5 -48zM100 634c9.33301 34 21.667 70.999 37 110.999s31.833 80.5 49.5 121.5l54.5 121.5
l52 111h147c-12 -36 -23.5 -74.167 -34.5 -114.5s-21.167 -80.833 -30.5 -121.5s-17.833 -80.667 -25.5 -120s-14.167 -75.666 -19.5 -108.999h-230z" />
    <glyph glyph-name="uni061F" unicode="&#x61f;" horiz-adv-x="825" 
d="M616 117c0 -17.333 -3.5 -33.666 -10.5 -48.999s-16.5 -28.833 -28.5 -40.5s-26.167 -20.834 -42.5 -27.501s-34.166 -10 -53.499 -10c-18.667 0 -36 3.33301 -52 10s-30 15.834 -42 27.501s-21.5 25.167 -28.5 40.5s-10.5 31.666 -10.5 48.999c0 18 3.5 34.5 10.5 49.5
s16.5 28.167 28.5 39.5s26 20.166 42 26.499s33.333 9.5 52 9.5c19.333 0 37.166 -3.16699 53.499 -9.5s30.5 -15.166 42.5 -26.499s21.5 -24.5 28.5 -39.5s10.5 -31.5 10.5 -49.5zM71 987c0 50 8.83203 95 26.499 135s42.667 74 75 102s71.333 49.5 117 64.5
s96.5 22.5 152.5 22.5c54 0 106.833 -5.83301 158.5 -17.5s102.5 -29.834 152.5 -54.501v-174c-51.333 30 -103.666 52.5 -156.999 67.5s-102 22.5 -146 22.5c-58.667 0 -104.667 -14.667 -138 -44s-50 -71.333 -50 -126c0 -28 3 -53.667 9 -77s15.833 -45.666 29.5 -66.999
s31.167 -43 52.5 -65s47 -45.667 77 -71c47.333 -38 83 -76.667 107 -116s36 -82 36 -128c0 -9.33301 -0.5 -21 -1.5 -35s-2.5 -25.667 -4.5 -35l-12 -55h-127l-9 59c-2.66699 20 -6.33398 38.833 -11.001 56.5s-11.5 35.5 -20.5 53.5s-21.167 36.5 -36.5 55.5
s-35.666 39.833 -60.999 62.5c-38 32 -70.667 62.833 -98 92.5s-50 59.167 -68 88.5s-31.333 59 -40 89s-13 61.333 -13 94z" />
    <glyph glyph-name="uni0621" unicode="&#x621;" horiz-adv-x="569" 
d="M512 143l-358.004 -170.003v19c0 38.667 56 80.334 168 125.001c-119.333 22 -179 62.333 -179 121c0 46 26 102.667 78 170c54.667 66.667 105.334 100 152.001 100c52 0 78 -27.333 78 -82c0 -11.333 -3.5 -24.666 -10.5 -39.999s-17.167 -32.666 -30.5 -51.999
c-25.333 39.333 -55.666 59 -90.999 59c-12.667 0 -25.167 -2.66699 -37.5 -8s-23.166 -12.5 -32.499 -21.5s-17 -19.5 -23 -31.5s-9 -24.333 -9 -37c0 -28 28.667 -52.667 86 -74c22.667 -7.33301 44.334 -12.833 65.001 -16.5s40.667 -5.5 60 -5.5
c33.333 0 80.333 11.333 141 34c-11.333 -45.333 -30.333 -75.333 -57 -90z" />
    <glyph glyph-name="uni0640" unicode="&#x640;" horiz-adv-x="465" 
d="M-70 0v139h535v-139h-535z" />
    <glyph glyph-name="uni064B" unicode="&#x64b;" 
d="M272 287l-272 -156.001c2 38.667 21.667 69.334 59 92.001l246 142c0 -40.667 -11 -66.667 -33 -78zM297 183.499c-5.33301 -13 -13.667 -22.167 -25 -27.5l-272 -156c2 39.333 21.667 69.333 59 90l246 143c0 -20 -2.66699 -36.5 -8 -49.5z" />
    <glyph glyph-name="uni064C" unicode="&#x64c;" 
d="M360 97c0 -8 -0.665039 -15.666 -1.99805 -22.999c-12 6 -25.167 13.5 -39.5 22.5s-29.166 19.167 -44.499 30.5c-72 -77.333 -143.667 -121 -215 -131c24.667 54 37 93 37 117c0 32.667 -14.333 49 -43 49c-26 0 -41 -23.333 -45 -70c-3.33301 9.33301 -5.5 18 -6.5 26
s-1.5 15 -1.5 21c0 24 6 46.667 18 68c14.667 22 34 33 58 33c40.667 0 61 -25.333 61 -76c0 -6.66699 -2 -39.334 -6 -98.001c19.333 7.33301 38.666 17.833 57.999 31.5s37.666 30.167 54.999 49.5c-41.333 27.333 -62 55.333 -62 84c0 30.667 11 60 33 88
c22.667 30.667 48.667 46 78 46c8 0 15.833 -2.16699 23.5 -6.5s14.167 -10 19.5 -17s9.66602 -14.833 12.999 -23.5s5 -17 5 -25c0 -9.33301 -2.33301 -22.5 -7 -39.5s-11.667 -38.167 -21 -63.5c22.667 -18.667 34 -39.667 34 -63v-30zM256.002 303.001
c-16.667 0 -25 -6.66602 -25 -19.999c0 -14.667 19.333 -35.334 58 -62.001c1.33301 3.33301 2.33301 8 3 14s1 13 1 21c0 31.333 -12.333 47 -37 47z" />
    <glyph glyph-name="uni064D" unicode="&#x64d;" 
d="M272 -78l-272 -156.001c2 38.667 21.667 69.334 59 92.001l246 142c0 -40.667 -11 -66.667 -33 -78zM297 -181.501c-5.33301 -13 -13.667 -22.167 -25 -27.5l-272 -156c2 39.333 21.667 69.333 59 90l246 143c0 -20 -2.66699 -36.5 -8 -49.5z" />
    <glyph glyph-name="uni064E" unicode="&#x64e;" 
d="M297 183.5c-5.33301 -13 -13.667 -22.167 -25 -27.5l-272 -156c2 39.333 21.667 69.333 59 90l246 143c0 -20 -2.66699 -36.5 -8 -49.5z" />
    <glyph glyph-name="uni064F" unicode="&#x64f;" 
d="M317 84l-71 44.998c-72 -86 -131.333 -129 -178 -129c-6.66699 0 -14.5 0.833008 -23.5 2.5s-19.167 4.16699 -30.5 7.5c31.333 17.333 62.833 37.833 94.5 61.5s64.5 50.5 98.5 80.5c-18.667 13.333 -32.5 26.833 -41.5 40.5s-13.5 27.167 -13.5 40.5
c0 30.667 9.33301 63 28 97c22.667 36.667 48 55 76 55c40.667 0 61 -26.667 61 -80c0 -29.333 -8.66699 -64.666 -26 -105.999c4 -3.33301 9 -7.16602 15 -11.499s12.667 -9.5 20 -15.5zM213 306.998c-9.33301 0 -14 -6 -14 -18c0 -19.333 19 -42 57 -68
c4 12 6 22.333 6 31c0 36.667 -16.333 55 -49 55z" />
    <glyph glyph-name="uni0650" unicode="&#x650;" 
d="M297 -49.5c-5.33301 -13 -13.667 -22.167 -25 -27.5l-272 -156c2 39.333 21.667 69.333 59 90l246 143c0 -20 -2.66699 -36.5 -8 -49.5z" />
    <glyph glyph-name="uni0651" unicode="&#x651;" 
d="M233 59c-10 0 -19.668 1.66992 -29.001 5.00293s-18.666 8 -27.999 14c-2 -10.667 -6 -20.834 -12 -30.501s-13.333 -18 -22 -25s-18.167 -12.5 -28.5 -16.5s-20.833 -6 -31.5 -6c-49.333 0 -74 32 -74 96c0 7.33301 1.66699 18.666 5 33.999
s8.66602 34.666 15.999 57.999l20 5c0 -67.333 11.667 -101 35 -101c38.667 0 66 48.667 82 146l14 6c14.667 -58.667 32.334 -88 53.001 -88c35.333 0 56 44.333 62 133l20 8c8.66699 -32 13 -60.667 13 -86c0 -101.333 -31.667 -152 -95 -152z" />
    <glyph glyph-name="uni0652" unicode="&#x652;" 
d="M237 92.5c-7.33301 -17.667 -17.165 -33.332 -29.498 -46.999s-26.833 -24.667 -43.5 -33s-34.334 -12.5 -53.001 -12.5c-64.667 0 -97 36.333 -97 109c0 22.667 2.5 43.5 7.5 62.5s12.167 36.167 21.5 51.5c23.333 40 54.666 60 93.999 60c31.333 0 58 -15 80 -45
c20.667 -26.667 31 -57 31 -91c0 -18.667 -3.66699 -36.834 -11 -54.501zM162.001 178.002c-24 18 -46 27 -66 27c-35.333 0 -53 -20.667 -53 -62c0 -36.667 28 -55 84 -55c48 0 72 13 72 39c0 15.333 -12.333 32.333 -37 51z" />
    <glyph glyph-name="uni0653" unicode="&#x653;" 
d="M336 0c-13.333 0 -29.3311 1.50098 -47.998 4.50098s-40.334 8.16699 -65.001 15.5c-23.333 7.33301 -44.166 12.666 -62.499 15.999s-33.5 5 -45.5 5c-22.667 0 -49.334 -8.33301 -80.001 -25l-17 15c41.333 68 81.666 102 120.999 102c31.333 0 78 -8 140 -24
c60 -16.667 107 -25 141 -25c32.667 0 79 11.667 139 35l12 -13c-62.667 -70.667 -141 -106 -235 -106z" />
    <glyph glyph-name="uni0654" unicode="&#x654;" 
d="M267 86.5c-4 -7.66699 -9.66602 -12.498 -16.999 -14.498l-250 -72c8 34 38 60.667 90 80c-38 17.333 -57 41.333 -57 72c0 28.667 19 60 57 94s73 51 105 51c31.333 0 47 -17 47 -51c0 -14.667 -9 -35.334 -27 -62.001c-30.667 20.667 -55.334 31 -74.001 31
c-8 0 -17 -2.5 -27 -7.5s-20.667 -12.833 -32 -23.5c46.667 -44.667 89 -67 127 -67c14.667 0 38.667 4 72 12c-5.33301 -20.667 -10 -34.834 -14 -42.501z" />
    <glyph glyph-name="uni0655" unicode="&#x655;" 
d="M267 -210.5c-4 -7.66699 -9.66602 -12.498 -16.999 -14.498l-250 -72c8 34 38 60.667 90 80c-38 17.333 -57 41.333 -57 72c0 28.667 19 60 57 94s73 51 105 51c31.333 0 47 -17 47 -51c0 -14.667 -9 -35.334 -27 -62.001c-30.667 20.667 -55.334 31 -74.001 31
c-8 0 -17 -2.5 -27 -7.5s-20.667 -12.833 -32 -23.5c46.667 -44.667 89 -67 127 -67c14.667 0 38.667 4 72 12c-5.33301 -20.667 -10 -34.834 -14 -42.501z" />
    <glyph glyph-name="uni0660" unicode="&#x660;" horiz-adv-x="854" 
d="M515 427c-6 -32 -13.667 -70.668 -23 -116.001c-32 18.667 -61.833 37.334 -89.5 56.001s-53.167 37.667 -76.5 57c7.33301 36 15.5 70.5 24.5 103.5s19.167 65.5 30.5 97.5c46 -42 96.333 -82.333 151 -121c-5.33301 -19.333 -11 -45 -17 -77z" />
    <glyph glyph-name="uni0661" unicode="&#x661;" horiz-adv-x="938" 
d="M581 123.5c-3.33301 -39.667 -8.66699 -86.167 -16 -139.5h-22c-2 291.333 -86 563 -252 815c7.33301 32 15.5 64 24.5 96s18.5 64 28.5 96c161.333 -246.667 242 -502 242 -766c0 -28 -1.66699 -61.833 -5 -101.5z" />
    <glyph glyph-name="uni0662" unicode="&#x662;" horiz-adv-x="938" 
d="M694 851.5c-4 -35.667 -10.667 -64.168 -20 -85.501c-27.333 -72.667 -81.333 -109 -162 -109c-7.33301 0 -16.5 0.5 -27.5 1.5s-23.833 2.83301 -38.5 5.5c34 -79.333 59.333 -157.166 76 -233.499s25 -150.833 25 -223.5c0 -32.667 -4 -105 -12 -217h-29
c-12 170.667 -41.333 320 -88 448c-23.333 64.667 -53.5 130.167 -90.5 196.5s-80.5 134.833 -130.5 205.5l53 147c90 -114.667 174.667 -172 254 -172c96 0 155.333 54 178 162h18c0 -48 -2 -89.833 -6 -125.5z" />
    <glyph glyph-name="uni0663" unicode="&#x663;" horiz-adv-x="938" 
d="M657 702c-48.667 0 -89.333 22.001 -122 66.001c-46 -61.333 -96 -92 -150 -92c-8 0 -17 0.666992 -27 2c45.333 -124 68 -252.333 68 -385c0 -34 -2 -75.167 -6 -123.5s-9.66699 -104.833 -17 -169.5h-26c1.33301 31.333 2 56.666 2 75.999
c0 260.667 -84 503.667 -252 729l49 176c76.667 -105.333 146.334 -158 209.001 -158c89.333 0 153.666 56.667 192.999 170h12c10 -88.667 49 -133 117 -133c65.333 0 104 44.333 116 133l19 -2c0 -192.667 -61.667 -289 -185 -289z" />
    <glyph glyph-name="uni0664" unicode="&#x664;" horiz-adv-x="938" 
d="M678 -6c-252.667 45.333 -378.999 95.666 -378.999 150.999c0 58.667 22.667 120.334 68 185.001c6 9.33301 19.833 26.333 41.5 51l89.5 100l-94 40.5c-22.667 9.66699 -36.667 16.167 -42 19.5c-60 32.667 -90 64 -90 94c0 59.333 39 129 117 209
c30 32 61.167 60.833 93.5 86.5s66.166 49.167 101.499 70.5l-41 -153c-98.667 -40.667 -148 -75 -148 -103c0 -11.333 39.667 -38.333 119 -81s119 -70.667 119 -84c0 -10 -39.667 -60.667 -119 -152c-79.333 -89.333 -119 -141.333 -119 -156c0 -30.667 110 -73 330 -127z
" />
    <glyph glyph-name="uni0665" unicode="&#x665;" horiz-adv-x="938" 
d="M711 385c-16.667 -34 -34.167 -62.999 -52.5 -86.999s-37.833 -42.667 -58.5 -56c-41.333 -27.333 -99.333 -41 -174 -41c-30 0 -57.5 3.16699 -82.5 9.5s-48.167 16.166 -69.5 29.499c-48.667 30 -73 73.667 -73 131c0 66.667 26 150.667 78 252
c58.667 112 118.667 168 180 168c64 0 128 -26 192 -78c66 -56 99 -117 99 -183c0 -42 -13 -90.333 -39 -145zM573 580.001c-69.333 51.333 -129.333 77 -180 77c-32.667 0 -62.667 -23.667 -90 -71c-11.333 -21.333 -20 -41.833 -26 -61.5s-9 -38.167 -9 -55.5
c0 -79.333 82.667 -119 248 -119c110.667 0 166 25.333 166 76c0 46 -36.333 97.333 -109 154z" />
    <glyph glyph-name="uni0666" unicode="&#x666;" horiz-adv-x="938" 
d="M737 18c-90.667 22.667 -141.001 99.999 -151.001 231.999c-2 28.667 -4.66699 82.667 -8 162s-7 185 -11 317c-38 -9.33301 -73.167 -16.5 -105.5 -21.5s-61.833 -7.5 -88.5 -7.5c-71.333 0 -120 10.333 -146 31c-26 24.667 -39 71.667 -39 141
c0 15.333 0.5 31.166 1.5 47.499s2.83301 32.833 5.5 49.5h18c17.333 -33.333 44.333 -58.166 81 -74.499s82 -24.5 136 -24.5c26.667 0 57.334 3.16699 92.001 9.5s73.667 15.5 117 27.5c-10.667 -45.333 -18.5 -87.166 -23.5 -125.499s-7.5 -73.5 -7.5 -105.5
c0 -240 48.667 -395 146 -465z" />
    <glyph glyph-name="uni0667" unicode="&#x667;" horiz-adv-x="938" 
d="M604 422c-43.333 -130.667 -74 -267.334 -92 -410.001h-33c-9.33301 66.667 -22.666 133.667 -39.999 201s-40 134.333 -68 201c-35.333 85.333 -72.833 154.166 -112.5 206.499s-82.167 89.166 -127.5 110.499l14 234c88.667 -37.333 168 -150.666 238 -339.999
c15.333 -45.333 32.666 -103.166 51.999 -173.499s40.333 -153.833 63 -250.5c92 453.333 199.667 710 323 770v-215c-84 -47.333 -156.333 -158.666 -217 -333.999z" />
    <glyph glyph-name="uni0668" unicode="&#x668;" horiz-adv-x="938" 
d="M807 6c-87.333 36.667 -165.997 150.001 -235.997 340.001c-34.667 93.333 -73.334 234.666 -116.001 423.999c-46.667 -228.667 -96.667 -406.667 -150 -534s-111.333 -206 -174 -236v213c42 24.667 81.167 65 117.5 121s69.5 128.333 99.5 217
c21.333 64.667 39.666 130.667 54.999 198s27.666 137 36.999 209h33c9.33301 -66.667 22.833 -133.5 40.5 -200.5s40.5 -133.833 68.5 -200.5c69.333 -170 149 -275.667 239 -317z" />
    <glyph glyph-name="uni0669" unicode="&#x669;" horiz-adv-x="938" 
d="M725 -35c-57.333 28.667 -98.334 116.666 -123.001 263.999c-2 13.333 -5.5 46 -10.5 98s-11.167 124 -18.5 216c-61.333 -56 -124.666 -84 -189.999 -84c-52 0 -92.667 15.167 -122 45.5s-44 71.833 -44 124.5c0 35.333 10.333 79 31 131
c57.333 147.333 129 221 215 221c54.667 0 93.667 -24 117 -72c14 -30 24 -77.667 30 -143l25 -291c14 -167.333 53 -263.666 117 -288.999zM413.999 810.999c-34 0 -65.668 -7.66797 -95.001 -23.001c-34 -16 -51 -39 -51 -69c0 -31.333 16.333 -56.666 49 -75.999
c30.667 -14.667 61.667 -22 93 -22c44.667 0 92.334 16.333 143.001 49c-14 94 -60.333 141 -139 141z" />
    <glyph glyph-name="uni0670" unicode="&#x670;" 
d="M70 -2l-16.998 2c3.33301 12.667 5.83301 23 7.5 31s2.5 14 2.5 18c0 34.667 -10 84 -30 148c-19.333 66 -29 115 -29 147c0 12.667 4.5 27 13.5 43s22.167 33.667 39.5 53c1.33301 -18.667 4.16602 -41.667 8.49902 -69s11.166 -59 20.499 -95
c18 -71.333 27 -126.333 27 -165c0 -27.333 -14.333 -65 -43 -113z" />
    <glyph glyph-name="uni0700" unicode="&#x700;" horiz-adv-x="1083" 
d="M545 477l-162 162l162 162l164 -162zM782 238l-161 163l161 162l162 -162zM305 238l-162 163l162 162l164 -162zM545 0l-162 162l162 164l162 -164z" />
    <glyph glyph-name="uni0701" unicode="&#x701;" horiz-adv-x="449" 
d="M211 397c-40.667 0 -61 20.667 -61 62c0 39.333 20.333 59 61 59c38 0 57 -19.667 57 -59c0 -41.333 -19 -62 -57 -62z" />
    <glyph glyph-name="uni0702" unicode="&#x702;" horiz-adv-x="449" 
d="M211 -121c-40.667 0 -61 20 -61 60c0 40.667 20.333 61 61 61c38 0 57 -20.333 57 -61c0 -40 -19 -60 -57 -60z" />
    <glyph glyph-name="uni0703" unicode="&#x703;" horiz-adv-x="449" 
d="M211 686c-40.667 0 -61 20.667 -61 62c0 39.333 20.333 59 61 59c38 0 57 -19.667 57 -59c0 -41.333 -19 -62 -57 -62zM211 397c-40.667 0 -61 20.667 -61 62c0 39.333 20.333 59 61 59c38 0 57 -19.667 57 -59c0 -41.333 -19 -62 -57 -62z" />
    <glyph glyph-name="uni0704" unicode="&#x704;" horiz-adv-x="449" 
d="M211 -121c-40.667 0 -61 20 -61 60c0 40.667 20.333 61 61 61c38 0 57 -20.333 57 -61c0 -40 -19 -60 -57 -60zM211 -410c-40.667 0 -61 20 -61 60c0 39.333 20.333 59 61 59c38 0 57 -19.667 57 -59c0 -40 -19 -60 -57 -60z" />
    <glyph glyph-name="uni0705" unicode="&#x705;" horiz-adv-x="668" 
d="M459 397c-40 0 -60 20 -60 60c0 39.333 20 59 60 59c39.333 0 59 -19.667 59 -59c0 -40 -19.667 -60 -59 -60zM211 397c-40.667 0 -61 20.667 -61 62c0 39.333 20.333 59 61 59c38 0 57 -19.667 57 -59c0 -41.333 -19 -62 -57 -62z" />
    <glyph glyph-name="uni0706" unicode="&#x706;" horiz-adv-x="600" 
d="M211 285c-40.667 0 -61 19.667 -61 59s20.333 59 61 59c38 0 57 -19.667 57 -59s-19 -59 -57 -59zM389 0c-39.333 0 -59 19.667 -59 59c0 40 19.667 60 59 60c41.333 0 62 -20 62 -60c0 -39.333 -20.667 -59 -62 -59z" />
    <glyph glyph-name="uni0707" unicode="&#x707;" horiz-adv-x="600" 
d="M389 287c-39.333 0 -59 19.667 -59 59c0 40 19.667 60 59 60c41.333 0 62 -20 62 -60c0 -39.333 -20.667 -59 -62 -59zM211 0c-40.667 0 -61 19.667 -61 59c0 41.333 20.333 62 61 62c38 0 57 -20.667 57 -62c0 -39.333 -19 -59 -57 -59z" />
    <glyph glyph-name="uni0708" unicode="&#x708;" horiz-adv-x="600" 
d="M211 686c-40.667 0 -61 20.667 -61 62c0 39.333 20.333 59 61 59c38 0 57 -19.667 57 -59c0 -41.333 -19 -62 -57 -62zM389 399c-39.333 0 -59 20 -59 60c0 39.333 19.667 59 59 59c41.333 0 62 -19.667 62 -59c0 -40 -20.667 -60 -62 -60z" />
    <glyph glyph-name="uni0709" unicode="&#x709;" horiz-adv-x="600" 
d="M209 0c-41.333 0 -62 19.667 -62 59c0 40 20.667 60 62 60c39.333 0 59 -20 59 -60c0 -39.333 -19.667 -59 -59 -59zM387 -289c-38 0 -57 20 -57 60c0 39.333 19 59 57 59c41.333 0 62 -19.667 62 -59c0 -40 -20.667 -60 -62 -60z" />
    <glyph glyph-name="uni070A" unicode="&#x70a;" horiz-adv-x="784" 
d="M150 813v84h102l29 35v86h43v-86l29 -35h79l29 35v90h43v-90l29 -35h102v-84h-485zM341 397v103h103v-103h-103zM341 0v102h103v-102h-103z" />
    <glyph glyph-name="uni070B" unicode="&#x70b;" horiz-adv-x="1249" 
d="M149 819v76h953v-76h-953zM579 664v92h93v-92h-93z" />
    <glyph glyph-name="uni070C" unicode="&#x70c;" horiz-adv-x="1024" 
d="M676 401l72 74l-603 602l54 53l602 -602l73 76v-203h-198z" />
    <glyph glyph-name="uni070D" unicode="&#x70d;" horiz-adv-x="1026" 
d="M655 664c-28.667 0 -43 15 -43 45s14.333 45 43 45c30 0 45 -15 45 -45s-15 -45 -45 -45zM381 659c-30 0 -45 15.333 -45 46c0 30 15 45 45 45s45 -15 45 -45c0 -30.667 -15 -46 -45 -46zM655 377c-28.667 0 -43 15 -43 45s14.333 45 43 45c30 0 45 -15 45 -45
s-15 -45 -45 -45zM553 520v-321h-80v321h-323v80h323v324h80v-324h324v-80h-324zM379 377c-30 0 -45 15 -45 45s15 45 45 45s45 -15 45 -45s-15 -45 -45 -45z" />
    <glyph glyph-name="uni070F" unicode="&#x70f;" horiz-adv-x="41" 
d="M184 1298c-20 0 -34.3311 7.66699 -42.998 23h-80c-3.33301 -8.66699 -10 -14.667 -20 -18v-1420h-41v1420c-10 3.33301 -16.667 9.33301 -20 18h-80c-8 -15.333 -22.333 -23 -43 -23c-28.667 0 -43 14.333 -43 43s14.333 43 43 43c19.333 0 33.666 -9.33301 42.999 -28
h80c7.33301 18.667 20.666 28 39.999 28s33 -9.33301 41 -28h80c8 18.667 22.333 28 43 28c28.667 0 43 -14.333 43 -43s-14.333 -43 -43 -43z" />
    <glyph glyph-name="uni0710" unicode="&#x710;" horiz-adv-x="1524" 
d="M1462 716.5c-42.667 -48.333 -106.666 -100.834 -191.999 -157.501c-132.667 -88 -312.334 -133 -539.001 -135c15.333 -9.33301 46.5 -31.333 93.5 -66l189.5 -143c7.33301 -5.33301 17 -10.166 29 -14.499s26.667 -9.16602 44 -14.499c38.667 -8 62.667 -16 72 -24
c20.667 -18.667 31 -45.334 31 -80.001c0 -32.667 -14.333 -59.334 -43 -80.001c-27.333 -18 -58 -27 -92 -27c-81.333 0 -173 69 -275 207c-52 72.667 -113.333 130.667 -184 174c-59.333 37.333 -109.333 56 -150 56c-30.667 0 -52.334 -3.66699 -65.001 -11
c-26 -13.333 -39 -45.333 -39 -96v-117l2 -118c0 -57.333 -12.333 -86 -37 -86c-36 0 -71.333 66 -106 198c-15.333 56.667 -26.666 106.334 -33.999 149.001s-11 79 -11 109c0 44 17 79 51 105c30.667 26 68 39 112 39c29.333 0 74 -2 134 -6
c30 -2.66699 55.833 -4.5 77.5 -5.5s40.167 -1.5 55.5 -1.5c246.667 0 426.667 43.667 540 131c13.333 9.33301 62 62 146 158c61.333 72.667 114 109 158 109c64 0 96 -39 96 -117c0 -42 -21.333 -87.167 -64 -135.5z" />
    <glyph glyph-name="uni0711" unicode="&#x711;" 
d="M459 242c-55.333 -36.667 -129.668 -55.9951 -223.001 -57.9951c26.667 -32.667 64.334 -60.667 113.001 -84c51.333 -18 77 -37 77 -57c0 -28.667 -19 -43 -57 -43c-22 0 -61 30 -117 90c-55.333 60 -100.333 90 -135 90c-30 0 -45 -23 -45 -69
c0 -4 0.166992 -9.5 0.5 -16.5s0.833008 -14.167 1.5 -21.5s1.16699 -14.333 1.5 -21s0.5 -11.667 0.5 -15c0 -22 -5 -33 -15 -33c-16.667 0 -32.334 27.333 -47.001 82c-5.33301 21.333 -9.33301 41.166 -12 59.499s-4 34.166 -4 47.499c0 39.333 22.667 59 68 59
c6 0 13.833 -0.333008 23.5 -1s19.834 -1.33398 30.501 -2.00098s20.834 -1.33398 30.501 -2.00098s17.5 -1 23.5 -1c86 0 154.333 14.333 205 43c13.333 7.33301 26.666 17.666 39.999 30.999s27.333 29.666 42 48.999c22.667 28.667 43.667 43 63 43
c26 0 39 -17.333 39 -52c0 -31.333 -34.667 -70.666 -104 -117.999z" />
    <glyph glyph-name="uni0712" unicode="&#x712;" horiz-adv-x="1370" 
d="M1339 86c-26 -57.333 -66.6602 -86 -121.993 -86h-918c-104 0 -156 45.667 -156 137c0 83.333 25 125 75 125c23.333 0 56.333 -20.333 99 -61c38.667 -41.333 73.667 -62 105 -62h749c44 0 66 37 66 111c0 138 -47.667 207 -143 207
c-27.333 0 -60.166 -3.16699 -98.499 -9.5s-83.5 -15.5 -135.5 -27.5c-100.667 -24.667 -178.334 -37 -233.001 -37c-15.333 0 -29.833 2.83301 -43.5 8.5s-25.834 13.167 -36.501 22.5s-19.167 20.5 -25.5 33.5s-9.5 26.833 -9.5 41.5s2.83301 28.5 8.5 41.5
s13.667 24.167 24 33.5s22.333 16.666 36 21.999s28.5 8 44.5 8c11.333 0 25.166 -1 41.499 -3s35.166 -5.66699 56.499 -11s40.166 -9.16602 56.499 -11.499s30.166 -3.5 41.499 -3.5c17.333 0 39.166 1 65.499 3s56.5 5.33301 90.5 10c34 5.33301 63.667 9 89 11
s46.666 3 63.999 3c160 0 240 -116 240 -348c0 -61.333 -10.333 -114 -31 -158z" />
    <glyph glyph-name="uni0713" unicode="&#x713;" horiz-adv-x="2474" 
d="M2394 -578c-28 0 -66.333 8.66504 -115 25.998s-109.334 43 -182 77l-118 56.5l-185 90.5c-78.667 37.333 -167.167 73.666 -265.5 108.999s-207.833 70 -328.5 104c-130.667 38 -247 66.333 -349 85s-190.333 28 -265 28c-18.667 0 -41.667 -1.66699 -69 -5
s-59.666 -8.66602 -96.999 -15.999s-69.666 -12.5 -96.999 -15.5s-50.333 -4.5 -69 -4.5c-74 0 -111 27.333 -111 82c0 79.333 54.667 119 164 119c375.333 0 796.666 -86 1264 -258l-142 115l-192 163l-406 342c-147.333 125.333 -221 214.666 -221 267.999
c0 29.333 10.167 53.833 30.5 73.5s45.166 29.5 74.499 29.5c38 0 89.667 -36.333 155 -109l240 -270c62 -68.667 142 -149.167 240 -241.5s215.333 -197.5 352 -315.5c53.333 -46 108.5 -87.833 165.5 -125.5s115.833 -71.5 176.5 -101.5
c19.333 -9.33301 43.833 -19.166 73.5 -29.499s65.167 -21.166 106.5 -32.499c166.667 -45.333 250 -95.666 250 -150.999c0 -62 -26.667 -93 -80 -93z" />
    <glyph glyph-name="uni0714" unicode="&#x714;" horiz-adv-x="2474" 
d="M2394 -578c-28 0 -66.333 8.66406 -115 25.9971s-109.334 43 -182 77l-118 56.5l-185 90.5c-78.667 37.333 -167.167 73.666 -265.5 108.999s-207.833 70 -328.5 104c-130.667 38 -247 66.333 -349 85s-190.333 28 -265 28c-18.667 0 -41.667 -1.66699 -69 -5
s-59.666 -8.66602 -96.999 -15.999s-69.666 -12.5 -96.999 -15.5s-50.333 -4.5 -69 -4.5c-74 0 -111 27.333 -111 82c0 79.333 54.667 119 164 119c112 0 219.167 -5.66699 321.5 -17s201.5 -28.333 297.5 -51l172 207c-325.333 259.333 -488 423 -488 491
c0 29.333 10.167 53.833 30.5 73.5s45.166 29.5 74.499 29.5c40 0 91.667 -36.333 155 -109l240 -270c60.667 -66.667 140.167 -146.5 238.5 -239.5s216.166 -198.833 353.499 -317.5c53.333 -46 108.5 -87.833 165.5 -125.5s115.833 -71.5 176.5 -101.5
c19.333 -9.33301 43.833 -19.166 73.5 -29.499s65.167 -21.166 106.5 -32.499c166.667 -45.333 250 -95.666 250 -150.999c0 -62 -26.667 -93 -80 -93zM1365 67.9971l-194.001 168l-137 -170c86.667 -21.333 174.334 -45.833 263.001 -73.5s180 -58.5 274 -92.5z" />
    <glyph glyph-name="uni0715" unicode="&#x715;" horiz-adv-x="686" 
d="M592 -70c-58 0 -96.333 30.999 -115 92.999c-3.33301 11.333 -7.33301 33.666 -12 66.999s-10 77.666 -16 132.999c-5.33301 46 -12.166 85.5 -20.499 118.5s-18.833 59.167 -31.5 78.5c-16 26 -65.667 49 -149 69c-68.667 19.333 -103 53 -103 101c0 30 16 54.667 48 74
c27.333 14.667 58 22 92 22c44.667 0 136.667 -2 276 -6c8.66699 -19.333 16.5 -40.666 23.5 -63.999l21.5 -75c-2 -4 -10 -15 -24 -33c-4.66699 -5.33301 -8 -11.333 -10 -18s-3 -13.667 -3 -21c0 -35.333 19.333 -101 58 -197
c19.333 -47.333 33.666 -87.666 42.999 -120.999s14 -59.666 14 -78.999c0 -94.667 -30.667 -142 -92 -142zM342.5 18.999c-5 -11.333 -11.833 -21.333 -20.5 -30s-18.667 -15.5 -30 -20.5s-23.333 -7.5 -36 -7.5s-24.667 2.5 -36 7.5s-21.333 11.833 -30 20.5
s-15.5 18.667 -20.5 30s-7.5 23.333 -7.5 36s2.5 24.834 7.5 36.501s11.833 21.834 20.5 30.501s18.667 15.5 30 20.5s23.333 7.5 36 7.5s24.667 -2.5 36 -7.5s21.333 -11.833 30 -20.5s15.5 -18.834 20.5 -30.501s7.5 -23.834 7.5 -36.501s-2.5 -24.667 -7.5 -36z" />
    <glyph glyph-name="uni0716" unicode="&#x716;" horiz-adv-x="686" 
d="M592 -70c-58 0 -96.333 30.999 -115 92.999c-3.33301 11.333 -7.33301 33.666 -12 66.999s-10 77.666 -16 132.999c-5.33301 46 -12.166 85.5 -20.499 118.5s-18.833 59.167 -31.5 78.5c-16 26 -65.667 49 -149 69c-68.667 19.333 -103 53 -103 101c0 30 16 54.667 48 74
c27.333 14.667 58 22 92 22c44.667 0 136.667 -2 276 -6c8.66699 -19.333 16.5 -40.666 23.5 -63.999l21.5 -75c-2 -4 -10 -15 -24 -33c-4.66699 -5.33301 -8 -11.333 -10 -18s-3 -13.667 -3 -21c0 -35.333 19.333 -101 58 -197
c19.333 -47.333 33.666 -87.666 42.999 -120.999s14 -59.666 14 -78.999c0 -94.667 -30.667 -142 -92 -142z" />
    <glyph glyph-name="uni0717" unicode="&#x717;" horiz-adv-x="1360" 
d="M1106 -8c-55.333 0 -90.9971 5.33301 -106.997 16c-1.33301 7.33301 -2 25.666 -2 54.999c0 16.667 0.333008 30.5 1 41.5s1.66699 19.167 3 24.5c13.333 -1.33301 29.333 -2.33301 48 -3s39.667 -1 63 -1c68 0 102 52.667 102 158c0 133.333 -58 200 -174 200
c-55.333 0 -104.333 -8 -147 -24l-109 -273c-59.333 -146 -110.333 -219 -153 -219c-41.333 0 -62 16.333 -62 49c0 12 20.667 63.333 62 154c21.333 45.333 37.166 83.333 47.499 114s15.5 54 15.5 70c0 84.667 -63.333 127 -190 127c-143.333 0 -215 -55.333 -215 -166
c0 -66 16.333 -118.333 49 -157c11.333 -14.667 28 -30.334 50 -47.001s49 -34.667 81 -54c-3.33301 -23.333 -11 -42.666 -23 -57.999s-27.667 -26.666 -47 -33.999c-170.667 64 -256 179.333 -256 346c0 203.333 118.333 305 355 305c15.333 0 34.166 -0.5 56.499 -1.5
s48.5 -3.16699 78.5 -6.5c58.667 -4 103.667 -6 135 -6c17.333 0 38.833 0.5 64.5 1.5s56.167 3.16699 91.5 6.5c36 3.33301 67.167 5.5 93.5 6.5s48.166 1.5 65.499 1.5c184.667 0 277 -108.333 277 -325c0 -200.667 -84.667 -301 -254 -301z" />
    <glyph glyph-name="uni0718" unicode="&#x718;" horiz-adv-x="909" 
d="M827 31c-48.667 0 -79.333 43.665 -92 130.998c-6.66699 85.333 -18.334 168 -35.001 248c-26 87.333 -79 131 -159 131c-35.333 0 -68 -5.83301 -98 -17.5s-55.833 -28.167 -77.5 -49.5s-38.5 -46.666 -50.5 -75.999s-18 -61.666 -18 -96.999
c0 -108 58.667 -162 176 -162c43.333 0 89 7.66699 137 23c4 -5.33301 8.66699 -12.666 14 -21.999l21 -38c8.66699 -15.333 15 -28 19 -38s6 -17 6 -21c0 -15.333 -28 -27 -84 -35c-21.333 -3.33301 -41 -5.5 -59 -6.5s-34.667 -1.5 -50 -1.5
c-98 0 -176.333 23.333 -235 70c-66 50.667 -99 123.667 -99 219c0 121.333 43.667 217.666 131 288.999c81.333 68 183.333 102 306 102c112.667 0 199.334 -62.667 260.001 -188c46 -98 69.667 -210.667 71 -338c0 -82 -28 -123 -84 -123z" />
    <glyph glyph-name="uni0719" unicode="&#x719;" horiz-adv-x="506" 
d="M410 -70c-78 0 -116.999 43 -116.999 129c0 4.66699 0.166992 10.667 0.5 18s0.833008 15 1.5 23s1.16699 15.5 1.5 22.5s0.5 12.5 0.5 16.5c0 25.333 -6.66699 57.833 -20 97.5s-32.666 85.834 -57.999 138.501c-50.667 103.333 -76 171 -76 203
c0 16.667 3.33301 32 10 46s15.5 26 26.5 36s23.833 17.833 38.5 23.5s30 8.5 46 8.5c61.333 0 105 -44.333 131 -133c3.33301 -9.33301 7.66602 -31.333 12.999 -66l22 -145c4 -26.667 18.333 -76.334 43 -149.001c11.333 -32 19.666 -60.5 24.999 -85.5s8 -47.167 8 -66.5
c0 -78 -32 -117 -96 -117z" />
    <glyph glyph-name="uni071A" unicode="&#x71a;" horiz-adv-x="1130" 
d="M1111.5 151c-12.333 -32 -29.8311 -59.166 -52.498 -81.499s-50 -39.5 -82 -51.5s-67.667 -18 -107 -18c-104.667 0 -195.334 26.667 -272.001 80c-76.667 -53.333 -157.334 -80 -242.001 -80c-54.667 0 -102.334 14.333 -143.001 43c-46.667 32.667 -70 75.667 -70 129
c0 46.667 12.667 70 38 70c8.66699 0 18 -9 28 -27c26.667 -50.667 70.334 -76 131.001 -76c84.667 0 127 15.667 127 47c0 3.33301 -6.66699 13.666 -20 30.999l-58 76c-50.667 64.667 -76 117 -76 157c0 60.667 35.667 91 107 91c72.667 0 126.667 -35 162 -105
c3.33301 -5.33301 12.333 -24 27 -56l63 -136c40.667 -70 100.667 -105 180 -105c57.333 0 86 15.333 86 46c0 18.667 -18.333 56 -55 112c-19.333 29.333 -33.166 54.333 -41.499 75s-12.5 40.667 -12.5 60c0 70 34.333 105 103 105c61.333 0 111.666 -32.333 150.999 -97
c31.333 -53.333 47 -114 47 -182c0 -39.333 -6.16699 -75 -18.5 -107z" />
    <glyph glyph-name="uni071B" unicode="&#x71b;" horiz-adv-x="1583" 
d="M1483 -328c-80 -159.333 -172.334 -239 -277.001 -239c-72 0 -134.667 48.333 -188 145c-14.667 25.333 -29.5 55.5 -44.5 90.5s-30.167 74.5 -45.5 118.5l-80 213h-445c-38 -0 -71 1.33301 -99 4s-50.667 6.66699 -68 12c-62 20.667 -93 61.667 -93 123
c0 78 31.667 117 95 117c32 0 55 -10.333 69 -31l39 -53c19.333 -22 59.666 -33 120.999 -33h319l-245 555c-7.33301 17.333 -24.166 51.5 -50.499 102.5l-105.5 207.5c-79.333 148 -119 238 -119 270c0 48 29.333 72 88 72c76.667 0 138.334 -60.333 185.001 -181
l58 -156.5l95 -254.5l90.5 -228.5l157.5 -386.5h555c29.333 0 49 -2 59 -6c19.333 -8 29 -34 29 -78c0 -118 -33.333 -245.667 -100 -383zM998.999 0l56.999 -163.501c14 -40.333 23.667 -67.166 29 -80.499c52 -122.667 93 -184 123 -184c54.667 0 107.334 58 158.001 174
c20.667 48 37 93.333 49 136s19.667 82 23 118h-439z" />
    <glyph glyph-name="uni071C" unicode="&#x71c;" horiz-adv-x="1583" 
d="M1483 -328c-80 -159.333 -172.335 -239 -277.002 -239c-72 0 -134.667 48.333 -188 145c-14.667 25.333 -29.5 55.5 -44.5 90.5s-30.167 74.5 -45.5 118.5l-80 213h-445c-38 -0 -71 1.33301 -99 4s-50.667 6.66699 -68 12c-62 20.667 -93 61.667 -93 123
c0 78 31.667 117 95 117c32 0 55 -10.333 69 -31l39 -53c20.667 -22 61 -33 121 -33h319l-245 555c-7.33301 17.333 -24.166 51.5 -50.499 102.5l-105.5 207.5c-79.333 148 -119 238 -119 270c0 48 29.333 72 88 72c76.667 0 138.334 -60.333 185.001 -181l58 -156.5
l95 -254.5l90.5 -228.5l157.5 -386.5h555c29.333 0 49 -2 59 -6c19.333 -8 29 -34 29 -78c0 -118 -33.333 -245.667 -100 -383zM998.998 0l56.999 -163.501c14 -40.333 23.667 -67.166 29 -80.499c52 -122.667 93 -184 123 -184c54.667 0 107.334 58 158.001 174
c20.667 48 37 93.333 49 136s19.667 82 23 118h-439zM1219 -227.001c-10.667 0 -20.999 2 -30.999 6s-18.667 9.5 -26 16.5s-13.333 15.167 -18 24.5s-7 19.333 -7 30c0 24 8.33301 43.333 25 58s35.667 22 57 22c23.333 0 42.666 -7.33301 57.999 -22s23 -34 23 -58
c0 -51.333 -27 -77 -81 -77z" />
    <glyph glyph-name="uni071D" unicode="&#x71d;" horiz-adv-x="453" 
d="M391 -119c-46 -68.667 -96.999 -102.999 -152.999 -102.999c-64.667 0 -97 31.667 -97 95c0 66 54 127.667 162 185c-106.667 45.333 -160 101 -160 167c0 32 9.16699 58.833 27.5 80.5s43.5 32.5 75.5 32.5c53.333 0 101.666 -32.667 144.999 -98
c41.333 -60.667 62 -119.667 62 -177c0 -58.667 -20.667 -119.334 -62 -182.001z" />
    <glyph glyph-name="uni071E" unicode="&#x71e;" horiz-adv-x="1819" 
d="M811 1002.5c-13.333 -14.333 -30.333 -21.5 -51 -21.5s-37.834 7.16699 -51.501 21.5s-20.5 31.166 -20.5 50.499c0 20.667 6.83301 37.667 20.5 51s30.834 20 51.501 20s37.667 -6.66699 51 -20s20 -30.333 20 -51c0 -19.333 -6.66699 -36.166 -20 -50.499zM980 756.5
c-14 -14.333 -30.667 -21.5 -50 -21.5c-20.667 0 -38.167 7.16699 -52.5 21.5s-21.5 31.833 -21.5 52.5c0 19.333 7.16699 36.166 21.5 50.499s31.833 21.5 52.5 21.5c19.333 0 36 -7.16699 50 -21.5s21 -31.166 21 -50.499c0 -20.667 -7 -38.167 -21 -52.5zM676 750.5
c-13.333 -14.333 -30.333 -21.5 -51 -21.5c-19.333 0 -36.166 7.16699 -50.499 21.5s-21.5 31.833 -21.5 52.5c0 19.333 7.16699 36 21.5 50s31.166 21 50.499 21c20.667 0 37.667 -7 51 -21s20 -30.667 20 -50c0 -20.667 -6.66699 -38.167 -20 -52.5zM1749 18
c-29.333 -12 -79.3271 -18.001 -149.994 -18.001h-204c-60.667 0 -104.334 13 -131.001 39c-41.333 -31.333 -94 -47 -158 -47c-55.333 0 -91 5.33301 -107 16c-1.33301 7.33301 -2 25.666 -2 54.999c0 16.667 0.333008 30.5 1 41.5s1.66699 19.167 3 24.5
c13.333 -1.33301 29.333 -2.33301 48 -3s39.667 -1 63 -1c68 0 102 52.667 102 158c0 133.333 -58 200 -174 200c-55.333 0 -104.333 -8 -147 -24l-109 -273c-57.333 -146 -108.333 -219 -153 -219c-41.333 0 -62 16.333 -62 49c0 12 20.667 63.333 62 154
c21.333 45.333 37.166 83.333 47.499 114s15.5 54 15.5 70c0 84.667 -63.333 127 -190 127c-143.333 0 -215 -55.333 -215 -166c0 -66 16.333 -118.333 49 -157c11.333 -14.667 28 -30.334 50 -47.001s49 -34.667 81 -54c-3.33301 -23.333 -11 -42.666 -23 -57.999
s-27.667 -26.666 -47 -33.999c-170.667 64 -256 179.333 -256 346c0 203.333 118.333 305 355 305c15.333 0 34.166 -0.5 56.499 -1.5s48.5 -3.16699 78.5 -6.5c58.667 -4 103.667 -6 135 -6c17.333 0 38.833 0.5 64.5 1.5s56.167 3.16699 91.5 6.5
c36 3.33301 67.167 5.5 93.5 6.5s48.166 1.5 65.499 1.5c184.667 0 277 -108.333 277 -325c0 -60.667 -8.33301 -112 -25 -154h156c35.333 0 53 6.66699 53 20c-49.333 73.333 -74 122.666 -74 147.999c0 60 35.667 90 107 90c59.333 0 114.666 -28 165.999 -84
c25.333 -28 44.666 -56.167 57.999 -84.5s20 -58.166 20 -89.499c0 -59.333 -24 -99.666 -72 -120.999zM811.006 -232.501c-13.333 -14.333 -30.333 -21.5 -51 -21.5s-37.834 7.16699 -51.501 21.5s-20.5 31.833 -20.5 52.5c0 19.333 6.83301 36 20.5 50
s30.834 21 51.501 21s37.667 -7 51 -21s20 -30.667 20 -50c0 -20.667 -6.66699 -38.167 -20 -52.5z" />
    <glyph glyph-name="uni071F" unicode="&#x71f;" horiz-adv-x="1786" 
d="M1749 -643l-178 314.997c-225.333 400 -397.333 600 -516 600c-59.333 0 -108.666 -25.667 -147.999 -77l-41 -56.5l-65 -89.5c-51.333 -53.333 -119 -80 -203 -80c-86.667 0 -207.334 86.667 -362.001 260c-62 68 -93 133.667 -93 197
c0 22.667 4.16699 43.334 12.5 62.001s20 34.834 35 48.501s32.333 24.334 52 32.001s41.167 11.5 64.5 11.5c94.667 0 142 -40.333 142 -121c0 -8 -1.66699 -18.167 -5 -30.5s-7.16602 -25 -11.499 -38s-8.16602 -25.5 -11.499 -37.5s-5 -21.667 -5 -29
c0 -101.333 60 -152 180 -152c75.333 0 130.666 30 165.999 90c26 60 54.667 115.333 86 166c42.667 58.667 109 88 199 88c128 0 257 -109.333 387 -328c57.333 -96.667 135.666 -261.667 234.999 -495c15.333 -36 32.833 -82 52.5 -138s41.167 -122 64.5 -198h-37z" />
    <glyph glyph-name="uni0720" unicode="&#x720;" horiz-adv-x="1110" 
d="M1057 4c-7.33301 -1.33301 -18.998 -2.33301 -34.998 -3s-35.667 -1 -59 -1h-625c-51.333 -0 -94.333 10.333 -129 31c-44 24.667 -66 60.667 -66 108c0 86 31 129 93 129c21.333 0 54.666 -21.667 99.999 -65c44.667 -42.667 83 -64 115 -64h481l-122.5 247.5
c-43.667 91.667 -89.5 194.167 -137.5 307.5c-60.667 141.333 -106.334 256.666 -137.001 345.999s-46 153 -46 191c0 74.667 34.333 112 103 112c51.333 0 92.333 -45.667 123 -137c3.33301 -11.333 8.83301 -33.666 16.5 -66.999s17.167 -78.333 28.5 -135
c57.333 -282.667 151.333 -547.667 282 -795c48 -90 72 -140 72 -150c0 -30.667 -19 -49 -57 -55z" />
    <glyph glyph-name="uni0721" unicode="&#x721;" horiz-adv-x="1282" 
d="M1122 0l-227 0.00195312c-94 0 -171 28 -231 84l-187 -215c-105.333 -124 -166.666 -186 -183.999 -186c-26 0 -39 12.667 -39 38c0 31.333 113.333 185.666 340 462.999c-24.667 30.667 -37 84 -37 160c0 32.667 7.66699 71 23 115c-44 3.33301 -87 8 -129 14
s-83 14.333 -123 25c-123.333 32 -185 74.333 -185 127c0 56 34.333 84 103 84c44 0 124.333 -20.667 241 -62c118 -39.333 206.333 -59 265 -59h270c127.333 0 199 -50.667 215 -152c15.333 -87.333 26.666 -157.833 33.999 -211.5s11 -90.834 11 -111.501
c0 -75.333 -53.333 -113 -160 -113zM1115 257.502c-4.66699 30.333 -11.667 69.501 -21 117.501c-11.333 49.333 -45 74 -101 74h-174c-66.667 0 -100 -35.667 -100 -107c0 -135.333 72.333 -203 217 -203h125c40.667 0 61 18.667 61 56c0 11.333 -2.33301 32.166 -7 62.499
z" />
    <glyph glyph-name="uni0722" unicode="&#x722;" horiz-adv-x="1991" 
d="M1978 -580c-167.333 71.333 -339.665 139.002 -516.998 203.002s-361.333 125.333 -552 184c-32 9.33301 -69 18.5 -111 27.5s-90.333 17.167 -145 24.5l-260 35c-30 4 -59.5 12 -88.5 24s-57.5 28.333 -85.5 49c-62.667 44.667 -94 94 -94 148c0 48 17 86.667 51 116
c32 30 73 45 123 45c75.333 0 204.333 -60.667 387 -182c101.333 -66.667 191.666 -123.334 270.999 -170.001s148.666 -83.334 207.999 -110.001l355.5 -158l470.5 -205z" />
    <glyph glyph-name="uni0723" unicode="&#x723;" horiz-adv-x="1264" 
d="M1102 96c-97.333 -64 -203.998 -95.999 -319.998 -95.999h-141c-138 0 -253.333 36.333 -346 109c-101.333 80 -152 187 -152 321c0 80.667 30 147 90 199c56.667 47.333 125.667 71 207 71c33.333 0 65.666 -5.33301 96.999 -16s60.166 -25.834 86.499 -45.501
s49.333 -43 69 -70s34.5 -56.833 44.5 -89.5c98.667 98.667 193.667 148 285 148c72 0 130.667 -24.667 176 -74c44 -48 66 -108.667 66 -182c0 -111.333 -54 -203 -162 -275zM985.002 487.001c-56 0 -103 -29.334 -141 -88.001c-35.333 -51.333 -53 -105.666 -53 -162.999
v-97h59c62 0 120 22 174 66c57.333 45.333 86 99.333 86 162c0 80 -41.667 120 -125 120zM649.002 236c0 84 -13.667 153.999 -41 209.999c-34.667 75.333 -89.334 113 -164.001 113c-96.667 0 -145 -52 -145 -156c0 -67.333 30.667 -128.666 92 -183.999
c62.667 -53.333 128.334 -80 197.001 -80h61v97z" />
    <glyph glyph-name="uni0724" unicode="&#x724;" horiz-adv-x="1264" 
d="M1100 96c-40 -27.333 -85.665 -50.165 -136.998 -68.498s-101.333 -27.5 -150 -27.5h-27l-24 -184h-103l-14 184h-31c-49.333 0 -105.333 11.5 -168 34.5s-113 48.5 -151 76.5c-101.333 80 -152 186.333 -152 319c0 80.667 30 147 90 199
c56.667 47.333 125.667 71 207 71c33.333 0 65.666 -5.33301 96.999 -16s60.166 -25.834 86.499 -45.501s49.333 -43 69 -70s34.5 -56.833 44.5 -89.5c98.667 98.667 193.667 148 285 148c74 0 132.667 -24.667 176 -74c44 -48 66 -108.667 66 -182
c0 -108.667 -54.667 -200.334 -164 -275.001zM985.002 487.001c-56 0 -103 -29.334 -141 -88.001c-35.333 -51.333 -53 -105.666 -53 -162.999v-97h59c62 0 120 22 174 66c57.333 45.333 86 99.333 86 162c0 80 -41.667 120 -125 120zM649.002 236
c0 84 -13.667 153.999 -41 209.999c-34.667 75.333 -89.334 113 -164.001 113c-96.667 0 -145 -52 -145 -156c0 -67.333 30.667 -128.666 92 -183.999c62.667 -53.333 128.334 -80 197.001 -80h61v97z" />
    <glyph glyph-name="uni0725" unicode="&#x725;" horiz-adv-x="1546" 
d="M1423 0l-1104 0.00195312c-110 0 -165 46.333 -165 139c0 76.667 24.333 115 73 115c22 0 50 -19 84 -57c17.333 -19.333 33.5 -33.833 48.5 -43.5s28.167 -14.5 39.5 -14.5h559l-268 142c-129.333 67.333 -194 128.666 -194 183.999c0 65.333 32.667 98 98 98
c34.667 0 81 -29.333 139 -88l123 -129c85.333 -68.667 165.5 -120.334 240.5 -155.001s145.833 -52 212.5 -52c8 0 18.333 1 31 3s25.667 4.16699 39 6.5s26.5 4.5 39.5 6.5s23.5 3 31.5 3c64 0 96 -25.333 96 -76c0 -54.667 -41 -82 -123 -82z" />
    <glyph glyph-name="uni0726" unicode="&#x726;" horiz-adv-x="1356" 
d="M1282 0l-963 0.000976562c-110 0 -165 46.333 -165 139c0 76.667 24.333 115 73 115c22 0 50 -19 84 -57c34.667 -38.667 64 -58 88 -58h709c46.667 0 70 5 70 15c0 9.33301 -4.33301 23.833 -13 43.5s-21.667 44.5 -39 74.5l-40 71
c-11.333 19.333 -21.666 34.666 -30.999 45.999c-97.333 -78 -178.666 -117 -243.999 -117c-36 0 -68.5 5.16699 -97.5 15.5s-55.167 25.833 -78.5 46.5c-50.667 42.667 -76 98.667 -76 168c0 78 27.333 141.333 82 190c52 48 117.667 72 197 72
c105.333 0 213.666 -88.667 324.999 -266l58 -99c19.333 -34 38.333 -70 57 -108c25.333 -52 44.666 -95.167 57.999 -129.5s20 -60.833 20 -79.5c0 -54.667 -24.667 -82 -74 -82zM819 625.001c-76 0 -114 -39 -114 -117c0 -14 2.83301 -26.833 8.5 -38.5
s13.334 -21.667 23.001 -30s21 -15 34 -20s26.5 -7.5 40.5 -7.5c28 0 56.667 7.16699 86 21.5s60 36.5 92 66.5c-44.667 83.333 -101.334 125 -170.001 125z" />
    <glyph glyph-name="uni0727" unicode="&#x727;" horiz-adv-x="1346" 
d="M1180 0l-963.003 -0.000976562c-49.333 0 -74 27.333 -74 82c0 72.667 64.333 211.334 193 416.001c112.667 177.333 221.334 266 326.001 266c40.667 0 78 -6 112 -18s63.167 -29.333 87.5 -52s43.166 -50.167 56.499 -82.5s20 -68.833 20 -109.5
c0 -68.667 -24.667 -124.667 -74 -168c-47.333 -41.333 -105.333 -62 -174 -62c-23.333 0 -46.333 3 -69 9s-44.667 14.667 -66 26s-58.333 38.666 -111 81.999c-9.33301 -11.333 -19.666 -26.666 -30.999 -45.999l-40 -71c-17.333 -30 -30.166 -54.833 -38.499 -74.5
s-12.5 -34.167 -12.5 -43.5c0 -10 23 -15 69 -15h709c14.667 0 43.334 19.333 86.001 58c44 38 73.333 57 88 57c48 0 72 -38.333 72 -115c0 -92.667 -55.333 -139 -166 -139zM679.997 624.999c-68.667 0 -125.336 -41.667 -170.003 -125c32 -30 62.833 -52.167 92.5 -66.5
s58.834 -21.5 87.501 -21.5c14 0 27.333 2.5 40 7.5s23.834 11.667 33.501 20s17.334 18.333 23.001 30s8.5 24.5 8.5 38.5c0 78 -38.333 117 -115 117z" />
    <glyph glyph-name="uni0728" unicode="&#x728;" horiz-adv-x="1645" 
d="M1526 0l-570.002 0.000976562c-57.333 0 -86 -14.333 -86 -43c0 -34 48 -66 144 -96c163.333 -51.333 251.333 -80.666 264 -87.999c95.333 -42.667 143 -96 143 -160c0 -96 -49.667 -160.333 -149 -193c-30 -9.33301 -67 -16.333 -111 -21s-96.333 -7 -157 -7h-1004v43
c122 3.33301 247.5 7.5 376.5 12.5s262.833 11.833 401.5 20.5c54.667 3.33301 110.334 7.66602 167.001 12.999s115 11.666 175 18.999c106.667 14.667 160 58.334 160 131.001c0 9.33301 -3.33301 18.333 -10 27c-10 14 -71.667 40.667 -185 80l-152.5 53.5
c-35.667 13 -57.167 21.167 -64.5 24.5c-86 38.667 -129 100 -129 184c0 128.667 74.667 195 224 199c17.333 0 38.333 -2.66699 63 -8s53.334 -13 86.001 -23c34 -9.33301 63.333 -16.5 88 -21.5s44.667 -7.5 60 -7.5c16.667 0 46 22 88 66
c8 9.33301 19.167 21.666 33.5 36.999l50.5 55c142 -98.667 213 -171 213 -217c0 -53.333 -39.667 -80 -119 -80z" />
    <glyph glyph-name="uni0729" unicode="&#x729;" horiz-adv-x="1087" 
d="M1059 20c-16 -13.333 -45.334 -20.001 -88.001 -20.001h-418c-89.333 -58.667 -165.666 -88 -228.999 -88c-25.333 0 -49 4.83301 -71 14.5s-41.167 22.667 -57.5 39s-29.166 35.5 -38.499 57.5s-14 45.667 -14 71c0 46.667 9.66699 70 29 70c6 0 14.333 -11 25 -33
c5.33301 -13.333 10.833 -24.666 16.5 -33.999s11.5 -17 17.5 -23c20 -22 46.667 -33 80 -33c58.667 0 99 32.667 121 98c-15.333 38 -26.666 74.333 -33.999 109s-11 67.334 -11 98.001c0 82 18.167 141.167 54.5 177.5s95.166 54.5 176.499 54.5h250
c95.333 0 159.666 -59.667 192.999 -179c9.33301 -32.667 16 -73.334 20 -122.001s6 -105.667 6 -171c0 -42 -9.33301 -70.667 -28 -86zM925.999 310.999c-17.333 84.667 -50.333 127 -99 127h-196c-56 0 -84 -30.667 -84 -92c0 -36 14.333 -105 43 -207h352z" />
    <glyph glyph-name="uni072A" unicode="&#x72a;" horiz-adv-x="684" 
d="M473.5 885c-5 -11.333 -11.833 -21.333 -20.5 -30s-18.667 -15.5 -30 -20.5s-23.333 -7.5 -36 -7.5s-24.667 2.5 -36 7.5s-21.333 11.833 -30 20.5s-15.5 18.667 -20.5 30s-7.5 23.666 -7.5 36.999c0 12.667 2.5 24.667 7.5 36s11.833 21.333 20.5 30
s18.667 15.5 30 20.5s23.333 7.5 36 7.5s24.667 -2.5 36 -7.5s21.333 -11.833 30 -20.5s15.5 -18.667 20.5 -30s7.5 -23.333 7.5 -36c0 -13.333 -2.5 -25.666 -7.5 -36.999zM592 -70c-58 0 -96.333 30.999 -115 92.999c-3.33301 11.333 -7.33301 33.666 -12 66.999
s-10 77.666 -16 132.999c-5.33301 46 -12.166 85.5 -20.499 118.5s-18.833 59.167 -31.5 78.5c-16 26 -65.667 49 -149 69c-68.667 19.333 -103 53 -103 101c0 30 16 54.667 48 74c27.333 14.667 58 22 92 22c44.667 0 136.667 -2 276 -6
c8.66699 -19.333 16.5 -40.666 23.5 -63.999l21.5 -75c-2 -4 -10 -15 -24 -33c-4.66699 -5.33301 -8 -11.333 -10 -18s-3 -13.667 -3 -21c0 -35.333 19.333 -101 58 -197c19.333 -47.333 33.666 -87.666 42.999 -120.999s14 -59.666 14 -78.999
c0 -94.667 -30.667 -142 -92 -142z" />
    <glyph glyph-name="uni072B" unicode="&#x72b;" horiz-adv-x="1446" 
d="M1280 0h-970.999c-110.667 -0 -166 46.333 -166 139c0 76.667 24.667 115 74 115c23.333 0 52 -19 86 -57c34.667 -38.667 63.334 -58 86.001 -58h326c0 60.667 -18.667 112.667 -56 156l-104 94c-35.333 35.333 -53 71.666 -53 108.999c0 16.667 2.5 32.5 7.5 47.5
s12.333 28.333 22 40s21.167 20.834 34.5 27.501s28 10 44 10c13.333 0 29.333 -2 48 -6s40.334 -9.66699 65.001 -17c25.333 -7.33301 47.5 -12.833 66.5 -16.5s35.167 -5.5 48.5 -5.5c23.333 0 58.666 6 105.999 18c23.333 7.33301 44.166 12.5 62.499 15.5
s33.166 4.5 44.499 4.5c68 0 102 -33.333 102 -100c0 -32 -20.333 -67.333 -61 -106l-117 -109c-42 -48 -64 -102 -66 -162h289c24 0 53.333 19.333 88 58c34 38 62.667 57 86 57c49.333 0 74 -38.333 74 -115c0 -92.667 -55.333 -139 -166 -139z" />
    <glyph glyph-name="uni072C" unicode="&#x72c;" horiz-adv-x="1180" 
d="M1075 -43c-57.333 0 -92.002 41 -104.002 123c-8 50 -31.333 131.333 -70 244c-43.333 125.333 -73.333 188 -90 188c-7.33301 0 -25.166 -6.66699 -53.499 -20s-67.166 -34 -116.499 -62c71.333 -160.667 107 -266.334 107 -317.001c0 -88.667 -89.667 -133 -269 -133
c-51.333 0 -95 1.5 -131 4.5s-64.667 8.16699 -86 15.5c-79.333 24.667 -119 76.667 -119 156c0 70 37 136.667 111 200c15.333 14.667 39.333 33.667 72 57s74.334 51 125.001 83c-11.333 40 -28.333 88 -51 144s-51.667 120.667 -87 194c-2 6 -27 41.333 -75 106
c-41.333 55.333 -62 93.666 -62 114.999c0 62.667 29.333 94 88 94c39.333 0 77.666 -32 114.999 -96c7.33301 -13.333 17 -33.333 29 -60s25.667 -60 41 -100c6 -16.667 20.333 -51.834 43 -105.501l94 -220.5c118.667 70 202.667 105 252 105
c50.667 0 91.667 -26.667 123 -80c7.33301 -11.333 16 -31.166 26 -59.499s21.667 -65.166 35 -110.499c15.333 -52.667 32.333 -100 51 -142s38.667 -80 60 -114c15.333 -24.667 27 -45.667 35 -63s12 -30.666 12 -39.999c0 -70.667 -35 -106 -105 -106zM505.998 362
l-123 -79c-50.667 -34.667 -76 -73.667 -76 -117c0 -31.333 53.333 -47 160 -47c83.333 0 125 6.66699 125 20c0 36 -28.667 110.333 -86 223z" />
    <glyph glyph-name="uni072D" unicode="&#x72d;" horiz-adv-x="1370" 
d="M1370 244c0 -60.667 -10.333 -113.333 -31 -158c-26.667 -57.333 -67.334 -86 -122.001 -86h-918c-104 0 -156 45.667 -156 137c0 83.333 25 125 75 125c25.333 0 58.333 -20.5 99 -61.5s75.667 -61.5 105 -61.5h749c44 0 66 37 66 111c0 138 -47.667 207 -143 207
c-53.333 0 -131.333 -12.333 -234 -37s-180.334 -37 -233.001 -37c-30 0 -56.667 10.333 -80 31s-35 45.667 -35 75c0 36 13.667 62.667 41 80c100 62 186.667 132.333 260 211c54.667 58.667 99 88 133 88c54 0 81 -26.333 81 -79c0 -45.333 -47.667 -92 -143 -140
l-145 -82c8.66699 -1.33301 42.667 -2 102 -2c34.667 0 82.834 4.5 144.501 13.5s109.834 13.5 144.501 13.5c160 0 240 -116 240 -348z" />
    <glyph glyph-name="uni072E" unicode="&#x72e;" horiz-adv-x="2474" 
d="M2474 -485c0 -62 -26.6641 -92.999 -79.9971 -92.999c-52 0 -151 34.333 -297 103l-303 147c-144 70 -342 141 -594 213c-262.667 75.333 -467.334 113 -614.001 113c-39.333 0 -94.666 -7 -165.999 -21c-68 -13.333 -123.333 -20 -166 -20c-74 0 -111 27.333 -111 82
c0 79.333 54.667 119 164 119c375.333 0 796.666 -86 1264 -258l-334 278l-406 342c-147.333 124 -221 213.333 -221 268c0 29.333 10.167 53.833 30.5 73.5s45.166 29.5 74.499 29.5c39.333 0 91 -36.333 155 -109l62 -70c45.333 2.66699 80.5 9 105.5 19s37.5 28 37.5 54
c0 6.66699 -18.667 40.667 -56 102c-12.667 21.333 -25.667 46.666 -39 75.999c-9.33301 21.333 -14 37.666 -14 48.999c0 76.667 34.333 115 103 115c62 0 112.333 -32.333 151 -97c31.333 -52 47 -112.667 47 -182c0 -79.333 -23.333 -142 -70 -188
c-40.667 -40 -93.334 -63 -158.001 -69l71 -79c122 -136 319.333 -321.667 592 -557c105.333 -91.333 219.333 -167 342 -227c39.333 -19.333 99.333 -40 180 -62c166.667 -45.333 250 -95.666 250 -150.999z" />
    </font>
</defs>
</svg>
