<?xml version="1.0" encoding="UTF-8" standalone="no"?>
<svg
   xmlns:dc="http://purl.org/dc/elements/1.1/"
   xmlns:cc="http://creativecommons.org/ns#"
   xmlns:rdf="http://www.w3.org/1999/02/22-rdf-syntax-ns#"
   xmlns:svg="http://www.w3.org/2000/svg"
   xmlns="http://www.w3.org/2000/svg"
   xmlns:sodipodi="http://sodipodi.sourceforge.net/DTD/sodipodi-0.dtd"
   xmlns:inkscape="http://www.inkscape.org/namespaces/inkscape"
   height="111.73mm"
   width="200mm"
   version="1.1"
   viewBox="0 0 200.00001 111.7255"
   id="svg7058"
   inkscape:version="0.91+devel r13766"
   sodipodi:docname="logo-export.svg"
   inkscape:export-filename="/home/alexander/rzl/mrmcds/shirt.png"
   inkscape:export-xdpi="127.07957"
   inkscape:export-ydpi="127.07957">
  <metadata
     id="metadata7202">
    <rdf:RDF>
      <cc:Work
         rdf:about="">
        <dc:format>image/svg+xml</dc:format>
        <dc:type
           rdf:resource="http://purl.org/dc/dcmitype/StillImage" />
        <dc:title />
      </cc:Work>
    </rdf:RDF>
  </metadata>
  <defs
     id="defs7200" />
  <sodipodi:namedview
     pagecolor="#ffffff"
     bordercolor="#666666"
     borderopacity="1"
     objecttolerance="10"
     gridtolerance="10"
     guidetolerance="10"
     inkscape:pageopacity="1"
     inkscape:pageshadow="2"
     inkscape:window-width="1436"
     inkscape:window-height="861"
     id="namedview7198"
     showgrid="false"
     inkscape:zoom="0.46831249"
     inkscape:cx="379.02331"
     inkscape:cy="255.88365"
     inkscape:window-x="0"
     inkscape:window-y="18"
     inkscape:window-maximized="0"
     inkscape:current-layer="layer1"
     inkscape:document-units="mm" />
  <g
     inkscape:groupmode="layer"
     id="layer1"
     inkscape:label="Layer 1">
    <path
       style="fill:#000000;stroke-width:3.77952743"
       clip-path="none"
       d="M 85.644531 255.08789 L 42.708984 292.61914 L 0 255.35352 L 0 353.92383 L 21.240234 353.92383 L 21.240234 300.40625 L 42.708984 320.92773 L 85.644531 281.05469 L 85.644531 255.08789 z M 271.29492 255.08789 L 228.35938 292.61914 L 185.6875 255.35352 L 185.6875 353.92383 L 206.89062 353.92383 L 206.89062 300.40625 L 228.35938 320.92773 L 271.29492 281.05469 L 271.29492 255.08789 z M 106.39453 255.58008 C 100.57406 255.58008 97.662109 258.56546 97.662109 264.53711 L 97.662109 353.92383 L 118.67773 353.92383 L 118.67773 276.55664 L 152.39062 276.55664 L 152.39062 294.73633 L 123.62891 294.73633 L 123.62891 321.60938 L 148.875 353.92383 L 175.0293 353.92383 L 144.86914 315.25977 L 164.90039 315.25977 C 170.87204 315.25977 173.85742 312.34782 173.85742 306.52734 L 173.85742 264.76367 C 173.85742 258.64084 170.87204 255.58008 164.90039 255.58008 L 106.39453 255.58008 z M 292.04492 255.58008 C 286.24965 255.58008 283.35156 258.49007 283.35156 264.31055 L 283.35156 344.9668 C 283.35156 350.93845 286.24965 353.92383 292.04492 353.92383 L 351.04297 353.92383 L 351.04297 333.66602 L 304.55469 333.66602 L 304.55469 255.58008 L 292.04492 255.58008 z M 309.50586 255.58008 L 309.50586 276.33008 L 351.04297 276.33008 L 351.04297 255.58008 L 309.50586 255.58008 z M 363.02344 255.58008 L 363.02344 353.92383 L 425.53711 353.92383 C 426.94813 353.92383 428.44775 353.45767 430.03516 352.52539 C 431.74854 351.56791 433.2343 350.38368 434.49414 348.97266 C 435.90516 347.56163 437.0021 346.07392 437.7832 344.51172 C 438.74068 342.77314 439.21875 341.19813 439.21875 339.78711 L 439.21875 264.31055 C 439.21875 258.49007 436.54876 255.58008 431.20703 255.58008 L 389.21484 255.58008 L 389.21484 275.87695 L 417.75195 275.87695 L 417.75195 333.17383 L 384.26367 333.17383 L 384.26367 255.58008 L 363.02344 255.58008 z M 85.644531 288.61328 L 64.402344 308.19141 L 64.402344 353.92383 L 85.644531 353.92383 L 85.644531 288.61328 z M 271.29492 288.61328 L 250.05273 308.19141 L 250.05273 353.92383 L 271.29492 353.92383 L 271.29492 288.61328 z "
       transform="matrix(0.26458334,0,0,0.26458334,0,-0.00225328)"
       id="path7062" />
    <path
       style="fill:#000000;stroke-width:3.77952743"
       clip-path="none"
       d="M 450.78516 255.58008 L 450.78516 276.33008 L 505.51172 276.33008 L 505.51172 294.73633 L 477.20312 294.73633 L 477.20312 315.25977 L 518.24805 315.25977 C 523.89214 315.25977 526.71484 312.50053 526.71484 306.98242 L 526.71484 264.31055 C 526.71484 258.49007 523.89214 255.58008 518.24805 255.58008 L 450.78516 255.58008 z M 547.27539 255.58008 C 541.45492 255.58008 538.54492 258.49007 538.54492 264.31055 L 538.54492 345.45703 C 538.54492 351.10113 541.45492 353.92383 547.27539 353.92383 L 606.72656 353.92383 C 612.06829 353.92383 614.74023 351.10113 614.74023 345.45703 L 614.74023 264.76367 C 614.74023 258.64084 611.75486 255.58008 605.7832 255.58008 L 547.27539 255.58008 z M 626.53125 255.58008 L 626.53125 276.55664 L 641.87695 276.55664 L 641.87695 255.58008 L 626.53125 255.58008 z M 646.60156 255.58008 L 646.60156 353.92383 L 667.80469 353.92383 L 667.80469 255.58008 L 646.60156 255.58008 z M 679.97461 255.58008 L 679.97461 315.25977 L 729.97852 315.25977 L 729.97852 294.73633 L 701.21484 294.73633 L 701.21484 276.33008 L 755.67773 276.33008 L 755.67773 255.58008 L 679.97461 255.58008 z M 559.78516 276.33008 L 593.27148 276.33008 L 593.27148 333.66602 L 559.78516 333.66602 L 559.78516 276.33008 z M 459.02344 294.73633 C 456.35257 294.73633 454.31141 295.60517 452.90039 297.34375 C 451.48937 299.05714 450.78516 301.24906 450.78516 303.91992 L 450.78516 353.92383 L 526.71484 353.92383 L 526.71484 333.66602 L 472.02539 333.66602 L 472.02539 294.73633 L 459.02344 294.73633 z M 734.70312 294.73633 L 734.70312 333.66602 L 679.97461 333.66602 L 679.97461 353.92383 L 746.7207 353.92383 C 749.39157 353.92383 751.59735 352.82689 753.33594 350.63477 C 755.04932 348.44264 755.90625 345.9988 755.90625 343.30273 L 755.90625 305.35742 C 755.90625 302.68656 754.97394 300.24076 753.10938 298.02344 C 751.21961 295.83131 748.93844 294.73633 746.26758 294.73633 L 734.70312 294.73633 z "
       transform="matrix(0.26458334,0,0,0.26458334,0,-0.00225328)"
       id="path7072" />
    <path
       style="color:#000000;text-indent:0;text-decoration:none;text-decoration-line:none;text-decoration-style:solid;text-decoration-color:#000000;text-transform:none;block-progression:tb;white-space:normal;shape-padding:0;isolation:auto;mix-blend-mode:normal;solid-color:#000000;fill:#000000;fill-rule:evenodd;stroke-width:3.77952743;color-rendering:auto;image-rendering:auto;shape-rendering:auto"
       clip-path="none"
       d="M 293.06445 0.0078125 C 278.96682 0.0078125 267.47656 11.498066 267.47656 25.595703 L 267.47656 197.98047 C 267.47656 212.07811 278.96682 223.56836 293.06445 223.56836 L 462.87891 223.56836 C 476.97654 223.56836 488.4668 212.07811 488.4668 197.98047 L 488.4668 25.595703 C 488.4668 11.498066 476.97654 0.0078125 462.87891 0.0078125 L 293.06445 0.0078125 z M 293.06445 10.552734 L 462.87891 10.552734 C 471.30725 10.552734 477.92188 17.167357 477.92188 25.595703 L 477.92188 197.98047 C 477.92188 206.40881 471.30725 212.98437 462.87891 212.98438 L 293.06445 212.98438 C 284.63611 212.98438 278.02148 206.40881 278.02148 197.98047 L 278.02148 25.595703 C 278.02148 17.167357 284.63611 10.552734 293.06445 10.552734 z M 443.65039 48.376953 C 433.8496 48.463764 423.83691 49.747699 414.3125 52.242188 C 406.7692 54.221369 399.52396 56.942106 392.93555 60.433594 C 392.43972 60.476342 391.93657 60.507018 391.44531 60.556641 C 386.7587 61.047979 382.29948 61.841542 378.06641 62.824219 C 367.94816 65.210314 359.28956 68.830004 352.63672 72.617188 L 333.4668 50.541016 A 5.2841572 5.2841572 0 0 0 328.21484 48.802734 A 5.2841572 5.2841572 0 0 0 325.49219 57.457031 L 344.08789 78.886719 L 328.80859 97.757812 C 328.38466 97.31218 327.96912 96.859103 327.5332 96.423828 A 2.8372156 2.8372156 0 0 0 325.49219 95.554688 A 2.8372156 2.8372156 0 0 0 323.52734 100.42969 C 324.10491 101.00633 324.662 101.60114 325.2168 102.19727 L 324.32031 103.30273 A 5.2951703 5.2951703 0 0 0 331.89453 110.63477 C 347.80343 134.37954 348.51082 167.59446 326.85352 190.98828 A 2.8372156 2.8372156 0 1 0 331.01172 194.84375 C 354.95943 168.96154 353.81703 131.99008 335.66211 106.12305 L 352.94141 84.767578 A 5.2938011 5.2938011 0 0 0 353.91406 84.253906 C 361.5865 79.038158 375.7228 72.80235 392.50391 71.101562 C 409.3228 69.362981 428.78807 71.970651 448.21484 84.027344 A 5.285669 5.285669 0 1 0 453.76953 75.070312 C 442.46514 68.049692 431.01966 63.901032 419.98633 61.796875 C 430.66684 59.350118 442.02506 58.457167 452.56055 59.234375 A 5.2873548 5.2873548 0 1 0 453.35352 48.689453 C 450.15981 48.453233 446.91732 48.348016 443.65039 48.376953 z M 311.73242 59.292969 A 18.49285 18.49285 0 0 0 308.06836 59.763672 A 18.49285 18.49285 0 0 0 294.23633 81.986328 A 18.49285 18.49285 0 0 0 316.42188 95.820312 A 18.49285 18.49285 0 0 0 330.25586 73.595703 A 18.49285 18.49285 0 0 0 311.73242 59.292969 z M 363.25 82.439453 C 358.10984 87.617406 354.89844 94.723253 354.89844 102.54688 C 354.89844 110.40829 358.10984 117.51345 363.25 122.69141 L 367.25586 118.68555 C 363.13617 114.56586 360.56641 108.85869 360.56641 102.54688 C 360.56641 96.235064 363.13617 90.56695 367.25586 86.447266 L 363.25 82.439453 z M 403.50195 82.439453 L 399.49609 86.447266 C 403.61578 90.56695 406.18555 96.235064 406.18555 102.54688 C 406.18555 108.85869 403.61578 114.56586 399.49609 118.68555 L 403.50195 122.69141 C 408.64211 117.51345 411.85547 110.40829 411.85547 102.54688 C 411.85547 94.723253 408.64211 87.617406 403.50195 82.439453 z M 371.11133 90.300781 C 367.97432 93.437789 366.00977 97.78467 366.00977 102.54688 C 366.00977 107.34687 367.97432 111.69307 371.11133 114.83008 L 375.11719 110.82422 C 373.00065 108.74548 371.67773 105.79727 371.67773 102.54688 C 371.67773 99.334277 373.00065 96.386067 375.11719 94.269531 L 371.11133 90.300781 z M 395.64062 90.300781 L 391.67188 94.269531 C 393.75062 96.386067 395.07422 99.334277 395.07422 102.54688 C 395.07422 105.79727 393.75062 108.74548 391.67188 110.82422 L 395.64062 114.83008 C 398.77763 111.69307 400.74414 107.34687 400.74414 102.54688 C 400.74414 97.78467 398.77763 93.437789 395.64062 90.300781 z M 383.32031 99.447266 A 2.8372156 2.8372156 0 0 0 380.56055 102.32031 L 380.56055 192.87695 A 2.8372156 2.8372156 0 1 0 386.23047 192.87695 L 386.23047 102.32031 A 2.8372156 2.8372156 0 0 0 383.32031 99.447266 z "
       transform="matrix(0.26458334,0,0,0.26458334,0,-0.00225328)"
       id="path7080" />
    <path
       style="color:#000000;text-indent:0;text-decoration:none;text-decoration-line:none;text-decoration-style:solid;text-decoration-color:#000000;text-transform:none;block-progression:tb;white-space:normal;shape-padding:0;isolation:auto;mix-blend-mode:normal;solid-color:#000000;fill:#000000;fill-rule:evenodd;stroke-width:3.77952743;color-rendering:auto;image-rendering:auto;shape-rendering:auto"
       clip-path="none"
       d="M 25.587891 0.0078125 C 11.528049 0.0078125 0.037109375 11.498066 0.037109375 25.595703 L 0.037109375 197.98047 C 0.037109375 212.07811 11.528049 223.56836 25.587891 223.56836 L 195.43945 223.56836 C 209.53709 223.56836 221.02734 212.07811 221.02734 197.98047 L 221.02734 25.595703 C 221.02734 11.498066 209.53709 0.0078125 195.43945 0.0078125 L 25.587891 0.0078125 z M 25.587891 10.552734 L 195.43945 10.552734 C 203.8678 10.552734 210.48242 17.167357 210.48242 25.595703 L 210.48242 197.98047 C 210.48242 206.40881 203.8678 212.98437 195.43945 212.98438 L 25.587891 212.98438 C 17.19734 212.98438 10.582031 206.40881 10.582031 197.98047 L 10.582031 25.595703 C 10.582031 17.167357 17.19734 10.552734 25.587891 10.552734 z M 145.43555 50.087891 A 19.508787 19.508787 0 0 0 125.93359 69.589844 A 19.508787 19.508787 0 0 0 145.43555 89.091797 A 19.508787 19.508787 0 0 0 164.93945 69.589844 A 19.508787 19.508787 0 0 0 145.43555 50.087891 z M 108.50977 69.136719 L 76.195312 69.25 A 5.5751808 5.5751808 0 1 0 76.232422 80.398438 L 105.63867 80.285156 L 109.70312 86.171875 L 90.972656 98.087891 C 93.656121 99.146158 95.546097 99.673828 97.095703 99.673828 C 99.476805 99.711623 102.2358 98.768448 107.75391 95.707031 C 109.93701 94.498207 112.12097 93.554006 114.31641 92.849609 L 114.33008 92.871094 C 115.64132 92.448582 116.95396 92.106631 118.26953 91.845703 C 119.37023 91.639624 120.47594 91.48811 121.58789 91.398438 A 5.5744249 5.5744249 0 0 0 121.60742 91.369141 C 122.60349 91.280502 123.60442 91.235149 124.61133 91.246094 C 125.36723 91.246094 126.08589 91.28447 126.8418 91.322266 L 113.12109 71.517578 A 5.5744249 5.5744249 0 0 0 108.50977 69.136719 z M 124.61133 94.195312 C 118.90424 94.157517 113.30981 95.59288 107.75391 98.654297 C 102.2358 101.71571 99.476805 102.66084 97.095703 102.62305 C 94.676806 102.58525 91.577599 101.45104 85.794922 98.767578 C 73.133505 92.909311 64.101313 94.911774 53.783203 98.804688 C 48.52966 100.77004 43.728688 102.85025 39.306641 103.56836 C 34.846798 104.28647 30.840539 103.9456 25.851562 100.80859 C 24.793295 100.12828 23.69694 99.560384 22.638672 99.03125 L 22.638672 109.42578 C 28.874892 112.86515 35.188235 113.43248 40.744141 112.52539 C 46.791384 111.54271 52.081441 109.12345 56.957031 107.27148 C 66.934984 103.52975 71.206863 101.98104 81.978516 107.00781 C 87.874578 109.72907 92.107517 111.61777 96.945312 111.69336 C 101.8209 111.76895 106.24192 109.87999 112.17578 106.5918 C 122.38051 100.9603 130.20535 101.86773 143.32031 109.04883 C 150.69039 113.05513 157.19072 114.83039 163.57812 114.49023 C 169.92773 114.15008 175.78632 111.84541 182.28711 108.63281 C 187.42727 106.10053 192.18965 105.15409 196.91406 105.38086 L 196.91406 96.462891 C 190.86682 96.236119 184.6289 97.368852 178.2793 100.50586 C 172.15646 103.49169 167.50798 105.19315 163.08594 105.41992 C 158.66389 105.64669 154.09121 104.54943 147.66602 101.07227 C 140.44712 97.141557 133.64474 94.798665 127.06836 94.269531 C 126.23686 94.231736 125.44282 94.195313 124.61133 94.195312 z M 125.70703 118.98828 C 121.70073 118.98828 118.71535 120.07135 116.75 122.23828 C 114.78465 124.40521 113.80078 128.22174 113.80078 133.68945 C 113.80078 135.90678 113.99119 137.93602 114.36914 139.77539 C 114.77229 141.58956 115.31383 143.02572 115.99414 144.08398 C 116.95162 145.5706 118.17354 146.69136 119.66016 147.44727 C 121.14677 148.22837 123.09868 148.61914 125.51758 148.61914 C 129.80104 148.61914 132.82606 147.40913 134.58984 144.99023 C 136.35362 142.57134 137.23438 138.76672 137.23438 133.57617 C 137.23438 131.25806 136.97054 129.02845 136.44141 126.88672 C 136.16424 125.77806 135.79925 124.80806 135.3457 123.97656 C 134.89216 123.11987 134.27329 122.3145 133.49219 121.55859 C 132.71109 120.77749 131.7034 120.16057 130.46875 119.70703 C 129.2341 119.22829 127.64719 118.98828 125.70703 118.98828 z M 71.167969 120.42383 C 67.16167 120.42383 64.176292 121.5069 62.210938 123.67383 C 60.245583 125.84076 59.263672 129.65924 59.263672 135.12695 C 59.263672 137.34428 59.452125 139.35965 59.830078 141.17383 C 60.208031 143.0132 60.749566 144.46126 61.455078 145.51953 C 62.412558 147.00615 63.63448 148.12886 65.121094 148.88477 C 66.607708 149.66587 68.547706 150.05664 70.941406 150.05664 C 75.250067 150.05664 78.287002 148.84663 80.050781 146.42773 C 81.814561 144.00884 82.695312 140.20422 82.695312 135.01367 C 82.695313 132.69556 82.419565 130.46595 81.865234 128.32422 C 81.588069 127.21556 81.221121 126.24556 80.767578 125.41406 C 80.339232 124.55737 79.73618 123.75005 78.955078 122.99414 C 78.173976 122.21304 77.166286 121.59612 75.931641 121.14258 C 74.671798 120.66384 73.082929 120.42383 71.167969 120.42383 z M 99.855469 123.86328 C 99.023973 125.65226 97.851655 127.16379 96.339844 128.39844 C 94.85323 129.60789 92.748603 130.65327 90.027344 131.53516 L 90.027344 138.07422 C 91.866714 137.51989 93.392114 136.92875 94.601562 136.29883 C 95.836208 135.6941 97.107733 134.90065 98.417969 133.91797 L 98.417969 153.00391 L 106.46875 153.00391 L 106.46875 123.86328 L 99.855469 123.86328 z M 125.44336 124.2793 C 126.7284 124.2793 127.6984 124.9339 128.35352 126.24414 C 128.98344 127.55438 129.29688 130.11324 129.29688 133.91797 C 129.29688 136.51324 129.15998 138.41555 128.88281 139.625 C 128.60565 140.85965 128.16332 141.76618 127.55859 142.3457 C 126.97907 142.90003 126.28677 143.17773 125.48047 143.17773 C 124.24582 143.17773 123.31351 142.50926 122.68359 141.17383 C 122.02848 139.8384 121.70117 137.343 121.70117 133.68945 C 121.70117 130.0863 122.0027 127.61864 122.60742 126.2832 C 123.18695 124.94777 124.13312 124.2793 125.44336 124.2793 z M 156.50977 124.42969 C 152.47827 124.42969 149.48098 125.51471 147.51562 127.68164 C 145.57547 129.87377 144.60547 133.69029 144.60547 139.13281 C 144.60547 141.35014 144.79392 143.37938 145.17188 145.21875 C 145.54983 147.03292 146.07945 148.46908 146.75977 149.52734 C 147.71725 151.01396 148.93917 152.13472 150.42578 152.89062 C 151.9124 153.67173 153.86431 154.0625 156.2832 154.0625 C 160.56667 154.0625 163.58974 152.85249 165.35352 150.43359 C 167.1173 148.03989 168 144.23528 168 139.01953 C 168 136.70142 167.73617 134.47181 167.20703 132.33008 C 166.92987 131.22142 166.56292 130.25142 166.10938 129.41992 C 165.65583 128.56323 165.03891 127.75591 164.25781 127 C 163.47671 126.24409 162.46902 125.62718 161.23438 125.14844 C 159.99973 124.6697 158.42473 124.42969 156.50977 124.42969 z M 45.316406 124.73242 C 44.459713 126.5214 43.287395 128.03293 41.800781 129.26758 C 40.28897 130.47703 38.186297 131.52436 35.490234 132.40625 L 35.490234 138.94336 C 37.329604 138.36383 38.853051 137.77269 40.0625 137.16797 C 41.271949 136.56324 42.531561 135.75592 43.841797 134.74805 L 43.841797 153.87305 L 51.892578 153.87305 L 51.892578 124.73242 L 45.316406 124.73242 z M 70.904297 125.71484 C 72.189336 125.71484 73.145469 126.3714 73.775391 127.68164 C 74.430509 128.99188 74.759766 131.54879 74.759766 135.35352 C 74.759766 137.94879 74.620915 139.8511 74.34375 141.06055 C 74.066585 142.29519 73.624256 143.20172 73.019531 143.78125 C 72.440004 144.33558 71.747705 144.61328 70.941406 144.61328 C 69.706761 144.61328 68.76254 143.94481 68.107422 142.60938 C 67.477501 141.27394 67.162109 138.7805 67.162109 135.12695 C 67.162109 131.5238 67.451722 129.05418 68.03125 127.71875 C 68.610778 126.38332 69.568864 125.71484 70.904297 125.71484 z M 156.20703 129.72266 C 157.49207 129.72266 158.46207 130.37726 159.11719 131.6875 C 159.77231 132.99774 160.10156 135.55465 160.10156 139.35938 C 160.10156 141.95465 159.94885 143.87082 159.64648 145.10547 C 159.36932 146.31492 158.94086 147.20758 158.36133 147.78711 C 157.7566 148.34144 157.05239 148.61914 156.24609 148.61914 C 155.03664 148.61914 154.10434 147.95262 153.44922 146.61719 C 152.7941 145.28175 152.4668 142.78636 152.4668 139.13281 C 152.4668 135.52966 152.76832 133.06004 153.37305 131.72461 C 153.95257 130.38918 154.8968 129.72266 156.20703 129.72266 z M 128.24023 165.81641 C 127.38354 167.63058 126.21122 169.14211 124.72461 170.35156 C 123.2128 171.58621 121.10817 172.63159 118.41211 173.48828 L 118.41211 180.02734 C 120.25148 179.47301 121.77688 178.89379 122.98633 178.28906 C 124.19578 177.65914 125.45539 176.85182 126.76562 175.86914 L 126.76562 194.95703 L 134.81641 194.95703 L 134.81641 165.81641 L 128.24023 165.81641 z M 179.67773 166.38281 C 178.82104 168.19699 177.65068 169.70852 176.16406 170.91797 C 174.65225 172.15261 172.54763 173.21186 169.85156 174.09375 L 169.85156 180.59375 C 171.66574 180.03942 173.19114 179.46019 174.42578 178.85547 C 175.63523 178.25074 176.89484 177.44537 178.20508 176.4375 L 178.20508 195.56055 L 186.25586 195.56055 L 186.25586 166.38281 L 179.67773 166.38281 z M 71.886719 168.42383 C 67.855223 168.42383 64.855979 169.5069 62.890625 171.67383 C 60.950468 173.84076 59.980469 177.65924 59.980469 183.12695 C 59.980469 185.31908 60.170875 187.33446 60.548828 189.17383 C 60.926781 191.0132 61.468316 192.46126 62.173828 193.51953 C 63.106112 195.00615 64.314167 196.12886 65.800781 196.88477 C 67.287395 197.66587 69.241259 198.05664 71.660156 198.05664 C 75.968817 198.05664 78.991886 196.84663 80.730469 194.42773 C 82.494248 192.00884 83.376953 188.20422 83.376953 183.01367 C 83.376953 180.69556 83.111165 178.46595 82.582031 176.32422 C 82.304866 175.21556 81.939871 174.23169 81.486328 173.375 C 81.032785 172.5435 80.415868 171.75005 79.634766 170.99414 C 78.853663 170.21304 77.845974 169.59612 76.611328 169.14258 C 75.376683 168.66384 73.801679 168.42383 71.886719 168.42383 z M 153.93945 168.99023 C 153.10796 170.77921 151.93759 172.2927 150.42578 173.52734 C 148.93917 174.73679 146.83454 175.78217 144.11328 176.66406 L 144.11328 183.20312 C 145.95265 182.6236 147.47805 182.03051 148.6875 181.42578 C 149.92215 180.82106 151.18176 180.0276 152.4668 179.04492 L 152.4668 198.13086 L 160.55469 198.13086 L 160.55469 168.99023 L 153.93945 168.99023 z M 102.5 170.99414 C 101.6685 172.78312 100.49814 174.29465 98.986328 175.5293 C 97.499714 176.73875 95.395088 177.78413 92.673828 178.66602 L 92.673828 185.20508 C 94.513198 184.65075 96.038598 184.05961 97.248047 183.42969 C 98.482692 182.82496 99.754217 182.03151 101.06445 181.04883 L 101.06445 200.13477 L 109.11523 200.13477 L 109.11523 170.99414 L 102.5 170.99414 z M 71.583984 173.71484 C 72.894221 173.71484 73.864219 174.3714 74.494141 175.68164 C 75.149259 176.99188 75.476562 179.54879 75.476562 183.35352 C 75.476563 185.94879 75.3258 187.8511 75.023438 189.06055 C 74.746272 190.29519 74.317809 191.20172 73.738281 191.78125 C 73.133557 192.33558 72.427393 192.61328 71.621094 192.61328 C 70.411645 192.61328 69.479337 191.94481 68.824219 190.60938 C 68.194298 189.27394 67.880859 186.7805 67.880859 183.12695 C 67.880859 179.5238 68.170472 177.05418 68.75 175.71875 C 69.329528 174.38332 70.273748 173.71484 71.583984 173.71484 z "
       transform="matrix(0.26458334,0,0,0.26458334,0,-0.00225328)"
       id="path7098" />
    <path
       style="color:#000000;text-indent:0;text-decoration:none;text-decoration-line:none;text-decoration-style:solid;text-decoration-color:#000000;text-transform:none;block-progression:tb;white-space:normal;shape-padding:0;isolation:auto;mix-blend-mode:normal;solid-color:#000000;fill:#000000;fill-rule:evenodd;stroke-width:3.77952743;color-rendering:auto;image-rendering:auto;shape-rendering:auto"
       clip-path="none"
       d="M 560.50391 0.0078125 C 546.40627 0.0078125 534.91602 11.498066 534.91602 25.595703 L 534.91602 197.98047 C 534.91602 212.07811 546.40627 223.56836 560.50391 223.56836 L 730.31836 223.56836 C 744.416 223.56836 755.94336 212.07811 755.94336 197.98047 L 755.94336 25.595703 C 755.94336 11.498066 744.416 0.0078125 730.31836 0.0078125 L 560.50391 0.0078125 z M 560.50391 10.552734 L 730.31836 10.552734 C 738.74671 10.552734 745.36133 17.167357 745.36133 25.595703 L 745.36133 197.98047 C 745.36133 206.40881 738.74671 212.98437 730.31836 212.98438 L 560.50391 212.98438 C 552.07556 212.98438 545.46094 206.40881 545.46094 197.98047 L 545.46094 25.595703 C 545.46094 17.167357 552.07556 10.552734 560.50391 10.552734 z M 586.58203 29.414062 A 19.470613 19.470613 0 0 0 567.11719 48.876953 A 19.470613 19.470613 0 0 0 586.58203 68.341797 A 19.470613 19.470613 0 0 0 606.08594 48.876953 A 19.470613 19.470613 0 0 0 586.58203 29.414062 z M 600.07617 71.025391 A 5.5634641 5.5634641 0 0 0 595.04883 79.152344 C 602.83465 94.572814 609.94094 111.50517 611.15039 129.19336 C 611.18246 129.67643 611.19312 130.16222 611.2168 130.64648 A 5.5634641 5.5634641 0 0 0 611.30469 132.74805 C 611.68285 149.31821 606.90008 166.60502 591.91211 184.97852 A 5.5634641 5.5634641 0 1 0 600.5293 192.00781 C 608.65036 182.03947 614.18005 172.02444 617.65234 162.15234 C 618.00665 170.56368 617.09654 179.01714 614.62695 186.98242 A 5.5648712 5.5648712 0 0 0 625.24805 190.30859 C 631.43936 170.43708 629.29073 148.90047 622.32227 130.57031 C 622.29147 129.85871 622.27052 129.14489 622.22266 128.4375 C 621.36461 115.75744 617.93458 103.8 613.5 92.705078 L 648.83203 100.58203 A 5.5752831 5.5752831 0 0 0 654.18359 98.792969 L 683.81445 105.32422 C 683.1484 108.66051 682.91796 111.98667 684.13281 115.13281 C 685.60683 118.98793 689.3097 121.89845 695.16797 123.29688 C 701.02624 124.69529 707.45201 124.50606 712.89453 122.88086 C 718.33705 121.21787 723.13752 118.00539 724.38477 112.86523 C 725.63201 107.68728 722.79673 102.66118 718.71484 98.730469 C 714.63295 94.761965 709.00085 91.662097 703.14258 90.263672 C 697.28431 88.827451 692.6369 89.735086 689.61328 92.494141 C 687.29408 94.555651 685.97381 97.311974 685.05859 100.28516 L 655.38672 93.751953 A 5.5752831 5.5752831 0 0 0 651.25 89.697266 L 607.91992 80.070312 C 606.95373 78.054501 605.97266 76.070647 604.98828 74.125 A 5.5634641 5.5634641 0 0 0 600.07617 71.025391 z M 697.41992 94.710938 C 698.48238 94.680892 699.769 94.830841 701.29297 95.158203 C 700.62612 96.685101 700.00204 98.212113 699.45703 99.736328 L 691.68359 98.052734 C 692.10299 97.372804 692.55518 96.790627 693.05273 96.349609 C 694.0921 95.404728 695.39692 94.768146 697.41992 94.710938 z M 705.07422 96.267578 C 708.87547 97.682004 712.51404 99.911649 715.125 102.43359 C 718.45098 105.68399 719.96283 109.08617 719.32031 111.65625 C 718.71559 114.22633 715.84265 116.56974 711.38281 117.89258 C 707.91572 118.95938 703.68545 119.29291 699.65039 118.82812 C 699.92299 111.3831 701.67774 103.87826 705.07422 96.267578 z M 690.07422 101.66797 L 698.24805 103.45898 C 697.73785 105.19594 697.30461 106.93024 696.94922 108.66211 L 688.81836 106.75781 C 688.94875 106.00218 689.1099 105.21775 689.31055 104.39844 C 689.54034 103.42932 689.79479 102.51888 690.07422 101.66797 z M 688.50195 110.69727 L 696.28711 112.50195 C 696.02467 114.37245 695.85355 116.23904 695.76758 118.10156 C 691.37875 116.93437 689.72854 115.26605 688.9707 113.28125 C 688.68928 112.54419 688.54195 111.67238 688.50195 110.69727 z M 710.70312 126.69922 C 708.28423 140.04095 700.30897 152.36045 689.31055 160.37305 C 676.83811 169.5195 660.96444 173.677 645.16602 174.4707 C 649.17231 176.81401 656.61732 178.21315 665.65039 177.23047 C 674.79685 176.24779 684.85064 172.80869 693.61914 166.3457 C 701.66953 160.33625 707.14983 152.4368 709.87109 144.72656 C 712.63015 137.09192 712.40391 130.51654 710.70312 126.69922 z "
       transform="matrix(0.26458334,0,0,0.26458334,0,-0.00225328)"
       id="path7128" />
    <path
       style="fill:#000000;stroke-width:3.77952743"
       clip-path="none"
       d="M 102.80273 382.19336 L 102.80273 421.99219 L 111.3457 421.99219 L 111.3457 401.92383 L 133.37891 422.25781 L 133.37891 410.69141 L 102.80273 382.19336 z M 3.515625 382.38281 C 1.172318 382.38281 0 383.55513 0 385.89844 L 0 403.0957 C -5.9211895e-16 405.28783 1.172318 406.38281 3.515625 406.38281 L 19.955078 406.38281 L 19.955078 398.14453 L 8.5800781 398.14453 L 8.5800781 390.73633 L 30.613281 390.73633 L 30.613281 382.38281 L 3.515625 382.38281 z M 38.966797 382.38281 C 36.62349 382.38281 35.451172 383.55513 35.451172 385.89844 L 35.451172 418.36523 C 35.451172 420.78413 36.62349 421.99219 38.966797 421.99219 L 62.703125 421.99219 L 62.703125 413.82812 L 43.994141 413.82812 L 43.994141 382.38281 L 38.966797 382.38281 z M 45.996094 382.38281 L 45.996094 390.73633 L 62.703125 390.73633 L 62.703125 382.38281 L 45.996094 382.38281 z M 67.464844 382.38281 L 67.464844 421.99219 L 76.005859 421.99219 L 76.005859 406.38281 L 87.496094 406.38281 L 87.496094 398.14453 L 76.005859 398.14453 L 76.005859 382.38281 L 67.464844 382.38281 z M 89.5 382.38281 L 89.5 421.99219 L 98.041016 421.99219 L 98.041016 382.38281 L 89.5 382.38281 z M 124.95117 382.38281 L 124.95117 399.95898 L 133.37891 407.63086 L 133.37891 382.38281 L 124.95117 382.38281 z M 141.76953 382.38281 C 139.42622 382.38281 138.25586 383.58091 138.25586 385.97461 L 138.25586 418.47852 C 138.25586 420.82182 139.42622 421.99219 141.76953 421.99219 L 165.50586 421.99219 L 165.50586 413.64062 L 146.79688 413.64062 L 146.79688 390.54688 L 165.50586 390.54688 L 165.50586 382.38281 L 141.76953 382.38281 z M 170.34375 382.38281 L 170.34375 418.47852 C 170.34375 420.87222 171.51411 422.06836 173.85742 422.06836 L 178.88477 421.99219 L 178.88477 382.38281 L 170.34375 382.38281 z M 200.76758 382.38281 L 200.76758 418.47852 C 200.76758 420.87222 201.9399 422.06836 204.2832 422.06836 L 209.31055 421.99219 L 209.31055 382.38281 L 200.76758 382.38281 z M 234.70898 382.38281 C 232.36568 382.38281 231.19336 383.58091 231.19336 385.97461 L 231.19336 418.47852 C 231.19336 420.82182 232.36568 421.99219 234.70898 421.99219 L 258.48242 421.99219 L 258.48242 413.64062 L 239.73633 413.64062 L 239.73633 390.54688 L 258.48242 390.54688 L 258.48242 382.38281 L 234.70898 382.38281 z M 266.79688 382.38281 C 264.45357 382.38281 263.28125 383.58091 263.28125 385.97461 L 263.28125 421.99219 L 271.74805 421.99219 L 271.74805 390.8125 L 285.35352 390.8125 L 285.35352 398.14453 L 273.75195 398.14453 L 273.75195 408.95312 L 283.91797 421.99219 L 294.46289 421.99219 L 282.29297 406.38281 L 290.38086 406.38281 C 292.77456 406.38281 293.9707 405.21245 293.9707 402.86914 L 293.9707 386.08789 C 293.9707 383.6186 292.77456 382.38281 290.38086 382.38281 L 266.79688 382.38281 z M 22.072266 398.14453 L 22.072266 413.82812 L 0 413.82812 L 0 421.99219 L 27.476562 421.99219 C 29.567901 421.99219 30.613281 420.84565 30.613281 418.55273 L 30.613281 401.84766 C 30.613281 400.76419 30.323668 399.86957 29.744141 399.16406 C 29.18981 398.48375 28.372527 398.14453 27.289062 398.14453 L 22.072266 398.14453 z M 148.875 398.14453 L 148.875 406.38281 L 162.17969 406.38281 L 162.17969 398.14453 L 148.875 398.14453 z M 241.85156 398.14453 L 241.85156 406.38281 L 255.15625 406.38281 L 255.15625 398.14453 L 241.85156 398.14453 z M 180.88867 413.82812 L 180.88867 421.99219 L 195.89258 421.99219 L 195.89258 413.82812 L 180.88867 413.82812 z M 211.3125 413.82812 L 211.3125 421.99219 L 226.31836 421.99219 L 226.31836 413.82812 L 211.3125 413.82812 z M 298.73438 413.82812 L 298.73438 421.99219 L 307.27539 421.99219 L 307.27539 413.82812 L 298.73438 413.82812 z "
       transform="matrix(0.26458334,0,0,0.26458334,0,-0.00225328)"
       id="path7150" />
    <path
       style="fill:#000000;stroke-width:3.77952743"
       clip-path="none"
       d="M 376.5918 370.09961 L 376.5918 378.30078 L 385.17188 378.30078 L 385.17188 370.09961 L 376.5918 370.09961 z M 388.08203 370.09961 L 388.08203 378.30078 L 396.66211 378.30078 L 396.66211 370.09961 L 388.08203 370.09961 z M 335.92383 382.38281 L 335.92383 421.99219 L 344.50391 421.99219 L 344.50391 406.38281 L 355.99414 406.38281 L 355.99414 398.14453 L 344.50391 398.14453 L 344.50391 382.38281 L 335.92383 382.38281 z M 357.95898 382.38281 L 357.95898 421.99219 L 366.53906 421.99219 L 366.53906 382.38281 L 357.95898 382.38281 z M 374.4375 382.38281 C 372.34616 382.38281 371.30078 383.45397 371.30078 385.5957 L 371.30078 418.47852 C 371.30078 420.82182 372.4731 421.99219 374.81641 421.99219 L 391.33203 421.99219 L 391.33203 413.64062 L 379.91797 413.64062 L 379.91797 390.54688 L 393.41016 390.54688 L 393.41016 421.99219 L 398.4375 421.99219 C 400.78081 421.99219 401.95312 420.88334 401.95312 418.66602 L 401.95312 385.5957 C 401.95313 383.45397 400.75503 382.38281 398.36133 382.38281 L 374.4375 382.38281 z M 406.63867 382.38281 L 406.63867 421.99219 L 415.18164 421.99219 L 415.18164 406.38281 L 426.66992 406.38281 L 426.66992 398.14453 L 415.18164 398.14453 L 415.18164 382.38281 L 406.63867 382.38281 z M 428.67383 382.38281 L 428.67383 421.99219 L 437.21484 421.99219 L 437.21484 382.38281 L 428.67383 382.38281 z M 445.49219 382.38281 C 443.14888 382.38281 441.97852 383.58091 441.97852 385.97461 L 441.97852 418.47852 C 441.97852 420.82182 443.14888 421.99219 445.49219 421.99219 L 469.22852 421.99219 L 469.22852 413.64062 L 450.51953 413.64062 L 450.51953 390.54688 L 469.22852 390.54688 L 469.22852 382.38281 L 445.49219 382.38281 z M 477.58008 382.38281 C 475.23677 382.38281 474.06641 383.58091 474.06641 385.97461 L 474.06641 421.99219 L 482.53125 421.99219 L 482.53125 390.8125 L 496.10156 390.8125 L 496.10156 398.14453 L 484.53516 398.14453 L 484.53516 408.95312 L 494.70312 421.99219 L 505.24805 421.99219 L 493.07617 406.38281 L 501.16602 406.38281 C 503.55972 406.38281 504.75586 405.21245 504.75586 402.86914 L 504.75586 386.08789 C 504.75586 383.6186 503.55972 382.38281 501.16602 382.38281 L 477.58008 382.38281 z M 452.59766 398.14453 L 452.59766 406.38281 L 465.90234 406.38281 L 465.90234 398.14453 L 452.59766 398.14453 z M 509.51758 413.82812 L 509.51758 421.99219 L 518.06055 421.99219 L 518.06055 413.82812 L 509.51758 413.82812 z "
       transform="matrix(0.26458334,0,0,0.26458334,0,-0.00225328)"
       id="path7170" />
    <path
       style="fill:#000000;stroke-width:3.77952743"
       clip-path="none"
       d="M 546.82227 382.38281 L 546.82227 422.18164 L 564.09375 407.17773 L 581.29102 422.18164 L 581.29102 411.71289 L 563.98047 395.76367 L 555.36328 403.92578 L 555.36328 382.38281 L 546.82227 382.38281 z M 572.75 382.38281 L 572.75 400.78906 L 581.29102 408.68945 L 581.29102 382.38281 L 572.75 382.38281 z M 589.64453 382.38281 C 587.30122 382.38281 586.12891 383.58091 586.12891 385.97461 L 586.12891 418.47852 C 586.12891 420.82182 587.30122 421.99219 589.64453 421.99219 L 613.41797 421.99219 L 613.41797 413.64062 L 594.66992 413.64062 L 594.66992 390.54688 L 613.41797 390.54688 L 613.41797 382.38281 L 589.64453 382.38281 z M 618.25586 382.38281 L 618.25586 390.8125 L 626.68359 390.8125 L 626.68359 421.99219 L 643.04883 421.99219 L 643.04883 413.52734 L 635.15039 413.52734 L 635.15039 390.8125 L 643.04883 390.8125 L 643.04883 382.38281 L 618.25586 382.38281 z M 647.73633 382.38281 L 647.73633 390.8125 L 656.95703 390.8125 L 656.95703 421.99219 L 665.42383 421.99219 L 665.42383 382.38281 L 647.73633 382.38281 z M 667.38867 382.38281 L 667.38867 390.8125 L 675.09961 390.8125 L 675.09961 382.38281 L 667.38867 382.38281 z M 683.33789 382.38281 C 680.99458 382.38281 679.82422 383.58091 679.82422 385.97461 L 679.82422 418.47852 C 679.82422 420.82182 680.99458 421.99219 683.33789 421.99219 L 707.11133 421.99219 L 707.11133 413.64062 L 688.40234 413.64062 L 688.40234 390.54688 L 707.11133 390.54688 L 707.11133 382.38281 L 683.33789 382.38281 z M 715.46484 382.38281 C 713.12154 382.38281 711.94922 383.58091 711.94922 385.97461 L 711.94922 421.99219 L 720.37695 421.99219 L 720.37695 390.8125 L 733.98438 390.8125 L 733.98438 398.14453 L 722.38086 398.14453 L 722.38086 408.95312 L 732.54883 421.99219 L 743.09375 421.99219 L 730.92188 406.38281 L 739.01172 406.38281 C 741.40542 406.38281 742.60156 405.21245 742.60156 402.86914 L 742.60156 386.08789 C 742.60156 383.6186 741.40542 382.38281 739.01172 382.38281 L 715.46484 382.38281 z M 596.78711 398.14453 L 596.78711 406.38281 L 610.0918 406.38281 L 610.0918 398.14453 L 596.78711 398.14453 z M 690.48242 398.14453 L 690.48242 406.38281 L 703.78516 406.38281 L 703.78516 398.14453 L 690.48242 398.14453 z M 618.25586 413.52734 L 618.25586 421.99219 L 624.67969 421.99219 L 624.67969 413.52734 L 618.25586 413.52734 z M 747.36328 413.82812 L 747.36328 421.99219 L 755.90625 421.99219 L 755.90625 413.82812 L 747.36328 413.82812 z "
       transform="matrix(0.26458334,0,0,0.26458334,0,-0.00225328)"
       id="path7182" />
  </g>
</svg>
